<svg xmlns="http://www.w3.org/2000/svg" viewBox="0 0 200 200"><defs><style>.cls-1{fill:#fff;}.cls-2{fill:#d9d9db;}.cls-3{fill:none;}</style></defs><g id="Layer_2" data-name="Layer 2"><g id="Whiteout"><path class="cls-1" d="M152.75,79.78V38.94H113.17V34H86.59v4.94H48.83v9.74h-2.7a6.24,6.24,0,0,0-6.23,6.23V64a6.24,6.24,0,0,0,6.23,6.23h2.7v9.58H41.48v38.89H66.87a46.58,46.58,0,0,0,10.33,5.64v.85c0,5.86,4.76,11,11.79,13.57v22.4H72.92L68,166h83.9V118.67h8.16V79.78ZM48.83,67h-2.7a3,3,0,0,1-3-3V54.91a3,3,0,0,1,3-3h2.7Zm69.91-21.72h26.65V61.87H143V47.67H118.74Zm-65.17,0H80.22v2.44H56V63.9H53.57ZM62,64.73a3.94,3.94,0,0,1,.84,0l.26,0a5.47,5.47,0,0,1,.58.15l.28.1c.21.08.42.18.63.28l.17.09a6.87,6.87,0,0,1,.75.49l.28.24c.16.13.31.26.47.41l.3.29c.16.17.31.34.47.53s.15.17.23.26c2.54,3.17,4.35,8.59,4.63,14.82.44,10-3.26,18.35-8.27,18.57l13.85-.62h0c4.07-.18,7.53-9.18,7.11-18.51s-4.31-17.53-8.25-17.81a2.94,2.94,0,0,0-.42,0l-3,.13c0-.2,0-.39,0-.59L86.14,46.18h27.41l13.32,17.47c0,.2,0,.39,0,.59l-3-.13a2.43,2.43,0,0,0-.27,0c-4,.12-8,8.47-8.41,17.81s3,18.33,7.11,18.51h0l13.86.62c-5-.22-8.72-8.54-8.27-18.57.28-6.22,2.09-11.63,4.61-14.8l.26-.3.45-.5.31-.3c.15-.14.3-.28.46-.41l.28-.23a7.88,7.88,0,0,1,.74-.49l.2-.1a5.51,5.51,0,0,1,.61-.28l.29-.1q.28-.09.57-.15l.27,0a3.88,3.88,0,0,1,.84,0c5,.22,8.72,8.53,8.27,18.56A33.83,33.83,0,0,1,144.85,91h0c-.07.23-.12.46-.19.68l-.06.37c0,.34-.11.68-.17,1h0c-.09.46-.19.92-.31,1.38v0c0,.15-.09.3-.13.45-4.1,14.08-22.29,24.69-44.12,24.69-15.31,0-28.83-5.23-37-13.2C58.52,102,55.69,96.84,55,91.48a1.87,1.87,0,0,1,0-.25,33.22,33.22,0,0,1-1.28-7.94C53.26,73.26,57,65,62,64.73Zm36.89,81a3.54,3.54,0,1,1-7.08,0v-11.5a3.54,3.54,0,0,1,7.08,0Zm48.2,15.44H110.71v-22.4c7-2.62,11.79-7.71,11.79-13.57v-.85a46.58,46.58,0,0,0,10.33-5.64h14.24Z"/><path class="cls-1" d="M116.47,98.84c-2.61-4.1-4-10.74-3.7-17a39.86,39.86,0,0,1,.59-5.23,68.78,68.78,0,0,1-13.51,1.13,68.93,68.93,0,0,1-13.44-1.12A39.9,39.9,0,0,1,87,81.81c.28,6.3-1.1,13-3.73,17.06a35.93,35.93,0,0,0,33.2,0Z"/><path class="cls-1" d="M122,108.3c2,0,3.56-1.09,3.56-2.43s-1.59-2.43-3.56-2.43-3.56,1.09-3.56,2.43S120,108.3,122,108.3Z"/><path class="cls-1" d="M108.06,108.49c-2,0-3.56,1.08-3.56,2.42s1.59,2.44,3.56,2.44,3.56-1.09,3.56-2.44S110,108.49,108.06,108.49Z"/><path class="cls-1" d="M91.64,108.49c-2,0-3.57,1.08-3.57,2.43s1.6,2.43,3.57,2.43,3.56-1.09,3.56-2.43S93.6,108.49,91.64,108.49Z"/><path class="cls-1" d="M77.7,108.3c2,0,3.56-1.09,3.56-2.43s-1.59-2.43-3.56-2.43-3.57,1.09-3.57,2.43S75.73,108.3,77.7,108.3Z"/><path class="cls-1" d="M56.21,141.08a3.52,3.52,0,0,0-5,0l-8.14,8.13a3.54,3.54,0,0,0,5,5l8.13-8.13A3.54,3.54,0,0,0,56.21,141.08Z"/><path class="cls-1" d="M68.61,148.51a3.55,3.55,0,0,0-5,0l-8.13,8.14a3.54,3.54,0,0,0,5,5l8.14-8.13A3.55,3.55,0,0,0,68.61,148.51Z"/><path class="cls-1" d="M74.09,142.41a3.55,3.55,0,0,0,0-5L66,129.27a3.54,3.54,0,0,0-5,5l8.13,8.13A3.55,3.55,0,0,0,74.09,142.41Z"/><path class="cls-1" d="M126.32,132.75a3.53,3.53,0,0,0-3.54,3.54v11.5a3.54,3.54,0,1,0,7.07,0v-11.5A3.55,3.55,0,0,0,126.32,132.75Z"/><path class="cls-1" d="M47.73,136.12,55.87,128a3.54,3.54,0,1,0-5-5l-8.13,8.12a3.54,3.54,0,0,0,5,5Z"/><path class="cls-1" d="M61.7,91.93c2.48-.11,4.31-4.22,4.09-9.18S63.38,73.86,60.9,74s-4.31,4.23-4.09,9.18S59.22,92,61.7,91.93Z"/><path class="cls-1" d="M141.47,83.09c.22-5-1.61-9.07-4.09-9.18s-4.67,3.82-4.9,8.78,1.62,9.06,4.1,9.18S141.25,88,141.47,83.09Z"/><rect class="cls-2" x="86.59" y="34" width="15.85" height="3.52"/><polygon class="cls-2" points="53.57 45.23 80.22 45.23 80.22 47.67 56 47.67 56 48.65 84.26 48.65 86.14 46.18 102.44 46.18 102.44 43 48.83 43 48.83 48.65 53.57 48.65 53.57 45.23"/><rect class="cls-2" x="48.83" y="54.3" width="4.74" height="8.47"/><polygon class="cls-2" points="56 54.3 56 62.77 73.5 62.77 79.96 54.3 56 54.3"/><path class="cls-2" d="M43.15,54.91a3.08,3.08,0,0,1,.06-.61H39.93a6.08,6.08,0,0,0,0,.61v7.86h3.25Z"/><path class="cls-2" d="M57.13,67.93H41.33a6.22,6.22,0,0,0,4.8,2.27h2.7v9h4.93C54.08,74.57,55.32,70.55,57.13,67.93Z"/><path class="cls-2" d="M102.44,77.67c-.85,0-1.72,0-2.59,0a68.93,68.93,0,0,1-13.44-1.12c.16.87.28,1.76.38,2.64h15.65Z"/><path class="cls-2" d="M60.9,74c-1.78.08-3.22,2.23-3.81,5.26h8.18C64.44,76.06,62.75,73.89,60.9,74Z"/><path class="cls-2" d="M84.33,79.23a29.58,29.58,0,0,0-3.5-11.3H67.43a24.67,24.67,0,0,1,4.13,11.3Z"/><path class="cls-2" d="M102.44,83.77H87c0,5.22-1.19,10.47-3.2,14.14h18.61Z"/><path class="cls-2" d="M56,95.74c-.14-.44-.28-.89-.39-1.33h0A22.13,22.13,0,0,1,55,91.48a1.87,1.87,0,0,1,0-.25,33.67,33.67,0,0,1-1.25-7.46H41.48V97.91H56.86A22.32,22.32,0,0,1,56,95.74Z"/><path class="cls-2" d="M68.39,97.91H81c2.09-3,3.54-8.41,3.59-14.14H71.89C72,89.64,70.59,94.79,68.39,97.91Z"/><path class="cls-2" d="M61.7,91.93c2.31-.1,4-3.67,4.11-8.16h-9C57.22,88.43,59.33,92,61.7,91.93Z"/><path class="cls-2" d="M91,101.86a37.46,37.46,0,0,0,8.89,1.06c.87,0,1.74,0,2.59-.09v-1Z"/><path class="cls-2" d="M77.7,103.44c-2,0-3.57,1.09-3.57,2.43s1.6,2.43,3.57,2.43,3.56-1.09,3.56-2.43S79.67,103.44,77.7,103.44Z"/><path class="cls-2" d="M91.64,108.49c-2,0-3.57,1.08-3.57,2.43s1.6,2.43,3.57,2.43,3.56-1.09,3.56-2.43S93.6,108.49,91.64,108.49Z"/><path class="cls-2" d="M102.44,119.5c-.86,0-1.72.06-2.59.06-18,0-33.6-7.25-40.77-17.7H41.48v16.81H66.87c.74.54,1.51,1.06,2.3,1.56h33.27Z"/><path class="cls-2" d="M56.21,141.08a3.52,3.52,0,0,0-5,0l-.85.84h6.46A3.53,3.53,0,0,0,56.21,141.08Z"/><path class="cls-2" d="M91.79,134.19a3.54,3.54,0,0,1,7.08,0v7.73h3.57V122.14H72.51a49.22,49.22,0,0,0,4.69,2.17v.85c0,5.86,4.76,11,11.79,13.57v3.19h2.8Z"/><path class="cls-2" d="M50.86,123l-8.13,8.12a3.54,3.54,0,0,0,5,5L55.87,128a3.55,3.55,0,0,0,0-5,3.62,3.62,0,0,0-1.4-.84H52.26A3.53,3.53,0,0,0,50.86,123Z"/><path class="cls-2" d="M66,129.27a3.54,3.54,0,0,0-5,5l7.65,7.64h5.88a3.53,3.53,0,0,0-.39-4.52Z"/><path class="cls-2" d="M43.07,149.21a3.54,3.54,0,0,0,5,5l8.13-8.13a3.57,3.57,0,0,0,1-2.07H48.27Z"/><path class="cls-2" d="M98.87,144v1.68a3.54,3.54,0,1,1-7.08,0V144H89v17.12H72.92L68,166h34.4V144Z"/><path class="cls-2" d="M68.61,148.51a3.55,3.55,0,0,0-5,0l-8.13,8.14a3.54,3.54,0,0,0,5,5l8.14-8.13A3.55,3.55,0,0,0,68.61,148.51Z"/><rect class="cls-3" width="200" height="200"/></g></g></svg>