<?xml version="1.0" encoding="UTF-8"?>
<svg id="Layer_2" data-name="Layer 2" xmlns="http://www.w3.org/2000/svg" viewBox="0 0 200 200">
  <defs>
    <style>
      .cls-1 {
        fill: #fff;
      }

      .cls-2 {
        fill: #8cd005;
      }

      .cls-3 {
        fill: #b3ded4;
      }

      .cls-4 {
        fill: none;
      }
    </style>
  </defs>
  <g id="Layer_1-2" data-name="Layer 1">
    <g id="Layer_2-2" data-name="Layer 2">
      <g id="Backg_Layer_copy" data-name="Backg Layer copy">
        <rect class="cls-4" width="200" height="200"/>
      </g>
      <g>
        <path class="cls-1" d="m91.49,106.16l1.22,59.01c-4.78-.57-9.39-1.65-13.79-3.2l1.16-55.81c-5.21-2.32-8.49-8.07-8.49-12.22v-.48s0-1.13,0-1.13l2.07-27.64c0-1.72.92-3.18,2.04-3.16,1.58.03,1.6,1.42,1.7,3.16v25.92h3v-27.17c0-1.07.86-1.93,1.93-1.93s1.93.86,1.93,1.93v27.17h3.06v-27.17c0-1.07.86-1.93,1.93-1.93s1.93.86,1.93,1.93v27.17h2.99v-25.92c.1-1.75.12-3.13,1.71-3.16,1.12-.02,2.04,1.44,2.04,3.16l2.07,27.64s0,1.12,0,1.13v.48c0,4.15-3.28,9.9-8.49,12.22Zm34.91-56.01l.46-9.23c-4.21-1.87-8.65-3.31-13.27-4.25v8.73c-4.21-1-8.58-1.54-13.09-1.54-31.23,0-56.64,25.41-56.64,56.64,0,18.82,9.31,36.36,24.92,46.93l2.27-3.35c-14.49-9.82-23.14-26.11-23.14-43.58,0-29,23.59-52.59,52.59-52.59,4.52,0,8.9.57,13.09,1.65v74.93c5.93,1.14,10.08,0,13.05-6.81,2.22-5.09,4.83-9.51,4.83-26.45,0-10.34-5.32-18.99-5.98-22.78l.69-13.83c16.05,9.02,26.92,26.2,26.92,45.88h4.04c0-21.9-12.51-40.93-30.74-50.35Zm-22.33,79.77l-6.93,6.93,14.87,14.87c1.91,1.91,5.01,1.91,6.92,0l6.12-6.12,22.45-22.46v-13.86l-32.04,32.04-11.4-11.4Z"/>
        <path class="cls-3" d="m126.86,40.93l-.46,9.23c18.24,9.42,30.74,28.44,30.74,50.35h-4.04c0-19.68-10.87-36.86-26.92-45.88l-.69,13.83c.66,3.79,5.98,12.44,5.98,22.78,0,16.94-2.61,21.36-4.83,26.45-2.97,6.81-7.11,7.95-13.05,6.81V49.55c-4.19-1.08-8.57-1.65-13.09-1.65-29,0-52.59,23.59-52.59,52.59,0,17.47,8.65,33.77,23.14,43.58l-2.27,3.35c-15.6-10.57-24.92-28.11-24.92-46.93,0-31.23,25.41-56.64,56.64-56.64,4.51,0,8.88.54,13.09,1.54v-8.73c-4.23-.86-8.61-1.32-13.09-1.32-35.98,0-65.15,29.17-65.15,65.14,0,28.41,18.2,52.56,43.56,61.47l1.16-55.81c-5.21-2.32-8.49-8.07-8.49-12.22v-.48s0-1.13,0-1.13l2.07-27.64c0-1.72.92-3.18,2.04-3.16,1.58.03,1.6,1.42,1.7,3.16v25.92h3v-27.17c0-1.07.86-1.93,1.93-1.93s1.93.86,1.93,1.93v27.17h3.06v-27.17c0-1.07.86-1.93,1.93-1.93s1.93.86,1.93,1.93v27.17h2.99v-25.92c.1-1.75.12-3.13,1.71-3.16,1.12-.02,2.04,1.44,2.04,3.16l2.07,27.64s0,1.12,0,1.13v.48c0,4.15-3.28,9.9-8.49,12.22l1.22,59.01c2.56.3,5.15.48,7.79.48,35.98,0,65.14-29.17,65.14-65.15,0-26.59-15.94-49.45-38.79-59.57Zm20.65,82.21l-22.45,22.46-6.12,6.12c-1.91,1.91-5.02,1.91-6.92,0l-14.87-14.87,6.93-6.93,11.4,11.4,32.04-32.04v13.86Z"/>
        <g>
          <path class="cls-2" d="m77.4,64.7v6.24h3v-7.5c0-.16.03-.32.06-.47h-3.22c.1.49.12,1.08.16,1.72Z"/>
          <path class="cls-2" d="m84.25,63.44v7.5h3.06v-7.5c0-.16.03-.32.06-.47h-3.19c.04.15.06.3.06.47Z"/>
          <rect class="cls-2" x="91.17" y="75.79" width="2.99" height="10.63"/>
          <rect class="cls-2" x="84.25" y="75.79" width="3.06" height="10.63"/>
          <path class="cls-2" d="m99.98,93.94c0,3.16-1.91,7.25-5.12,10.04h7.81v-13.29h-2.81l.12,1.64s0,1.12,0,1.13v.48Z"/>
          <rect class="cls-2" x="77.4" y="75.79" width="3" height="10.63"/>
          <path class="cls-2" d="m102.67,57.67v-5.31h-23.31c-3.3,1.46-6.42,3.24-9.33,5.31h32.64Z"/>
          <path class="cls-2" d="m71.04,144.08l-.86,1.28h9.08l.39-18.6h-24.7c3.93,6.81,9.37,12.77,16.09,17.32Z"/>
          <path class="cls-2" d="m48.42,107.69c.77,5.59,2.43,10.96,4.87,15.95h26.42l.33-15.95h-31.63Z"/>
          <path class="cls-2" d="m91.11,62.98c.04.15.06.3.06.47v7.5h2.99v-6.24c.04-.64.07-1.23.16-1.72h-3.22Z"/>
          <path class="cls-2" d="m71.58,93.94v-.48s0-1.13,0-1.13l.12-1.64h-22.86c-.6,3.18-.93,6.46-.93,9.81,0,1.17.04,2.33.12,3.48h28.67c-3.21-2.79-5.12-6.88-5.12-10.04Z"/>
          <path class="cls-2" d="m73.18,70.94l.47-6.25c0-.63.12-1.22.34-1.71h-10.29c-2.47,2.43-4.71,5.09-6.67,7.96h16.15Z"/>
          <polygon class="cls-2" points="102.67 75.79 98.75 75.79 99.54 86.42 102.67 86.42 102.67 75.79"/>
          <path class="cls-2" d="m72.02,86.42l.8-10.63h-18.73c-1.79,3.34-3.22,6.9-4.25,10.63h22.18Z"/>
          <path class="cls-2" d="m78.92,161.97l.3-14.65h-10.37l-.08.11c-.05-.04-.1-.07-.15-.11h-13.4c6.68,6.46,14.74,11.5,23.69,14.65h0Z"/>
          <path class="cls-2" d="m50.32,126.76h-9.44c3.05,6.92,7.27,13.19,12.4,18.6h12.63c-6.56-5.06-11.84-11.43-15.59-18.6Z"/>
          <path class="cls-2" d="m44.32,107.69h-8.57c.61,5.56,1.92,10.9,3.84,15.95h9.21c-2.25-5.03-3.78-10.39-4.48-15.95Z"/>
          <path class="cls-2" d="m92.71,165.16c2.56.31,5.15.48,7.79.48.73,0,1.45-.03,2.17-.05v-18.27h-10.33l.37,17.85Z"/>
          <path class="cls-2" d="m102.67,62.98h-5.09c.21.5.34,1.09.34,1.71l.47,6.25h4.29v-7.96Z"/>
          <path class="cls-2" d="m43.86,100.5c0-3.35.31-6.62.87-9.81h-8.64c-.48,3.2-.74,6.48-.74,9.81,0,1.17.03,2.33.09,3.48h8.52c-.07-1.15-.11-2.31-.11-3.48Z"/>
          <polygon class="cls-2" points="97.14 136.85 102.67 131.31 102.67 126.76 91.92 126.76 92.3 145.36 102.67 145.36 102.67 142.38 97.14 136.85"/>
          <path class="cls-2" d="m49.55,75.79h-9.33c-1.4,3.41-2.51,6.96-3.32,10.63h8.74c.95-3.7,2.27-7.26,3.91-10.63Z"/>
          <polygon class="cls-2" points="102.67 107.69 91.52 107.69 91.85 123.63 102.67 123.63 102.67 107.69"/>
          <path class="cls-2" d="m100.5,43.86c.73,0,1.45.04,2.17.07v-.2h-34.11c-1.89,1.07-3.73,2.23-5.5,3.47h18.28c5.99-2.16,12.43-3.34,19.15-3.34Z"/>
          <path class="cls-2" d="m102.67,35.41c-.72-.02-1.44-.05-2.17-.05-7.26,0-14.24,1.21-20.77,3.4h22.94v-3.35Z"/>
          <path class="cls-2" d="m70.71,52.35h-14.09c-1.83,1.67-3.55,3.45-5.18,5.31h12.06c2.26-1.95,4.66-3.73,7.21-5.31Z"/>
          <path class="cls-2" d="m58.13,62.98h-10.86c-1.79,2.53-3.39,5.19-4.81,7.96h9.75c1.74-2.83,3.72-5.49,5.92-7.96Z"/>
        </g>
      </g>
    </g>
  </g>
</svg>