<svg xmlns="http://www.w3.org/2000/svg" xmlns:xlink="http://www.w3.org/1999/xlink" viewBox="0 0 200 200"><defs><style>.cls-1{fill:none;}.cls-2{fill:#1790b0;}.cls-3{clip-path:url(#clip-path);}.cls-4{fill:#006d95;}</style><clipPath id="clip-path"><path class="cls-1" d="M111.82,106.75V91.57h21.05v15.18Zm25,16.39V108.2h-2.55v14.94Zm0-40.52h-2.55v7.51h2.55Zm23.7,42H138.31v13.83l-1,1.11h23.25Zm-23.7-33h-2.55v15.18h2.55Zm-4,31.57V108.2H111.82v14.94Zm4,14.79V124.58h-2.55v14.94h1.12Zm-4,1.59V124.58H111.82v14.94Zm27.69,9.56V141H136l-1.42,1.57v6.54h.28l2.78-3.57v3.57ZM132.87,141H111.82v8.11h21.05Zm27.69-32.77H138.31v14.94h22.25Zm-22.25-1.45h22.25v-10l-8.2-5.21H138.31Zm-5.44-25.57V75.51h-2.24v5.67Zm0,8.95V82.62h-3.69V75.51H111.82V90.13Zm0-33V53.74H111.82v3.38Zm0,16.94V58.56H111.82v15.5Zm-22.49,50.52H107.2V138l1.42,1.57h1.76Zm0-16.38H107.2v14.94h3.18ZM102,71.27l.78,4.36h3.51V67h-3.51Zm8.43,69.7h-.46l.46.51ZM102,111.63l.78,4.36h3.51v-8.66h-3.51Zm0-20.14.78,4.36h3.51V87.19h-3.51Zm11.87,63.45h16.42v16.13h-1.06v-9.49h-1.67l-.41-.47h0l-4.51,3.71,6.06,5,.43.36-.46.56-.39-.32L122,165.28l-6.19,5.11-.39.31-.48-.56.43-.36,6.05-5L117,161.11h0l-.41.46h-1.66v9.51h-1.06Zm12.78,5.6-1.54-1.78H119l-1.56,1.81,4.56,3.76Zm-11.72-2.09h14.41v-1.82H114.88Zm48.39-.85-.85-2.19-1.86-1v-.33l2.71-.48-.85-2.19-1.61-.87H137.65v15.33H132.4v1.91l4,2.47h1.21v.85h22.91v-9l2.71-.48-.85-2.19-1.86-1v-.32Zm-51.45-7.07h-.5l1.6,2.33.44.64h17.32l.44-.64,1.61-2.33Zm22.49-93.41h2.51l-2.51-2.79Zm14.78,18.39H134.31v5.67h4v8.95h11.77l-.91-.58v-21l-10.86-7.45v13h10.78Zm-14.78-1.45h2.55V58.56h-2.55ZM110.38,91.57H107.2v15.18h3.18Zm22.77-50.28h-4V28.91h-14.3V41.3h-4v11h22.23ZM110.38,75.51H107.2V90.13h3.18Zm0-21.77v-.08l0,0h0l-3.07,3.42h3.12Zm0,4.82H107.2v15.5h3.18Z"/></clipPath></defs><g id="Layer_2" data-name="Layer 2"><g id="Backg_Layer_copy" data-name="Backg Layer copy"><rect class="cls-1" width="200" height="200"/></g><g id="_2_tone_blue" data-name="2 tone blue"><g id="drying"><path class="cls-2" d="M111.82,106.75V91.57h21.05v15.18Zm25,16.39V108.2h-2.55v14.94Zm0-40.52h-2.55v7.51h2.55Zm23.7,42H138.31v13.83l-1,1.11h23.25Zm-23.7-33h-2.55v15.18h2.55Zm-4,31.57V108.2H111.82v14.94Zm4,14.79V124.58h-2.55v14.94h1.12Zm-4,1.59V124.58H111.82v14.94Zm27.69,9.56V141H136l-1.42,1.57v6.54h.28l2.78-3.57v3.57ZM132.87,141H111.82v8.11h21.05Zm27.69-32.77H138.31v14.94h22.25Zm-22.25-1.45h22.25v-10l-8.2-5.21H138.31Zm-5.44-25.57V75.51h-2.24v5.67Zm0,8.95V82.62h-3.69V75.51H111.82V90.13Zm0-33V53.74H111.82v3.38Zm0,16.94V58.56H111.82v15.5Zm-22.49,50.52H107.2V138l1.42,1.57h1.76Zm0-16.38H107.2v14.94h3.18ZM102,71.27l.78,4.36h3.51V67h-3.51Zm8.43,69.7h-.46l.46.51ZM102,111.63l.78,4.36h3.51v-8.66h-3.51Zm0-20.14.78,4.36h3.51V87.19h-3.51Zm11.87,63.45h16.42v16.13h-1.06v-9.49h-1.67l-.41-.47h0l-4.51,3.71,6.06,5,.43.36-.46.56-.39-.32L122,165.28l-6.19,5.11-.39.31-.48-.56.43-.36,6.05-5L117,161.11h0l-.41.46h-1.66v9.51h-1.06Zm12.78,5.6-1.54-1.78H119l-1.56,1.81,4.56,3.76Zm-11.72-2.09h14.41v-1.82H114.88Zm48.39-.85-.85-2.19-1.86-1v-.33l2.71-.48-.85-2.19-1.61-.87H137.65v15.33H132.4v1.91l4,2.47h1.21v.85h22.91v-9l2.71-.48-.85-2.19-1.86-1v-.32Zm-51.45-7.07h-.5l1.6,2.33.44.64h17.32l.44-.64,1.61-2.33Zm22.49-93.41h2.51l-2.51-2.79Zm14.78,18.39H134.31v5.67h4v8.95h11.77l-.91-.58v-21l-10.86-7.45v13h10.78Zm-14.78-1.45h2.55V58.56h-2.55ZM110.38,91.57H107.2v15.18h3.18Zm22.77-50.28h-4V28.91h-14.3V41.3h-4v11h22.23ZM110.38,75.51H107.2V90.13h3.18Zm0-21.77v-.08l0,0h0l-3.07,3.42h3.12Zm0,4.82H107.2v15.5h3.18Z"/><g class="cls-3"><polygon class="cls-4" points="1.58 49.2 132.96 49.2 132.96 52.55 1.58 52.55 1.58 49.2 1.58 49.2"/><polygon class="cls-4" points="1.58 41.06 132.96 41.06 132.96 44.41 1.58 44.41 1.58 41.06 1.58 41.06"/><polygon class="cls-4" points="1.58 57.51 132.96 57.51 132.96 62.63 1.58 62.63 1.58 57.51 1.58 57.51"/><polygon class="cls-4" points="1.58 67.75 132.96 67.75 132.96 75.43 1.58 75.43 1.58 67.75 1.58 67.75"/><polygon class="cls-4" points="1.58 80.1 132.96 80.1 132.96 90.35 1.58 90.35 1.58 80.1 1.58 80.1"/><polygon class="cls-4" points="1.58 94.46 132.96 94.46 132.96 107.27 1.58 107.27 1.58 94.46 1.58 94.46"/><polygon class="cls-4" points="1.58 110.85 132.96 110.85 132.96 126.22 1.58 126.22 1.58 110.85 1.58 110.85"/><polygon class="cls-4" points="1.58 129.23 132.96 129.23 132.96 147.15 1.58 147.15 1.58 129.23 1.58 129.23"/><polygon class="cls-4" points="1.58 149.04 132.96 149.04 132.96 169.53 1.58 169.53 1.58 149.04 1.58 149.04"/></g><path class="cls-2" d="M53.16,60.89a25.44,25.44,0,0,0,12.56-3,19.5,19.5,0,0,1,9.94-2.4A19,19,0,0,1,85,57.58V51a25.22,25.22,0,0,0-9.29-1.56,25.55,25.55,0,0,0-12.56,3,19.5,19.5,0,0,1-9.94,2.4,19.63,19.63,0,0,1-10-2.4,28.13,28.13,0,0,0-6.46-2.38v6.23a26.74,26.74,0,0,1,3.86,1.59A25.61,25.61,0,0,0,53.16,60.89Z"/><path class="cls-2" d="M53.16,43.7a25.44,25.44,0,0,0,12.56-3,19.5,19.5,0,0,1,9.94-2.4A19,19,0,0,1,85,40.39V33.83a25.22,25.22,0,0,0-9.29-1.56,25.55,25.55,0,0,0-12.56,3,19.5,19.5,0,0,1-9.94,2.4,19.63,19.63,0,0,1-10-2.4,28.13,28.13,0,0,0-6.46-2.38v6.23a26.74,26.74,0,0,1,3.86,1.59A25.61,25.61,0,0,0,53.16,43.7Z"/><path class="cls-2" d="M40.59,75.09a25.61,25.61,0,0,0,12.57,3,25.44,25.44,0,0,0,12.56-3,19.5,19.5,0,0,1,9.94-2.4A19,19,0,0,1,85,74.77V68.21a25.22,25.22,0,0,0-9.29-1.56,25.55,25.55,0,0,0-12.56,3,19.5,19.5,0,0,1-9.94,2.4,19.63,19.63,0,0,1-10-2.4,28.13,28.13,0,0,0-6.46-2.38V73.5A25.65,25.65,0,0,1,40.59,75.09Z"/><path class="cls-2" d="M53.16,111.9a25.44,25.44,0,0,0,12.56-3,19.5,19.5,0,0,1,9.94-2.4A19,19,0,0,1,85,108.59V102a25.24,25.24,0,0,0-9.29-1.55,25.57,25.57,0,0,0-12.56,3,19.49,19.49,0,0,1-9.94,2.41,19.62,19.62,0,0,1-10-2.41,28.13,28.13,0,0,0-6.46-2.38v6.23a26.74,26.74,0,0,1,3.86,1.59A25.61,25.61,0,0,0,53.16,111.9Z"/><path class="cls-2" d="M53.16,94.71a25.44,25.44,0,0,0,12.56-3,19.61,19.61,0,0,1,9.94-2.4A19,19,0,0,1,85,91.4V84.84a25.24,25.24,0,0,0-9.29-1.55,25.57,25.57,0,0,0-12.56,3,19.49,19.49,0,0,1-9.94,2.41,19.73,19.73,0,0,1-10-2.4,27.65,27.65,0,0,0-6.46-2.39v6.23a26.74,26.74,0,0,1,3.86,1.59A25.61,25.61,0,0,0,53.16,94.71Z"/><path class="cls-2" d="M40.59,126.1a25.61,25.61,0,0,0,12.57,3,25.44,25.44,0,0,0,12.56-3,19.61,19.61,0,0,1,9.94-2.4A19,19,0,0,1,85,125.78v-6.56a25.22,25.22,0,0,0-9.29-1.56,25.55,25.55,0,0,0-12.56,3,19.5,19.5,0,0,1-9.94,2.4,19.63,19.63,0,0,1-10-2.4,28.13,28.13,0,0,0-6.46-2.38v6.23A26.74,26.74,0,0,1,40.59,126.1Z"/></g></g></g></svg>