<svg xmlns="http://www.w3.org/2000/svg" viewBox="0 0 200 200"><defs><style>.cls-1{fill:none;}.cls-2{fill:#1790b0;}.cls-3{fill:#006d95;}</style></defs><g id="Layer_2" data-name="Layer 2"><g id="Backg_Layer_copy" data-name="Backg Layer copy"><rect class="cls-1" width="200" height="200"/></g><g id="_2_tone_blue" data-name="2 tone blue"><g id="dosing_weighing" data-name="dosing weighing"><path class="cls-2" d="M85.59,66.71a2.68,2.68,0,1,1,2.68,2.68A2.69,2.69,0,0,1,85.59,66.71Z"/><path class="cls-2" d="M92,58.84a2.68,2.68,0,1,1,2.68,2.68A2.68,2.68,0,0,1,92,58.84Z"/><path class="cls-2" d="M98.34,52.47A2.68,2.68,0,1,1,101,55.15,2.68,2.68,0,0,1,98.34,52.47Z"/><path class="cls-2" d="M92,74.59a2.68,2.68,0,1,1,2.68,2.68A2.68,2.68,0,0,1,92,74.59Z"/><path class="cls-2" d="M98.34,66.71A2.68,2.68,0,1,1,101,69.39,2.68,2.68,0,0,1,98.34,66.71Z"/><path class="cls-2" d="M104.71,58.84a2.68,2.68,0,1,1,2.68,2.68A2.68,2.68,0,0,1,104.71,58.84Z"/><path class="cls-2" d="M98.34,81A2.68,2.68,0,1,1,101,83.64,2.68,2.68,0,0,1,98.34,81Z"/><path class="cls-2" d="M104.71,74.59a2.68,2.68,0,1,1,2.68,2.68A2.68,2.68,0,0,1,104.71,74.59Z"/><path class="cls-2" d="M111.08,66.71a2.68,2.68,0,1,1,2.68,2.68A2.68,2.68,0,0,1,111.08,66.71Z"/><path class="cls-2" d="M86.71,90.52H76L35.75,55.62V36.85h7V52.42Zm77.54-54.33h-7V52.42l-44,38.1H124l40.27-34.9Zm-25,103v19.44a5.19,5.19,0,0,1-5.18,5.17H65.82a5.19,5.19,0,0,1-5.17-5.17V139.2A5.19,5.19,0,0,1,65.82,134h68.25A5.19,5.19,0,0,1,139.25,139.2Zm-24.09,1.86,1.7,1.85h4.31a13.91,13.91,0,0,0,1.49-1.74c0-.24-.74-.44-.74-.44h-6.11A1.06,1.06,0,0,0,115.16,141.06Zm-1.31,6.34s.44.81.61.85,1.51-1.13,1.51-1.13l.45-4.08-1.56-1.7s-.24.14-.46.77Zm-5.71-4.31-.54,4.16s.93,1.07,1.19,1.13.9-.65.9-.65l.61-5.4s-.42-.79-.66-.83A11.6,11.6,0,0,0,108.14,143.09Zm-6.38-2,1.7,1.85h4.31a13.88,13.88,0,0,0,1.48-1.74c0-.24-.74-.44-.74-.44h-6.1A1.06,1.06,0,0,0,101.76,141.06Zm-1.31,6.34s.43.81.61.85,1.5-1.13,1.5-1.13L103,143l-1.57-1.7s-.24.14-.46.77Zm-10.68-6.34,1.7,1.85h4.31a13.91,13.91,0,0,0,1.49-1.74c0-.24-.75-.44-.75-.44h-6.1A1.06,1.06,0,0,0,89.77,141.06Zm5.66,6.43H90.58a9.62,9.62,0,0,0-1.29,1.07c0,.17,1.11,1.09,1.11,1.09h4.88s1.11-.94,1.11-1.09S95.43,147.49,95.43,147.49Zm-17.65-6.43,1.7,1.85H83.8a13.88,13.88,0,0,0,1.48-1.74c0-.24-.74-.44-.74-.44h-6.1A1.06,1.06,0,0,0,77.78,141.06Zm-1.54,15.28,1.63-1.7.46-4.6A13,13,0,0,0,77,148.82c-.17,0-.72.5-.72.5l-.67,5.86A2.2,2.2,0,0,0,76.24,156.34Zm8.08.19-1.53-1.61h-4.7l-1.59,1.66a1.53,1.53,0,0,0,.8.37h6.45C84,157,84.32,156.53,84.32,156.53Zm.09-8a6.23,6.23,0,0,0-1-1.07H78.59a9.62,9.62,0,0,0-1.29,1.07c0,.17,1.12,1.09,1.12,1.09H83.3S84.41,148.71,84.41,148.56Zm1.91-6.23s-.41-.79-.65-.83a11.6,11.6,0,0,0-1.5,1.59l-.55,4.16s.94,1.07,1.2,1.13.89-.65.89-.65Zm2.14,5.07s.44.81.61.85,1.51-1.13,1.51-1.13L91,143l-1.57-1.7s-.24.14-.45.77Zm7.85,9.13-1.53-1.61H90.07l-1.59,1.66a1.53,1.53,0,0,0,.81.37h6.45C96,157,96.31,156.53,96.31,156.53Zm.78-1.11.63-5.93a4.3,4.3,0,0,0-1-.67c-.17,0-1.24,1.07-1.24,1.07L95,154.61a17.82,17.82,0,0,0,1.57,1.6C97.13,155.7,97.09,155.42,97.09,155.42Zm3.12.92,1.63-1.7.46-4.6a14,14,0,0,0-1.28-1.22c-.18,0-.72.5-.72.5l-.68,5.86A2.2,2.2,0,0,0,100.21,156.34Zm8.08.19-1.52-1.61h-4.71l-1.59,1.66a1.53,1.53,0,0,0,.81.37h6.45C108,157,108.29,156.53,108.29,156.53Zm.79-1.11.63-5.93a4.3,4.3,0,0,0-1-.67c-.17,0-1.24,1.07-1.24,1.07l-.52,4.72a19,19,0,0,0,1.56,1.6C109.12,155.7,109.08,155.42,109.08,155.42Zm3.22,0h-2.18l-.08,1.92h2.09Zm1.31.88,1.64-1.7.46-4.6a14.17,14.17,0,0,0-1.29-1.22c-.18,0-.72.5-.72.5l-.68,5.86A2.27,2.27,0,0,0,113.61,156.34Zm8.09.19-1.53-1.61h-4.71l-1.58,1.66a1.48,1.48,0,0,0,.8.37h6.45C121.35,157,121.7,156.53,121.7,156.53Zm.78-1.11.63-5.93a4.3,4.3,0,0,0-1-.67c-.17,0-1.24,1.07-1.24,1.07l-.52,4.72a17.82,17.82,0,0,0,1.57,1.6C122.53,155.7,122.48,155.42,122.48,155.42Zm1.22-13.09s-.41-.79-.65-.83-1.51,1.59-1.51,1.59l-.54,4.16s.94,1.07,1.2,1.13.89-.65.89-.65Zm38.05-51.81L140.05,129H60l-21.7-38.5H76l4.47,3.88,2.45,11.53H90.1L86.85,90.64l-.14-.12h26.58l0,0-4.33,15.37h7.27l3.23-11.45,4.56-4ZM91,122.26a2.68,2.68,0,1,0-2.68,2.68A2.68,2.68,0,0,0,91,122.26Zm6.37-7.87a2.68,2.68,0,1,0-2.68,2.68A2.68,2.68,0,0,0,97.32,114.39Zm6.37,7.87a2.68,2.68,0,1,0-2.67,2.68A2.68,2.68,0,0,0,103.69,122.26Zm0-14.24A2.68,2.68,0,1,0,101,110.7,2.67,2.67,0,0,0,103.69,108Zm6.38,6.37a2.68,2.68,0,1,0-2.68,2.68A2.68,2.68,0,0,0,110.07,114.39Zm6.37,7.87a2.68,2.68,0,1,0-2.68,2.68A2.68,2.68,0,0,0,116.44,122.26Z"/><circle class="cls-2" cx="113.76" cy="52.47" r="2.68"/><path class="cls-2" d="M79.22,58.84a2.68,2.68,0,1,1,2.68,2.68A2.68,2.68,0,0,1,79.22,58.84Z"/><path class="cls-2" d="M85.59,52.47a2.68,2.68,0,1,1,2.68,2.68A2.68,2.68,0,0,1,85.59,52.47Z"/><path class="cls-2" d="M92,46.09a2.68,2.68,0,1,1,2.68,2.68A2.67,2.67,0,0,1,92,46.09Z"/><path class="cls-2" d="M117.46,58.84a2.68,2.68,0,1,1,2.68,2.68A2.68,2.68,0,0,1,117.46,58.84Z"/><rect class="cls-3" x="35.75" y="36.85" width="7" height="1.81"/><polygon class="cls-3" points="80.49 94.39 76.1 90.59 38.29 90.59 45.78 103.89 82.51 103.89 80.49 94.39"/><polygon class="cls-3" points="42.75 52.42 42.75 52.26 35.75 52.26 35.75 55.62 38.01 57.57 48.69 57.57 42.75 52.42"/><rect class="cls-3" x="35.75" y="43.63" width="7" height="3.47"/><path class="cls-3" d="M99.62,155.18l.4-3.48v-4.47H90.44c-.35.27-1.3,1-1.37,1s-.61-.85-.61-.85l0-.17H85.77l-.06.5s-.74.67-.89.65-1.2-1.13-1.2-1.13v0h-23v11.41a5.19,5.19,0,0,0,5.17,5.17H100v-7.68A2.72,2.72,0,0,1,99.62,155.18Zm-24,0,.67-5.86s.55-.55.72-.5A13,13,0,0,1,78.33,150l-.46,4.6-1.63,1.7A2.2,2.2,0,0,1,75.65,155.18Zm8.1,1.77H77.3a1.53,1.53,0,0,1-.8-.37l1.59-1.66h4.7l1.53,1.61S84,157,83.75,157Zm-.45-7.3H78.42s-1.12-.92-1.12-1.09a9.62,9.62,0,0,1,1.29-1.07h4.86a6.23,6.23,0,0,1,1,1.07C84.41,148.71,83.3,149.65,83.3,149.65Zm7.28-2.16h4.85s.92.85,1,1.07-1.11,1.09-1.11,1.09H90.4s-1.11-.92-1.11-1.09A9.62,9.62,0,0,1,90.58,147.49ZM95.74,157H89.29a1.53,1.53,0,0,1-.81-.37l1.59-1.66h4.71l1.53,1.61S96,157,95.74,157Zm.83-.74a17.82,17.82,0,0,1-1.57-1.6l.52-4.72s1.07-1.12,1.24-1.07a4.3,4.3,0,0,1,1,.67l-.63,5.93S97.13,155.7,96.57,156.21Z"/><polygon class="cls-3" points="54.82 62.88 44.13 62.88 53.32 70.85 64.01 70.85 54.82 62.88"/><polygon class="cls-3" points="89.66 103.89 100.02 103.89 100.02 90.59 86.79 90.59 86.85 90.64 89.66 103.89"/><path class="cls-3" d="M85.59,122.26a2.68,2.68,0,1,1,5.36,0,2.63,2.63,0,0,1-.34,1.28h8.06a2.62,2.62,0,0,1-.33-1.28,2.67,2.67,0,0,1,1.68-2.48V110.5A2.67,2.67,0,0,1,98.34,108a2.72,2.72,0,0,1,0-.42H47.88l9,16H85.93A2.63,2.63,0,0,1,85.59,122.26Zm9-10.55A2.68,2.68,0,1,1,92,114.39,2.68,2.68,0,0,1,94.64,111.71Z"/><polygon class="cls-3" points="69.6 75.69 58.91 75.69 71.18 86.32 81.86 86.32 69.6 75.69"/><polygon class="cls-3" points="58.63 126.67 59.95 129.02 100.02 129.02 100.02 126.67 58.63 126.67"/><path class="cls-3" d="M84.17,143.09a11.6,11.6,0,0,1,1.5-1.59c.24,0,.65.83.65.83L86,145.26h2.69l.33-3.15c.21-.63.45-.77.45-.77L91,143l-.25,2.22H100V134H65.82a5.19,5.19,0,0,0-5.17,5.18v6.06H83.88Zm6.25-2.36h6.1s.72.2.75.44a13.91,13.91,0,0,1-1.49,1.74H91.47l-1.7-1.85A1.06,1.06,0,0,1,90.42,140.73Zm-12.64.33a1.06,1.06,0,0,1,.66-.33h6.1s.72.2.74.44a13.88,13.88,0,0,1-1.48,1.74H79.48Z"/></g></g></g></svg>