<svg xmlns="http://www.w3.org/2000/svg" viewBox="0 0 171 161"><defs><style>.cls-1{fill:none;stroke:#fff;stroke-miterlimit:10;}.cls-2{fill:#fff;}</style></defs><g id="Layer_2" data-name="Layer 2"><g id="Wireframe_-_delete" data-name="Wireframe - delete"><rect class="cls-1" x="0.5" y="0.5" width="170" height="160"/><path class="cls-2" d="M41.25,66c-.2-3.75-.44-8.26-.4-11.62h-.12c-.92,3.16-2,6.51-3.39,10.22L32.59,77.64H30L25.6,64.82c-1.28-3.79-2.36-7.26-3.12-10.46H22.4c-.08,3.36-.27,7.87-.51,11.9L21.17,77.8H17.85l1.88-26.91h4.43l4.59,13c1.12,3.32,2,6.27,2.72,9.07h.12c.68-2.72,1.64-5.67,2.83-9.07l4.8-13h4.43L45.33,77.8h-3.4Z"/><path class="cls-2" d="M54.15,50.89V77.8H50.68V50.89Z"/><path class="cls-2" d="M59.75,73.57A12.26,12.26,0,0,0,66,75.33c3.56,0,5.64-1.88,5.64-4.6,0-2.51-1.44-4-5.08-5.35-4.39-1.56-7.1-3.83-7.1-7.62,0-4.2,3.47-7.31,8.7-7.31a12.2,12.2,0,0,1,6,1.32l-1,2.83A10.69,10.69,0,0,0,68,53.32c-3.67,0-5.07,2.2-5.07,4,0,2.51,1.64,3.75,5.35,5.19,4.55,1.75,6.87,4,6.87,7.9,0,4.16-3.08,7.75-9.42,7.75a13.86,13.86,0,0,1-6.87-1.72Z"/><path class="cls-2" d="M79.43,73.57a12.32,12.32,0,0,0,6.23,1.76c3.56,0,5.63-1.88,5.63-4.6,0-2.51-1.43-4-5.07-5.35-4.39-1.56-7.11-3.83-7.11-7.62,0-4.2,3.48-7.31,8.71-7.31a12.24,12.24,0,0,1,6,1.32l-1,2.83a10.69,10.69,0,0,0-5.11-1.28c-3.67,0-5.07,2.2-5.07,4,0,2.51,1.64,3.75,5.35,5.19,4.55,1.75,6.87,4,6.87,7.9,0,4.16-3.08,7.75-9.43,7.75a13.92,13.92,0,0,1-6.87-1.72Z"/><path class="cls-2" d="M103.08,50.89V77.8H99.6V50.89Z"/><path class="cls-2" d="M109.15,77.8V50.89h3.79l8.63,13.61a77.62,77.62,0,0,1,4.83,8.75l.08,0c-.32-3.6-.4-6.87-.4-11.06V50.89h3.27V77.8h-3.51l-8.55-13.66a87,87,0,0,1-5-9l-.12,0c.2,3.39.28,6.63.28,11.1V77.8Z"/><path class="cls-2" d="M155.91,76.6a25,25,0,0,1-8.27,1.48c-4.07,0-7.42-1-10.06-3.55a13.84,13.84,0,0,1-3.75-10c0-8,5.55-13.89,14.57-13.89a16.61,16.61,0,0,1,6.71,1.24l-.84,2.83a13.89,13.89,0,0,0-6-1.16c-6.55,0-10.82,4.08-10.82,10.82s4.11,10.87,10.38,10.87a11.35,11.35,0,0,0,4.64-.72v-8h-5.47V63.67h8.86Z"/><path class="cls-2" d="M50.54,98.81v26.91H47.07V98.81Z"/><path class="cls-2" d="M75.42,124.85a17.25,17.25,0,0,1-7.11,1.27c-7.59,0-13.3-4.79-13.3-13.61,0-8.43,5.71-14.14,14.06-14.14a14.43,14.43,0,0,1,6.39,1.2l-.84,2.83a12.79,12.79,0,0,0-5.43-1.11c-6.31,0-10.5,4-10.5,11.1,0,6.59,3.79,10.82,10.34,10.82a13.88,13.88,0,0,0,5.67-1.12Z"/><path class="cls-2" d="M101.94,112c0,9.26-5.64,14.17-12.5,14.17-7.11,0-12.1-5.51-12.1-13.65,0-8.55,5.31-14.14,12.5-14.14C97.18,98.37,101.94,104,101.94,112Zm-20.89.44c0,5.75,3.12,10.9,8.59,10.9s8.62-5.07,8.62-11.18c0-5.35-2.79-10.94-8.58-10.94S81.05,106.52,81.05,112.43Z"/><path class="cls-2" d="M106.45,125.72V98.81h3.79l8.63,13.62a76,76,0,0,1,4.83,8.74l.08,0c-.32-3.59-.4-6.87-.4-11.06V98.81h3.28v26.91h-3.52l-8.54-13.65a83.57,83.57,0,0,1-5-9l-.12,0c.2,3.4.28,6.63.28,11.1v11.5Z"/></g></g></svg>