<svg xmlns="http://www.w3.org/2000/svg" viewBox="0 0 200 200"><defs><style>.cls-1{fill:none;}.cls-2{fill:#1790b0;}.cls-3{fill:#006d95;}</style></defs><g id="Layer_2" data-name="Layer 2"><g id="Backg_Layer_copy" data-name="Backg Layer copy"><rect class="cls-1" width="200" height="200"/></g><g id="_2_tone_blue" data-name="2 tone blue"><g id="bulk_solids" data-name="bulk solids"><path class="cls-2" d="M157.12,119.32l-.13-.11V49.75a13.51,13.51,0,0,0-13.5-13.5h-16c-7.44,0-13.5,4.82-13.5,10.75V58.62H60.58L49.88,47.91,48.16,46H42.88V163.75h7V122l15.58-12.52-3.1-3.85-12.48,10V54.9l8,8.05V86.39c0,9.29,24.53,37.14,32.86,46.33-4.55,5.79-10.55,14.05-10.55,17.38v7.15h40.69V150.1c0-3.31-6-11.58-10.55-17.37,8.32-9.18,32.86-37,32.86-46.34V58.62H121V47c0-1.77,2.78-3.75,6.5-3.75h16a6.51,6.51,0,0,1,6.5,6.5v63.84l-9.87-7.93-3.1,3.85,13,10.42v43.82h7V119.48ZM132.87,86c-.32,1.07-2.57,7.1-16.48,24-5.15,6.26-10.23,12-13.33,15.4h-5C95,122,90,116.27,84.84,110c-14-17-16.23-23-16.56-24.09V69h64.59ZM85.4,101.62a2.68,2.68,0,1,1,2.68,2.68A2.69,2.69,0,0,1,85.4,101.62Zm6.37-7.87a2.68,2.68,0,1,1,2.68,2.68A2.68,2.68,0,0,1,91.77,93.75Zm6.38-6.37a2.68,2.68,0,1,1,2.68,2.68A2.68,2.68,0,0,1,98.15,87.38ZM91.77,109.5a2.68,2.68,0,1,1,2.68,2.67A2.68,2.68,0,0,1,91.77,109.5Zm6.38-7.88a2.68,2.68,0,1,1,2.68,2.68A2.68,2.68,0,0,1,98.15,101.62Zm6.37-7.87a2.68,2.68,0,1,1,2.68,2.68A2.68,2.68,0,0,1,104.52,93.75Zm-6.37,22.12a2.68,2.68,0,1,1,2.67,2.68A2.68,2.68,0,0,1,98.15,115.87Zm6.37-6.37a2.68,2.68,0,1,1,2.68,2.67A2.68,2.68,0,0,1,104.52,109.5Zm6.37-7.88a2.68,2.68,0,1,1,2.68,2.68A2.68,2.68,0,0,1,110.89,101.62Zm0-14.24a2.68,2.68,0,1,1,2.68,2.68A2.68,2.68,0,0,1,110.89,87.38ZM79,93.75a2.68,2.68,0,1,1,2.68,2.68A2.68,2.68,0,0,1,79,93.75Zm6.37-6.37a2.68,2.68,0,1,1,2.68,2.68A2.68,2.68,0,0,1,85.4,87.38ZM91.77,81a2.68,2.68,0,1,1,2.68,2.68A2.67,2.67,0,0,1,91.77,81Zm25.5,12.75a2.68,2.68,0,1,1,2.67,2.68A2.67,2.67,0,0,1,117.27,93.75Z"/><path class="cls-3" d="M81.94,145.43a11.51,11.51,0,0,0-1.71,4.67v7.15H97.54V145.43Z"/><path class="cls-3" d="M94.45,83.68A2.68,2.68,0,1,0,91.77,81,2.68,2.68,0,0,0,94.45,83.68Z"/><path class="cls-3" d="M83.08,143.47H97.54v-18.6H83.83c2.77,3.2,5.22,5.93,7,7.85A123.9,123.9,0,0,0,83.08,143.47Z"/><path class="cls-3" d="M57.92,69.06H68.28V69H97.54V61.09H56.07L57.92,63Z"/><path class="cls-3" d="M81.42,105.8H68.36c4,5.42,8.61,11,12.78,16H94.87c-2.87-3.24-6.42-7.33-10-11.72C83.61,108.53,82.48,107.13,81.42,105.8Z"/><rect class="cls-3" x="42.88" y="73.9" width="7" height="10.63"/><rect class="cls-3" x="42.88" y="88.8" width="7" height="13.29"/><polygon class="cls-3" points="65.46 109.51 62.48 105.8 62.18 105.8 49.88 115.69 49.88 105.8 42.88 105.8 42.88 121.75 50.22 121.75 65.46 109.51"/><path class="cls-3" d="M94.45,106.82a2.68,2.68,0,1,0,2.68,2.68A2.68,2.68,0,0,0,94.45,106.82Z"/><polygon class="cls-3" points="49.88 54.9 50.76 55.78 57.75 55.78 52.43 50.47 42.88 50.47 42.88 55.78 49.88 55.78 49.88 54.9"/><rect class="cls-3" x="42.88" y="61.09" width="7" height="7.97"/><path class="cls-3" d="M88.08,90.06a2.68,2.68,0,0,0,2.26-1.26H85.82A2.66,2.66,0,0,0,88.08,90.06Z"/><rect class="cls-3" x="42.88" y="145.43" width="7" height="18.32"/><path class="cls-3" d="M57.92,84.53H68.28V73.9H57.92Z"/><path class="cls-3" d="M94.45,96.43a2.68,2.68,0,1,0-2.68-2.68A2.68,2.68,0,0,0,94.45,96.43Z"/><path class="cls-3" d="M88.08,98.94a2.69,2.69,0,0,0-2.68,2.68,2.34,2.34,0,0,0,0,.47h5.26a2.34,2.34,0,0,0,.05-.47A2.68,2.68,0,0,0,88.08,98.94Z"/><path class="cls-3" d="M81.71,96.43A2.68,2.68,0,1,0,79,93.75,2.67,2.67,0,0,0,81.71,96.43Z"/><path class="cls-3" d="M65.7,102.09H78.54a101.42,101.42,0,0,1-9-13.29H58.34C59.34,92.22,62.11,97,65.7,102.09Z"/><rect class="cls-3" x="42.88" y="124.87" width="7" height="18.6"/></g></g></g></svg>