<?xml version="1.0" encoding="UTF-8"?>
<svg id="Layer_2" data-name="Layer 2" xmlns="http://www.w3.org/2000/svg" viewBox="0 0 150 150">
  <defs>
    <style>
      .cls-1, .cls-2, .cls-3, .cls-4, .cls-5, .cls-6, .cls-7, .cls-8 {
        fill: none;
      }

      .cls-1, .cls-2, .cls-3, .cls-4, .cls-6, .cls-7, .cls-8 {
        stroke: #006c97;
        stroke-linecap: round;
        stroke-width: 2.65px;
      }

      .cls-2 {
        stroke-dasharray: 0 0 2.94 3.42;
      }

      .cls-3 {
        stroke-dasharray: 0 0 2.71 3.16;
      }

      .cls-9 {
        fill: #006c97;
      }

      .cls-4 {
        stroke-dasharray: 0 0 5.25 6.12;
      }

      .cls-6 {
        stroke-dasharray: 0 0 3.63 4.24;
      }

      .cls-7 {
        stroke-dasharray: 0 0 5.6 6.53;
      }

      .cls-8 {
        stroke-dasharray: 0 0 3.28 3.83;
      }
    </style>
  </defs>
  <g id="Layer_1-2" data-name="Layer 1">
    <g id="Layer_2-2" data-name="Layer 2">
      <g id="Layer_1-2" data-name="Layer 1-2">
        <path class="cls-1" d="m81.18,89.12c-.12.88-.21,1.76-.26,2.65h-2.65"/>
        <line class="cls-2" x1="74.84" y1="91.74" x2="70.19" y2="91.74"/>
        <path class="cls-1" d="m68.48,91.76h-2.65c0-.88.05-1.76.09-2.65"/>
        <path class="cls-7" d="m66.58,82.6c.04-.26.1-.52.15-.77.53-2.47,1.5-4.83,2.86-6.96,1.78-2.72,3.81-5.27,6.06-7.61,2.24-2.41,4.27-5.01,6.06-7.76,1.38-2.19,2.11-4.73,2.11-7.32.13-3.2-1.48-6.23-4.22-7.9-2.93-1.85-6.35-2.79-9.81-2.72-4.75.1-9.44.99-13.89,2.65"/>
        <path class="cls-1" d="m52.85,45.37c-.79.33-1.61.67-2.43,1.04l-.26-2.65"/>
        <line class="cls-3" x1="49.85" y1="40.63" x2="49.43" y2="36.36"/>
        <path class="cls-1" d="m49.28,34.79l-.26-2.65c.85-.25,1.69-.52,2.51-.81"/>
        <path class="cls-4" d="m57.44,29.74c5.39-1.27,10.91-1.91,16.45-1.92,3.51-.01,7.01.4,10.42,1.24,3.22.79,6.28,2.13,9.04,3.96,2.68,1.78,4.88,4.18,6.42,7.01,1.64,3.11,2.45,6.58,2.36,10.09.08,3.58-.79,7.12-2.52,10.26-2.23,3.7-4.81,7.19-7.7,10.39-2.92,3.26-5.58,6.74-7.94,10.42-.94,1.54-1.66,3.19-2.15,4.92"/>
        <polyline class="cls-1" points="79.36 100.38 82.01 100.38 82.01 103.02"/>
        <line class="cls-8" x1="82.01" y1="106.85" x2="82.01" y2="112.05"/>
        <polyline class="cls-1" points="82.01 113.96 82.01 116.61 79.36 116.61"/>
        <line class="cls-6" x1="75.12" y1="116.61" x2="69.38" y2="116.61"/>
        <polyline class="cls-1" points="67.26 116.61 64.61 116.61 64.61 113.96"/>
        <line class="cls-8" x1="64.61" y1="110.14" x2="64.61" y2="104.94"/>
        <polyline class="cls-1" points="64.61 103.02 64.61 100.38 67.26 100.38"/>
        <line class="cls-6" x1="71.5" y1="100.38" x2="77.24" y2="100.38"/>
        <path class="cls-9" d="m125.79,10.59h-5.29c-.73,0-1.32.59-1.32,1.32s.59,1.32,1.32,1.32h5.29c.46,0,.89-.24,1.13-.64.18.43.57.73,1.03.79,1.49.21,2.93.65,4.29,1.3.18.09.37.13.56.13.73,0,1.33-.58,1.34-1.31,0-.52-.29-1-.77-1.22l-.88-.39h-1.02c-1.02-.35-2.06-.6-3.12-.75h-.19c-.46,0-.89.25-1.13.64-.05-.66-.58-1.18-1.24-1.22Zm-11.47,0h-5.29c-.73,0-1.32.59-1.32,1.32s.59,1.32,1.32,1.32h5.29c.73,0,1.32-.59,1.32-1.32s-.59-1.32-1.32-1.32Zm-11.47,0h-5.29c-.73,0-1.32.59-1.32,1.32s.59,1.32,1.32,1.32h5.29c.73,0,1.32-.59,1.32-1.32s-.59-1.32-1.32-1.32Zm-11.47,0h-5.29c-.73,0-1.32.59-1.32,1.32s.59,1.32,1.32,1.32h5.29c.73,0,1.32-.59,1.32-1.32s-.59-1.32-1.32-1.32Zm-11.47,0h-5.29c-.73,0-1.32.59-1.32,1.32s.59,1.32,1.32,1.32h5.29c.73,0,1.32-.59,1.32-1.32s-.59-1.32-1.32-1.32Zm-11.47,0h-5.29c-.73,0-1.32.59-1.32,1.32s.59,1.32,1.32,1.32h5.29c.73,0,1.32-.59,1.32-1.32s-.59-1.32-1.32-1.32Zm-11.47,0h-5.29c-.73,0-1.32.59-1.32,1.32s.59,1.32,1.32,1.32h5.29c.73,0,1.32-.59,1.32-1.32s-.59-1.32-1.32-1.32Zm-11.47,0h-5.29c-.73,0-1.32.59-1.32,1.32s.59,1.32,1.32,1.32h5.29c.73,0,1.32-.59,1.32-1.32s-.59-1.32-1.32-1.32Zm-11.47,0h-5.29c-.73,0-1.32.59-1.32,1.32s.59,1.32,1.32,1.32h5.29c.73,0,1.32-.59,1.32-1.32s-.59-1.32-1.32-1.32Zm-11.35.08h-.12c-1.76.16-3.49.59-5.12,1.27-.68.27-1,1.05-.73,1.72.2.5.7.83,1.24.83.17,0,.34-.04.5-.11,1.39-.57,2.85-.94,4.35-1.08.73-.03,1.3-.65,1.26-1.39s-.65-1.3-1.39-1.26h0Zm-9.52,4.24c-.33,0-.64.13-.88.35l-.09.08h-.12c-.96.93-1.81,1.98-2.53,3.11h-.11l-.22.37c-.39.62-.21,1.44.41,1.83s1.44.21,1.83-.41c.02-.03.03-.05.05-.08.76-1.31,1.71-2.5,2.81-3.53.54-.5.56-1.35.06-1.88-.24-.26-.58-.41-.94-.42l-.26.59Zm-5.01,9.14c-.64,0-1.19.46-1.31,1.09,0,.21-.07.41-.1.63h0v.04h0v.04h0v.06h0v.56h0v.06h0v.06h0v.05h0v.07h0v.07h0v.06h0v.04h0v.04h0v2.18c0,.73.59,1.32,1.32,1.32s1.32-.59,1.32-1.32v-.88c0-.89.08-1.77.23-2.65.13-.72-.35-1.41-1.07-1.54h-.41Zm-.26,11.25c-.73,0-1.32.59-1.32,1.32v5.29c0,.73.59,1.32,1.32,1.32s1.32-.59,1.32-1.32v-5.29c0-.73-.59-1.32-1.32-1.32Zm0,11.47c-.73,0-1.32.59-1.32,1.32v5.29c0,.73.59,1.32,1.32,1.32s1.32-.59,1.32-1.32v-5.29c0-.73-.59-1.32-1.32-1.32Zm0,11.47c-.73,0-1.32.59-1.32,1.32v5.29c0,.73.59,1.32,1.32,1.32s1.32-.59,1.32-1.32v-5.29c0-.73-.59-1.32-1.32-1.32Zm0,11.47c-.73,0-1.32.59-1.32,1.32v5.29c0,.73.59,1.32,1.32,1.32s1.32-.59,1.32-1.32v-5.29c0-.73-.59-1.32-1.32-1.32Zm0,11.47c-.73,0-1.32.59-1.32,1.32v5.29c0,.73.59,1.32,1.32,1.32s1.32-.59,1.32-1.32v-5.29c0-.73-.59-1.32-1.32-1.32Zm0,11.47c-.73,0-1.32.59-1.32,1.32v5.29c0,.73.59,1.32,1.32,1.32s1.32-.59,1.32-1.32v-5.29c0-.73-.59-1.32-1.32-1.32Zm0,11.47c-.73,0-1.32.59-1.32,1.32v5.29c0,.73.59,1.32,1.32,1.32s1.32-.59,1.32-1.32v-5.29c0-.73-.59-1.32-1.32-1.32Zm0,11.47c-.73,0-1.32.59-1.32,1.32v4.85h0v.12c-.15.72.31,1.42,1.03,1.56.11.02.23.03.35.02h0c.73,0,1.31-.61,1.3-1.33,0,0,0-.01,0-.02v-5.23c0-.73-.59-1.32-1.32-1.32l-.03.02Zm1.12,10.84c-.16,0-.32.03-.48.09-.68.27-1.01,1.03-.75,1.71.65,1.65,1.54,3.2,2.65,4.58.27.29.65.45,1.04.43.3,0,.59-.1.83-.29.57-.46.66-1.29.2-1.86,0,0,0,0,0,0-.94-1.18-1.69-2.48-2.24-3.88-.2-.51-.69-.84-1.24-.84l-.02.06Zm6.71,7.99c-.46,0-.89.24-1.13.64-.38.62-.18,1.43.43,1.82.97.59,2,1.09,3.07,1.48h1.76c.1.03.21.04.32.04.73.09,1.4-.43,1.49-1.16.09-.73-.43-1.4-1.16-1.49h0c-1.46-.37-2.85-.97-4.13-1.76-.21-.13-.45-.19-.69-.19l.04.63Zm15.6,2.36h-5.29c-.73,0-1.32.59-1.32,1.32s.59,1.32,1.32,1.32h5.29c.73,0,1.32-.59,1.32-1.32s-.59-1.32-1.32-1.32Zm11.47,0h-5.29c-.73,0-1.32.59-1.32,1.32s.59,1.32,1.32,1.32h5.29c.73,0,1.32-.59,1.32-1.32s-.59-1.32-1.32-1.32Zm11.47,0h-5.29c-.73,0-1.32.59-1.32,1.32s.59,1.32,1.32,1.32h5.29c.73,0,1.32-.59,1.32-1.32s-.59-1.32-1.32-1.32Zm11.47,0h-5.29c-.73,0-1.32.59-1.32,1.32s.59,1.32,1.32,1.32h5.29c.73,0,1.32-.59,1.32-1.32s-.59-1.32-1.32-1.32Zm11.47,0h-5.29c-.73,0-1.32.59-1.32,1.32s.59,1.32,1.32,1.32h5.29c.73,0,1.32-.59,1.32-1.32s-.59-1.32-1.32-1.32Zm11.47,0h-5.29c-.73,0-1.32.59-1.32,1.32s.59,1.32,1.32,1.32h5.29c.73,0,1.32-.59,1.32-1.32s-.59-1.32-1.32-1.32Zm11.47,0h-5.29c-.73,0-1.32.59-1.32,1.32s.59,1.32,1.32,1.32h5.29c.73,0,1.32-.59,1.32-1.32s-.59-1.32-1.32-1.32Zm11.47,0h-5.29c-.73,0-1.32.59-1.32,1.32s.59,1.32,1.32,1.32h5.29c.73,0,1.32-.59,1.32-1.32s-.59-1.32-1.32-1.32Zm11.47,0h-5.29c-.73,0-1.32.59-1.32,1.32s.59,1.32,1.32,1.32h5.29c.73,0,1.32-.59,1.32-1.32s-.59-1.32-1.32-1.32Zm10.48-1.98c-.22,0-.44.05-.64.16-1.32.72-2.74,1.24-4.21,1.53-.73.07-1.27.72-1.2,1.45.07.73.72,1.27,1.45,1.2h.26c.25-.04.49-.1.73-.16h.23c1.39-.36,2.74-.88,4-1.57.64-.35.88-1.15.54-1.79-.23-.43-.68-.69-1.16-.69v-.11Zm7.1-7.63c-.52,0-1,.3-1.21.78-.62,1.37-1.44,2.63-2.44,3.76-.48.56-.42,1.4.13,1.88.24.21.54.32.86.33.38,0,.74-.16.99-.45.29-.33.57-.67.88-1.01h.12l.05-.08h0c.33-.46.62-.88.88-1.41h0v-.05h.23c.07-.16.15-.32.22-.49.3-.66.01-1.44-.65-1.74-.17-.08-.36-.12-.55-.12l.48-1.39Zm1.44-10.69c-.73,0-1.32.59-1.32,1.32v3.97c0,.36,0,.74-.04,1.11-.05.73.5,1.36,1.23,1.41h.09c.69,0,1.26-.53,1.31-1.22v-.3h0v-.04h0v-4c0-.73-.59-1.32-1.32-1.32l.06-.94Zm0-11.47c-.73,0-1.32.59-1.32,1.32v5.29c0,.73.59,1.32,1.32,1.32s1.32-.59,1.32-1.32v-5.29c0-.73-.59-1.32-1.32-1.32Zm0-11.47c-.73,0-1.32.59-1.32,1.32v5.29c0,.73.59,1.32,1.32,1.32s1.32-.59,1.32-1.32v-5.29c0-.73-.59-1.32-1.32-1.32Zm0-11.47c-.73,0-1.32.59-1.32,1.32v5.29c0,.73.59,1.32,1.32,1.32s1.32-.59,1.32-1.32v-5.29c0-.73-.59-1.32-1.32-1.32Zm0-11.47c-.73,0-1.32.59-1.32,1.32v5.29c0,.73.59,1.32,1.32,1.32s1.32-.59,1.32-1.32v-5.29c0-.73-.59-1.32-1.32-1.32Zm0-11.47c-.73,0-1.32.59-1.32,1.32h0v5.29c0,.73.59,1.32,1.32,1.32s1.32-.59,1.32-1.32v-5.29c0-.73-.59-1.32-1.32-1.32h0Zm0-11.47c-.73,0-1.32.59-1.32,1.32v5.29c0,.73.59,1.32,1.32,1.32s1.32-.59,1.32-1.32v-5.29c0-.73-.59-1.32-1.32-1.32Zm0-11.47c-.73,0-1.32.59-1.32,1.32v5.29c0,.73.59,1.32,1.32,1.32s1.32-.59,1.32-1.32v-5.29c0-.73-.59-1.32-1.32-1.32Zm-.13-11.29h-.17c-.73.09-1.24.75-1.15,1.48,0,0,0,0,0,0,.08.63.12,1.26.12,1.89v3.06c0,.73.59,1.32,1.32,1.32s1.32-.59,1.32-1.32v-3.08h0v-.05h0c0-.41-.06-.83-.11-1.24-.08-.66-.65-1.16-1.31-1.16l-.03-.91Zm-4.54-9.38c-.33,0-.65.15-.88.38-.52.51-.52,1.34-.01,1.86,0,0,0,0,.01.01,1.06,1.07,1.95,2.3,2.65,3.64.23.4.64.65,1.09.67.21,0,.42-.05.61-.15.64-.33.89-1.12.56-1.76-.63-1.23-1.41-2.38-2.32-3.43h-.19l-.41-.42c-.25-.25-.58-.4-.94-.4l-.19-.39Z"/>
        <rect class="cls-5" y="4.41" width="150" height="141.18"/>
      </g>
    </g>
    <rect class="cls-5" width="150" height="150"/>
  </g>
</svg>