<svg xmlns="http://www.w3.org/2000/svg" viewBox="0 0 200 200"><defs><style>.cls-1{fill:none;}.cls-2{fill:#fff;}.cls-3{fill:#d9d9db;}</style></defs><g id="Layer_2" data-name="Layer 2"><g id="Backg_Layer_copy" data-name="Backg Layer copy"><rect class="cls-1" width="200" height="200"/></g><g id="Whiteout"><g id="high_temp" data-name="high temp"><path class="cls-2" d="M107.06,127.79V46.26c0-.22.07-.51.06-.7-.44-.23-2-.79-7-.79s-6.62.56-7.06.79c0,.19,0,.48,0,.7v81.53a8.52,8.52,0,0,1-1.89,5.27,11.4,11.4,0,0,0-2.59,7.21,11.5,11.5,0,1,0,23,0,11.39,11.39,0,0,0-2.58-7.21A8.5,8.5,0,0,1,107.06,127.79Zm-7,21a8.51,8.51,0,0,1-8.5-8.5,8.38,8.38,0,0,1,1.9-5.33,11.51,11.51,0,0,0,2.55-7.15V54.59h8v73.2a11.46,11.46,0,0,0,2.6,7.15,8.44,8.44,0,0,1-6.55,13.83Z"/><path class="cls-2" d="M100,33.37A66.63,66.63,0,1,0,166.63,100,66.63,66.63,0,0,0,100,33.37Zm15.06,15.22h20v2h-20Zm0,7h7v2h-7Zm0,8h7v2h-7Zm0,8h7v2h-7Zm0,15h7v2h-7Zm0,7h7v2h-7Zm0,8h7v2h-7Zm-15,56.18a17.51,17.51,0,0,1-17.5-17.5,17.28,17.28,0,0,1,3.89-11,2.47,2.47,0,0,0,.56-1.51V46.26c0-6.3,4.5-7.49,13-7.49s13,1.19,13,7.49v81.53a2.51,2.51,0,0,0,.6,1.51,17.34,17.34,0,0,1,4,11A17.52,17.52,0,0,1,100.11,157.77Zm27-47.18h-12v-2h12Zm0-30h-12v-2h12Zm11-15v14h-6v-14h-5.53L135,52.69l8.48,12.9Z"/><path class="cls-3" d="M88.9,34.31a66.12,66.12,0,0,0-12.58,3.41H88.9Z"/><path class="cls-3" d="M66,42.69q-2.72,1.62-5.26,3.47h26.3a8,8,0,0,1,.72-3.47Z"/><path class="cls-3" d="M54.54,51.32a65.55,65.55,0,0,0-5.1,5.31H87.06V51.32Z"/><path class="cls-3" d="M45.33,61.94a65.85,65.85,0,0,0-4.77,8h46.5v-8Z"/><path class="cls-3" d="M38.34,74.75A66,66,0,0,0,35,85.38H87.06V74.75Z"/><path class="cls-3" d="M34.18,89.65A66.62,66.62,0,0,0,33.37,100c0,1,0,2,.08,3H87.06V89.65Z"/><path class="cls-3" d="M33.71,106.65a66.42,66.42,0,0,0,3.6,15.95H87.06V106.65Z"/><path class="cls-3" d="M86.5,129.3a2.47,2.47,0,0,0,.56-1.51v-2.07H38.53a66.5,66.5,0,0,0,11.74,18.6H83.1a17.47,17.47,0,0,1-.49-4A17.28,17.28,0,0,1,86.5,129.3Z"/><path class="cls-3" d="M83.69,146.28H52.1a66.46,66.46,0,0,0,36.8,19.41v-12A17.67,17.67,0,0,1,83.69,146.28Z"/></g></g></g></svg>