<svg xmlns="http://www.w3.org/2000/svg" viewBox="0 0 200 200"><defs><style>.cls-1{fill:none;}.cls-2{fill:#1790b0;}.cls-3{fill:#006d95;}</style></defs><g id="Layer_2" data-name="Layer 2"><g id="Backg_Layer_copy" data-name="Backg Layer copy"><rect class="cls-1" width="200" height="200"/></g><g id="_2_tone_blue" data-name="2 tone blue"><g id="steam_conditioning" data-name="steam conditioning"><path class="cls-2" d="M149.14,68.28v-.4a26.59,26.59,0,0,0-26.56-26.56,27.56,27.56,0,0,0-4,.29A31.7,31.7,0,0,0,66.38,60c-.45,0-.89,0-1.33,0A34.41,34.41,0,0,0,30.67,94.3c0,18.77,19.2,36,35.46,36.28,11.51.16,17.49-6.32,16.51-19.34-1.16-15.5-9.84-24.87-10.83-34.16-2-18.84,1.85-31.51,18.83-36.84,11.17-3.5,19.82.51,26.15,6.84l5.79,0c10.49,0,19.37,8.35,20.76,18.46-.77-.06-1.58-.17-2.25-.17-5.93,0-12.58,5-12.58,5l3.54,0,3,.06c14.65.29,28.44,14.87,28.44,26a25.07,25.07,0,0,1-25,25v5.79a30.86,30.86,0,0,0,30.83-30.83C169.33,86.22,160.88,74.15,149.14,68.28ZM75.06,115.14l1.5,5.38a2.87,2.87,0,0,1-2,3.54,3,3,0,0,1-.78.11A2.87,2.87,0,0,1,71,122.06l-1.51-5.38a2.88,2.88,0,1,1,5.54-1.54ZM72.5,106a2.88,2.88,0,0,1-2,3.55,3,3,0,0,1-.77.1,2.88,2.88,0,0,1-2.77-2.1l-2.08-7.44a2.88,2.88,0,0,1,5.54-1.55Z"/><path class="cls-2" d="M81.41,151.39a2.87,2.87,0,0,1-2.77-2.1l-4-14.46a2.87,2.87,0,1,1,5.53-1.54l4.05,14.45a2.88,2.88,0,0,1-2,3.54A2.61,2.61,0,0,1,81.41,151.39Z"/><path class="cls-3" d="M71.81,77.08c0-.48-.1-.94-.14-1.41H36.18A34.07,34.07,0,0,0,30.84,91H76.76C74.46,85.89,72.27,81.47,71.81,77.08Z"/><path class="cls-3" d="M72.23,59.38H66.49c0,.19-.08.38-.11.57-.45,0-.89,0-1.33,0A34.3,34.3,0,0,0,38.82,72.12h32.6A48.78,48.78,0,0,1,72.23,59.38Z"/><path class="cls-3" d="M80.89,45.11H73.28a31.68,31.68,0,0,0-5.71,10.18h5.84A22.37,22.37,0,0,1,80.89,45.11Z"/><path class="cls-3" d="M75.06,115.14l1.5,5.38a2.87,2.87,0,0,1-2,3.54,3,3,0,0,1-.78.11A2.87,2.87,0,0,1,71,122.06l-1.51-5.38a2.87,2.87,0,0,1,1-3H37.39c7,9.83,18.47,16.78,28.74,16.93,10.78.15,16.71-5.52,16.61-16.93H74.05A2.81,2.81,0,0,1,75.06,115.14Z"/><path class="cls-3" d="M78.07,40.46H90l.64-.22a30.6,30.6,0,0,1,4.23-1V33.77A31.59,31.59,0,0,0,78.07,40.46Z"/><path class="cls-3" d="M82.64,111.24A53.13,53.13,0,0,0,78.08,94H30.68c0,.11,0,.23,0,.35a32.85,32.85,0,0,0,5.45,17.47H82.66C82.65,111.59,82.66,111.42,82.64,111.24ZM70.5,109.51a3,3,0,0,1-.77.1,2.88,2.88,0,0,1-2.77-2.1l-2.08-7.44a2.88,2.88,0,0,1,5.54-1.55L72.5,106A2.88,2.88,0,0,1,70.5,109.51Z"/><path class="cls-2" d="M100.22,97.68a2.88,2.88,0,0,1-2.87-2.88V87.08a2.88,2.88,0,1,1,5.75,0V94.8A2.88,2.88,0,0,1,100.22,97.68Z"/><path class="cls-2" d="M100.22,166.35a2.88,2.88,0,0,1-2.87-2.87v-31a2.88,2.88,0,0,1,5.75,0v31A2.88,2.88,0,0,1,100.22,166.35Z"/><path class="cls-2" d="M100.22,122.05a2.87,2.87,0,0,1-2.87-2.87V105.6a2.88,2.88,0,0,1,5.75,0v13.58A2.87,2.87,0,0,1,100.22,122.05Z"/><path class="cls-2" d="M100.22,78.45a2.87,2.87,0,0,1-2.87-2.87v-2.4a2.88,2.88,0,0,1,5.75,0v2.4A2.87,2.87,0,0,1,100.22,78.45Z"/><path class="cls-2" d="M130.25,99.76a2.8,2.8,0,0,1-.7-.09,2.88,2.88,0,0,1-2.09-3.49l1.89-7.49a2.87,2.87,0,1,1,5.57,1.4L133,97.59A2.88,2.88,0,0,1,130.25,99.76Z"/><path class="cls-2" d="M113.47,166.35a2.89,2.89,0,0,1-2.79-3.58l7.59-30.1a2.87,2.87,0,1,1,5.57,1.41l-7.58,30.1A2.88,2.88,0,0,1,113.47,166.35Z"/><path class="cls-2" d="M124.29,123.4a2.88,2.88,0,0,1-2.78-3.58l3.31-13.16a2.88,2.88,0,1,1,5.58,1.4l-3.32,13.16A2.88,2.88,0,0,1,124.29,123.4Z"/></g></g></g></svg>