<svg xmlns="http://www.w3.org/2000/svg" xmlns:xlink="http://www.w3.org/1999/xlink" viewBox="0 0 200 200"><defs><style>.cls-1{fill:none;}.cls-2{fill:#fff;}.cls-3{clip-path:url(#clip-path);}.cls-4{fill:#d9d9db;}</style><clipPath id="clip-path"><path class="cls-1" d="M138.7,165H66L29.57,100,66,35H138.7l36.38,65ZM72,154.26h60.71L163,100,132.68,45.73H72L41.6,100Zm61.85-50.89a8.8,8.8,0,0,1,2-.08V94.75c-8.19.45-12.84,5.58-15.41,11.7-2.56-6.12-7.22-11.25-15.41-11.7v8.54a8.76,8.76,0,0,1,2,.08c3.72.77,4.83,4.5,6.32,7.68.85,1.82,1.76,3.59,2.4,5.22-.8,1.65-1.68,3.47-2.6,5.35s-1.54,3.9-2.66,5.29a7.65,7.65,0,0,1-5.5,2.15v8.55a14.43,14.43,0,0,0,13.62-7.89c.64-1.25,1.07-2.61,1.79-3.84.72,1.23,1.16,2.59,1.8,3.84a14.41,14.41,0,0,0,13.61,7.89v-8.55a7.65,7.65,0,0,1-5.5-2.15c-1.11-1.39-1.78-3.49-2.66-5.29s-1.8-3.7-2.59-5.35c.64-1.63,1.54-3.4,2.39-5.22C129,107.87,130.11,104.14,133.82,103.37ZM93.19,124.94c-.15.1-.67.65-.76.73a11.67,11.67,0,0,1-7,3,12.66,12.66,0,0,1-5.72-24.23c3-1.36,7.12-1,12-1,0-2.83.09-5.85-.06-8.57-2.51,0-4.71.08-7.19.06a13,13,0,0,1-3.65-.54,12.18,12.18,0,0,1-8.58-11A12.34,12.34,0,0,1,79.13,70.9a12.19,12.19,0,0,1,8.05-1,12.33,12.33,0,0,1,3.45,1.38,32.93,32.93,0,0,1,2.73,2.05c1.8-2.12,3.8-4,5.59-6.17a21.27,21.27,0,0,0-6.59-4.53,20.43,20.43,0,0,0-8.64-1.58A20.72,20.72,0,0,0,65.43,74.27a21.92,21.92,0,0,0-.87,13.38A22.64,22.64,0,0,0,72,99.25a20.69,20.69,0,0,0-7.91,14.27A21.84,21.84,0,0,0,69,130a20.15,20.15,0,0,0,28.6,2.47,8.59,8.59,0,0,0,1.35-1.23Z"/></clipPath></defs><g id="Layer_2" data-name="Layer 2"><g id="Backg_Layer_copy" data-name="Backg Layer copy"><rect class="cls-1" width="200" height="200"/></g><g id="Whiteout"><g id="explosive_atmosphere" data-name="explosive atmosphere"><path class="cls-2" d="M138.7,165H66L29.57,100,66,35H138.7l36.38,65ZM72,154.26h60.71L163,100,132.68,45.73H72L41.6,100Zm61.85-50.89a8.8,8.8,0,0,1,2-.08V94.75c-8.19.45-12.84,5.58-15.41,11.7-2.56-6.12-7.22-11.25-15.41-11.7v8.54a8.76,8.76,0,0,1,2,.08c3.72.77,4.83,4.5,6.32,7.68.85,1.82,1.76,3.59,2.4,5.22-.8,1.65-1.68,3.47-2.6,5.35s-1.54,3.9-2.66,5.29a7.65,7.65,0,0,1-5.5,2.15v8.55a14.43,14.43,0,0,0,13.62-7.89c.64-1.25,1.07-2.61,1.79-3.84.72,1.23,1.16,2.59,1.8,3.84a14.41,14.41,0,0,0,13.61,7.89v-8.55a7.65,7.65,0,0,1-5.5-2.15c-1.11-1.39-1.78-3.49-2.66-5.29s-1.8-3.7-2.59-5.35c.64-1.63,1.54-3.4,2.39-5.22C129,107.87,130.11,104.14,133.82,103.37ZM93.19,124.94c-.15.1-.67.65-.76.73a11.67,11.67,0,0,1-7,3,12.66,12.66,0,0,1-5.72-24.23c3-1.36,7.12-1,12-1,0-2.83.09-5.85-.06-8.57-2.51,0-4.71.08-7.19.06a13,13,0,0,1-3.65-.54,12.18,12.18,0,0,1-8.58-11A12.34,12.34,0,0,1,79.13,70.9a12.19,12.19,0,0,1,8.05-1,12.33,12.33,0,0,1,3.45,1.38,32.93,32.93,0,0,1,2.73,2.05c1.8-2.12,3.8-4,5.59-6.17a21.27,21.27,0,0,0-6.59-4.53,20.43,20.43,0,0,0-8.64-1.58A20.72,20.72,0,0,0,65.43,74.27a21.92,21.92,0,0,0-.87,13.38A22.64,22.64,0,0,0,72,99.25a20.69,20.69,0,0,0-7.91,14.27A21.84,21.84,0,0,0,69,130a20.15,20.15,0,0,0,28.6,2.47,8.59,8.59,0,0,0,1.35-1.23Z"/><g class="cls-3"><path class="cls-4" d="M29.57,42h73.88V45.5H29.57Zm0-8.45v3.48h73.88V33.58Zm0,17.07V56h73.88V50.65Zm0,10.63v8h73.88v-8Zm0,12.81V84.72h73.88V74.09Zm0,14.9v13.29h73.88V89Zm0,17v16h73.88V106Zm0,19.07v18.6h73.88v-18.6Zm0,20.56v21.26h73.88V145.62Z"/></g></g></g></g></svg>