<svg xmlns="http://www.w3.org/2000/svg" viewBox="0 0 200 200"><defs><style>.cls-1{fill:none;}.cls-2{fill:#1790b0;}.cls-3{fill:#006d95;}</style></defs><g id="Layer_2" data-name="Layer 2"><g id="Backg_Layer_copy" data-name="Backg Layer copy"><rect class="cls-1" width="200" height="200"/></g><g id="_2_tone_blue" data-name="2 tone blue"><g id="vacuum_pan" data-name="vacuum pan"><path class="cls-2" d="M135.72,111.6h-6.37v-.06a8.51,8.51,0,1,1,.83-10.61h5.54a1.46,1.46,0,0,0,.74-.19V96.91a20.76,20.76,0,0,1-8.79-35.68H116.51v7.2H84.42v-7.2H61.79v35.5H72.12v17.5H61.79V164.4h74.67V111.56C136.21,111.58,136,111.6,135.72,111.6ZM87.88,140.48a4,4,0,1,1,4-4A4,4,0,0,1,87.88,140.48Zm0-15.5a4,4,0,1,1,4-4A4,4,0,0,1,87.88,125Zm0-15.5a4,4,0,1,1,4-4A4,4,0,0,1,87.88,109.48Z"/><path class="cls-2" d="M105.46,50.23v-.46c0-7.81-6.73-14.17-15-14.17H56.13a15,15,0,0,0-15,15V95.23a15,15,0,0,0,15,15H68.38v-10H56.13a5,5,0,0,1-5-5V50.6a5,5,0,0,1,5-5H90.46c2.71,0,5,1.91,5,4.17v.46h-7V65h24V50.23Z"/><path class="cls-2" d="M158.87,76.75A17.38,17.38,0,1,0,139.72,94V99.9a4.17,4.17,0,0,1-4.3,4h-6.66v4.73h6.66a8.9,8.9,0,0,0,9-8.73V93.85A17.37,17.37,0,0,0,158.87,76.75Zm-5.47,1.18a12,12,0,0,1-23.81,0h2.6V75.56h-2.6a11.94,11.94,0,0,1,2.65-6.4L134.08,71l1.67-1.68-1.84-1.84a11.91,11.91,0,0,1,6.4-2.65v2.6h2.37v-2.6a11.88,11.88,0,0,1,6.39,2.65l-1.84,1.84L148.91,71l1.84-1.85a11.94,11.94,0,0,1,2.65,6.4h-2.6v2.37Z"/><path class="cls-2" d="M141.49,74.13a2.6,2.6,0,0,0-.84.15s-2.86-2.84-3.09-3.11a10.31,10.31,0,0,0-1.62.08,10.19,10.19,0,0,0-.08,1.61C136.14,73.1,139,76,139,76a2.69,2.69,0,0,0-.12.76,2.62,2.62,0,1,0,2.61-2.62Z"/><path class="cls-2" d="M127.46,105.73a4.33,4.33,0,1,1-4.33-4.33A4.33,4.33,0,0,1,127.46,105.73Z"/><polygon class="cls-3" points="88.46 68.43 84.42 68.43 84.42 61.23 61.8 61.23 61.8 68.81 88.46 68.81 88.46 68.43"/><rect class="cls-3" x="61.79" y="73.66" width="26.67" height="10.63"/><path class="cls-3" d="M87.88,101.48a3.68,3.68,0,0,1,.58.06v-13H61.79v8.17H72.12v5.12H86.21A4,4,0,0,1,87.88,101.48Z"/><path class="cls-3" d="M83.88,121a4,4,0,0,1,4-4,3.68,3.68,0,0,1,.58.06v-7.62a3.68,3.68,0,0,1-.58.06,4,4,0,0,1-4-3.92H72.12v8.67H61.79v7.28H83.93A4.75,4.75,0,0,1,83.88,121Z"/><path class="cls-3" d="M88.46,140.42a3.68,3.68,0,0,1-.58.06,4,4,0,0,1,0-8,3.68,3.68,0,0,1,.58.06v-7.62a3.68,3.68,0,0,1-.58.06,4,4,0,0,1-1.62-.35H61.79v18.6H88.46Z"/><rect class="cls-3" x="61.79" y="145.19" width="26.67" height="19.21"/></g></g></g></svg>