<svg xmlns="http://www.w3.org/2000/svg" viewBox="0 0 200 200"><defs><style>.cls-1{fill:none;}.cls-2{fill:#1790b0;}.cls-3{fill:#006d95;}</style></defs><g id="Layer_2" data-name="Layer 2"><g id="Backg_Layer_copy" data-name="Backg Layer copy"><rect class="cls-1" width="200" height="200"/></g><g id="_2_tone_blue" data-name="2 tone blue"><g id="water_addition" data-name="water addition"><path class="cls-2" d="M100,38.4S53.69,89.72,53.69,115.29a46.31,46.31,0,0,0,92.62,0C146.31,89.72,100,38.4,100,38.4Zm31.08,77.36h-23v23H95.41v-23h-23V103.09h23v-23h12.67v23h23Z"/><path class="cls-3" d="M101.74,47.09h-9.2c-1.34,1.6-2.8,3.38-4.35,5.31h13.55Z"/><path class="cls-3" d="M95.41,80.09h6.33V70.52H74.51c-2.43,3.46-4.82,7-7.07,10.63h28Z"/><path class="cls-3" d="M101.74,57.71H84c-2,2.51-4,5.18-6,8h23.75Z"/><path class="cls-3" d="M101.74,40.37c-.92-1.06-1.51-1.72-1.68-1.91h-.12c-.24.27-1.34,1.5-3,3.47h4.84Z"/><path class="cls-3" d="M95.41,85.42H64.84A124.35,124.35,0,0,0,58,98.71H95.41Z"/><path class="cls-3" d="M100,161.6c.58,0,1.16,0,1.74,0V142.05H62.21A46.24,46.24,0,0,0,100,161.6Z"/><path class="cls-3" d="M95.41,138.76V121.49H54.11a46,46,0,0,0,6.79,18.6h40.84v-1.33Z"/><path class="cls-3" d="M95.41,115.76h-23V103.09h23v-.67H56.46a38.26,38.26,0,0,0-2.77,12.87c0,1,0,2.06.11,3.08H95.41Z"/></g></g></g></svg>