<svg xmlns="http://www.w3.org/2000/svg" viewBox="0 0 200 200"><defs><style>.cls-1{fill:none;}.cls-2{fill:#1790b0;}.cls-3{fill:#006d95;}</style></defs><g id="Layer_2" data-name="Layer 2"><g id="Backg_Layer_copy" data-name="Backg Layer copy"><rect class="cls-1" width="200" height="200"/></g><g id="_2_tone_blue" data-name="2 tone blue"><g id="food_safe" data-name="food safe"><path class="cls-2" d="M126.36,40.43l-.46,9.22A56.71,56.71,0,0,1,156.64,100h-4a52.63,52.63,0,0,0-26.92-45.88L125,68c.66,3.79,6,12.44,6,22.78,0,16.94-2.6,21.36-4.82,26.45-3,6.81-7.12,7.95-13,6.81V49.05a52.61,52.61,0,0,0-42.55,94.53l-2.26,3.35a56.63,56.63,0,0,1,44.81-102V36.17a65.15,65.15,0,0,0-34.67,125.3l1.16-55.81c-5.22-2.32-8.5-8.07-8.5-12.22V91.83l2.07-27.64c0-1.72.92-3.18,2-3.16,1.59,0,1.6,1.42,1.71,3.17V90.11h3V62.94a1.93,1.93,0,0,1,3.86,0V90.11h3.06V62.94a1.93,1.93,0,0,1,3.86,0V90.11h3V64.2c.1-1.75.12-3.14,1.7-3.17,1.12,0,2,1.44,2,3.16l2.06,27.64s0,1.12,0,1.13v.48c0,4.15-3.28,9.9-8.49,12.22l1.22,59a66.77,66.77,0,0,0,7.79.48A65.14,65.14,0,0,0,126.36,40.43ZM147,122.64,124.55,145.1l-6.12,6.12a4.89,4.89,0,0,1-6.92,0L96.64,136.35l6.93-6.93,11.4,11.4,32-32Z"/><path class="cls-3" d="M76.9,64.2v6.24h3v-7.5a2.32,2.32,0,0,1,.06-.46H76.74A15.57,15.57,0,0,1,76.9,64.2Z"/><path class="cls-3" d="M83.75,62.94v7.5h3.06v-7.5a1.77,1.77,0,0,1,.07-.46H83.69A2.32,2.32,0,0,1,83.75,62.94Z"/><rect class="cls-3" x="90.67" y="75.29" width="2.99" height="10.63"/><rect class="cls-3" x="83.75" y="75.29" width="3.06" height="10.63"/><path class="cls-3" d="M99.48,93.44c0,3.16-1.9,7.25-5.12,10h7.81V90.19H99.36l.12,1.64s0,1.12,0,1.13Z"/><rect class="cls-3" x="76.9" y="75.29" width="3" height="10.63"/><path class="cls-3" d="M102.17,57.17V51.85H78.87a52,52,0,0,0-9.33,5.32Z"/><path class="cls-3" d="M70.54,143.58l-.86,1.28h9.08l.39-18.6H54.45A52.67,52.67,0,0,0,70.54,143.58Z"/><path class="cls-3" d="M47.92,107.19a52,52,0,0,0,4.87,15.94H79.21l.33-15.94Z"/><path class="cls-3" d="M90.61,62.48a1.76,1.76,0,0,1,.06.46v7.5h3V64.2a11.87,11.87,0,0,1,.16-1.72Z"/><path class="cls-3" d="M71.08,93.44V91.83l.12-1.64H48.34a52.88,52.88,0,0,0-.93,9.81c0,1.16,0,2.33.12,3.48H76.2C73,100.69,71.08,96.6,71.08,93.44Z"/><path class="cls-3" d="M72.68,70.44l.47-6.25a4.38,4.38,0,0,1,.33-1.71H63.2a52.48,52.48,0,0,0-6.68,8Z"/><polygon class="cls-3" points="102.17 75.29 98.25 75.29 99.04 85.92 102.17 85.92 102.17 75.29"/><path class="cls-3" d="M71.52,85.92l.8-10.63H53.59a51.53,51.53,0,0,0-4.25,10.63Z"/><path class="cls-3" d="M78.42,161.47l.3-14.65H68.35l-.07.11-.15-.11H54.73a65.26,65.26,0,0,0,23.69,14.65Z"/><path class="cls-3" d="M49.82,126.26H40.38a65.48,65.48,0,0,0,12.4,18.6H65.41A56.71,56.71,0,0,1,49.82,126.26Z"/><path class="cls-3" d="M43.82,107.19H35.26a64.58,64.58,0,0,0,3.84,15.94h9.21A56.62,56.62,0,0,1,43.82,107.19Z"/><path class="cls-3" d="M92.21,164.66a64.65,64.65,0,0,0,7.79.49c.73,0,1.45,0,2.17-.06V146.82H91.84Z"/><path class="cls-3" d="M102.17,62.48H97.08a4.38,4.38,0,0,1,.34,1.71l.46,6.25h4.29Z"/><path class="cls-3" d="M43.36,100a56.63,56.63,0,0,1,.87-9.81H35.59a66,66,0,0,0-.74,9.81c0,1.17,0,2.33.1,3.48h8.52C43.4,102.33,43.36,101.16,43.36,100Z"/><polygon class="cls-3" points="96.64 136.35 102.17 130.81 102.17 126.26 91.42 126.26 91.8 144.86 102.17 144.86 102.17 141.88 96.64 136.35"/><path class="cls-3" d="M49.05,75.29H39.72A64.64,64.64,0,0,0,36.4,85.92h8.73A55.4,55.4,0,0,1,49.05,75.29Z"/><polygon class="cls-3" points="102.17 107.19 91.02 107.19 91.35 123.13 102.17 123.13 102.17 107.19"/><path class="cls-3" d="M100,43.36c.73,0,1.45,0,2.17.06v-.19H68.07a61.32,61.32,0,0,0-5.5,3.47H80.85A56.27,56.27,0,0,1,100,43.36Z"/><path class="cls-3" d="M102.17,34.91c-.72,0-1.44-.06-2.17-.06a65.09,65.09,0,0,0-20.76,3.4h22.93Z"/><path class="cls-3" d="M70.21,51.85H56.12a65,65,0,0,0-5.18,5.32H63A56.79,56.79,0,0,1,70.21,51.85Z"/><path class="cls-3" d="M57.62,62.48H46.76a65.23,65.23,0,0,0-4.81,8h9.76A57,57,0,0,1,57.62,62.48Z"/></g></g></g></svg>