<?xml version="1.0" encoding="UTF-8"?><svg id="Layer_2" xmlns="http://www.w3.org/2000/svg" viewBox="0 0 200 200"><defs><style>.cls-1{fill:#fff;}.cls-2{fill:#d9d9db;}.cls-3{fill:none;}</style></defs><g id="dan_sanity"><rect class="cls-3" width="200" height="200"/><path class="cls-1" d="M135.19,142.91c0,7.59-6.17,13.75-13.75,13.75-4.67,0-8.87-2.48-11.48-6.24-2.24-3.23-6.7-6.75-11.04-6.75-1.83,0-3.58,.09-5.3,1.62-1.83,1.62-4.17,4.46-4.66,5-2.05,2.26-4.76,3.52-7.71,3.52-6.05,0-10.92-4.87-10.95-10.91,.02-6.03,4.9-10.9,10.95-10.9,2.95,0,5.66,1.26,7.71,3.52,.49,.54,2.83,3.38,4.66,5,1.72,1.52,3.47,1.62,5.3,1.62,4.35,0,8.8-3.52,11.04-6.75,2.61-3.76,6.81-6.23,11.48-6.23,7.59,0,13.75,6.16,13.75,13.75ZM62.53,99.29c-2.63,2.63-3.6,6.4-2.95,9.99,.55,3.08,.03,7.58-2.42,10.03-1.03,1.03-2.07,1.97-3.9,2.08-1.94,.12-4.87-.16-5.45-.19-2.42-.12-4.67,.7-6.33,2.36-3.41,3.41-3.41,8.9-.02,12.32,3.41,3.39,8.91,3.39,12.32-.02,1.66-1.66,2.48-3.91,2.36-6.33-.03-.58-.31-3.51-.19-5.45,.11-1.83,1.05-2.87,2.08-3.9,2.45-2.45,6.95-2.98,10.03-2.42,3.59,.65,7.35-.32,9.98-2.96,4.28-4.28,4.28-11.23,0-15.51-4.28-4.28-11.23-4.28-15.51,0Zm-16.56-12.88c5.51,5.51,13.38,7.54,20.89,6.19,6.44-1.16,15.45-.47,22.49,6.56,4.53,4.53,6.57,6.34,8.16,9.79,1.6,3.47,1.21,6.96,1.17,7.65-.14,2.89,.83,5.56,2.81,7.54,4.06,4.06,10.6,4.06,14.66,.03,4.04-4.06,4.03-10.61-.03-14.66-1.98-1.98-4.65-2.95-7.54-2.81-.69,.03-4.18,.43-7.65-1.17-3.44-1.59-5.25-3.63-9.78-8.16-7.04-7.04-7.73-16.04-6.56-22.49,1.35-7.51-.68-15.38-6.18-20.89-8.95-8.95-23.49-8.95-32.43,0-8.95,8.95-8.95,23.49,0,32.43Z"/><path class="cls-1" d="M128.54,69c0,3.21-2.6,5.81-5.81,5.81s-5.81-2.6-5.81-5.81,2.6-5.81,5.81-5.81,5.81,2.6,5.81,5.81Z"/><path class="cls-1" d="M94.95,47.92c0,3.21-2.6,5.81-5.81,5.81s-5.81-2.6-5.81-5.81,2.6-5.81,5.81-5.81,5.81,2.6,5.81,5.81Z"/><path class="cls-1" d="M132.79,102.83c0,3.21-2.6,5.81-5.81,5.81s-5.81-2.6-5.81-5.81,2.6-5.81,5.81-5.81,5.81,2.6,5.81,5.81Z"/><path class="cls-1" d="M144.04,47.25c0,3.21-2.6,5.81-5.81,5.81s-5.81-2.6-5.81-5.81,2.6-5.81,5.81-5.81,5.81,2.6,5.81,5.81Z"/><path class="cls-1" d="M153.54,110c0,3.21-2.6,5.81-5.81,5.81s-5.81-2.6-5.81-5.81,2.6-5.81,5.81-5.81,5.81,2.6,5.81,5.81Z"/><path class="cls-1" d="M91.49,122c0,1.99-1.61,3.59-3.59,3.59s-3.59-1.61-3.59-3.59,1.61-3.59,3.59-3.59,3.59,1.61,3.59,3.59Z"/><path class="cls-1" d="M135.15,122.67c0,1.99-1.61,3.59-3.59,3.59s-3.59-1.61-3.59-3.59,1.61-3.59,3.59-3.59,3.59,1.61,3.59,3.59Z"/><path class="cls-1" d="M146.91,72.31c-4.81,0-9.15,2.56-11.84,6.43-2.31,3.33-6.9,6.96-11.39,6.96-3.75,0-5.52-.41-7.14-.96-2.91-.99-4.44-3.45-4.81-3.86-1.56-1.72-3.62-2.68-5.87-2.68-4.6,0-8.31,3.71-8.33,8.3,.02,4.59,3.72,8.3,8.33,8.3,2.24,0,4.31-.96,5.87-2.68,.37-.41,1.9-2.88,4.81-3.87,1.62-.55,3.39-.96,7.14-.96,4.48,0,9.08,3.63,11.39,6.96,2.69,3.87,7.02,6.43,11.84,6.43,7.83,0,14.18-6.36,14.18-14.18s-6.36-14.18-14.18-14.18Z"/><path class="cls-1" d="M105.15,47.5c-2.06,2.06-2.82,5.02-2.32,7.83,.44,2.42,.02,5.94-1.9,7.87-1.61,1.61-2.54,2.19-3.47,2.65-1.67,.82-3.38,.42-3.72,.41-1.4-.07-2.7,.4-3.66,1.37-1.97,1.97-1.97,5.15-.01,7.13,1.97,1.96,5.15,1.96,7.13-.01,.96-.96,1.43-2.26,1.37-3.66-.02-.34-.42-2.05,.41-3.72,.46-.93,1.04-1.86,2.65-3.47,1.92-1.92,5.45-2.33,7.87-1.9,2.82,.51,5.77-.25,7.83-2.32,3.36-3.36,3.36-8.81,0-12.16-3.36-3.36-8.81-3.36-12.16,0Z"/><g><path class="cls-2" d="M78.4,53.97c-.8-.8-1.66-1.51-2.54-2.16h-27.34c-.88,.66-1.74,1.36-2.54,2.16-.98,.98-1.84,2.05-2.61,3.15h37.65c-.76-1.11-1.62-2.17-2.6-3.15Z"/><path class="cls-2" d="M83.67,62.43H40.63c-.92,2.57-1.39,5.27-1.36,7.97h45.72c0-2.72-.43-5.42-1.31-7.97Z"/><path class="cls-2" d="M84.52,75.24H39.84c.87,3.87,2.75,7.55,5.64,10.63h39.31c-.87-3.78-.79-7.49-.27-10.63Z"/><path class="cls-2" d="M86.2,90.14H50.97c4.79,2.62,10.43,3.43,15.88,2.45,6.21-1.12,14.8-.5,21.72,5.85v-4.15c-.96-1.35-1.75-2.74-2.37-4.15Z"/><path class="cls-2" d="M62.53,99.29c-1.19,1.19-2.02,2.62-2.54,4.15h20.63c-.53-1.51-1.38-2.94-2.59-4.15-4.28-4.28-11.23-4.28-15.51,0Z"/><path class="cls-2" d="M59.57,109.27c.55,3.08,.03,7.58-2.42,10.03-1.03,1.03-2.07,1.97-3.9,2.08-1.94,.12-4.87-.16-5.45-.19-2.18-.11-4.21,.55-5.81,1.89h14.11c.33-1.25,1.09-2.09,1.92-2.92,2.45-2.45,6.95-2.98,10.03-2.42,3.59,.65,7.35-.32,9.98-2.96,2.11-2.11,3.18-4.88,3.2-7.65h-21.84c0,.71,.05,1.42,.17,2.13Z"/><path class="cls-2" d="M41.45,135.87c3.41,3.39,8.91,3.39,12.32-.02,1.66-1.66,2.48-3.91,2.36-6.33-.02-.39-.15-1.82-.2-3.31h-16.27c-1.4,3.19-.81,7.04,1.79,9.66Z"/><path class="cls-2" d="M83.24,132.21c-.65-.13-1.32-.21-2-.21-6.05,0-10.92,4.87-10.95,10.9,0,.65,.07,1.28,.18,1.9h12.76v-12.6Z"/><path class="cls-2" d="M71.02,146.77c1.57,4.12,5.54,7.04,10.22,7.04,.68,0,1.35-.08,2-.21v-6.84h-12.22Z"/></g></g></svg>