<svg xmlns="http://www.w3.org/2000/svg" viewBox="0 0 200 200"><defs><style>.cls-1{fill:#1790b0;}.cls-2{fill:#006d95;}.cls-3{fill:none;}</style></defs><g id="Layer_2" data-name="Layer 2"><g id="Layer_9" data-name="Layer 9"><path class="cls-1" d="M159.61,81.87V41H120V36.09H93.45V41H55.69v9.74H53A6.24,6.24,0,0,0,46.76,57v9.06A6.24,6.24,0,0,0,53,72.28h2.7v9.59H48.34v38.88H84.06v6.5c0,5.85,4.77,10.94,11.79,13.57v22.39H79.78l-4.87,4.88H158.8V120.75H167V81.87ZM55.69,69H53a3,3,0,0,1-3-3V57a3,3,0,0,1,3-3h2.7ZM125.6,47.32h26.66V64h-2.44V49.75H125.6Zm-65.17,0H87.09v2.43H62.86V66H60.43Zm45.3,100.46a3.54,3.54,0,0,1-7.07,0v-11.5a3.54,3.54,0,1,1,7.07,0ZM61.85,93.32a33.81,33.81,0,0,1-1.28-7.94c-.45-10,3.26-18.34,8.27-18.57,1.91-.08,3.73,1,5.28,3a45.1,45.1,0,0,1,5.59-3.39c0-.21,0-.43,0-.64L93,48.27h27.41l13.31,17.47c0,.21,0,.43,0,.64a43.61,43.61,0,0,1,5.64,3.43c1.55-2,3.38-3.08,5.3-3,5,.23,8.72,8.54,8.27,18.57a33.09,33.09,0,0,1-1.4,8.34c-2.05,15.65-21.33,27.92-44.81,27.92C83,121.64,63.63,109.17,61.85,93.32Zm92.08,69.89H117.57V140.82c7-2.63,11.8-7.72,11.8-13.57v-6.5h24.56Z"/><path class="cls-1" d="M134.76,84.57c.45-10,4.87-18,9.89-17.76l-13.91-.62h-.27c-4,.12-8,8.47-8.4,17.81s3,18.33,7.11,18.51h0l13.85.62C138,102.91,134.31,94.6,134.76,84.57Z"/><path class="cls-1" d="M70.46,103.14l13.86-.62h0c4.07-.18,7.52-9.18,7.11-18.52s-4.32-17.52-8.26-17.8h-.42l-13.91.62c5-.22,9.44,7.73,9.89,17.76S75.47,102.91,70.46,103.14Z"/><path class="cls-1" d="M119.63,83.9a40.2,40.2,0,0,1,.59-5.24,68,68,0,0,1-13.51,1.13,69,69,0,0,1-13.44-1.11,39.71,39.71,0,0,1,.59,5.22c.28,6.3-1.1,13-3.72,17.06a35.93,35.93,0,0,0,33.2,0C120.73,96.83,119.35,90.19,119.63,83.9Z"/><path class="cls-2" d="M128.86,105.53c-2,0-3.56,1.09-3.56,2.43s1.6,2.43,3.56,2.43,3.57-1.09,3.57-2.43S130.83,105.53,128.86,105.53Z"/><path class="cls-2" d="M114.93,110.57c-2,0-3.57,1.09-3.57,2.43s1.6,2.44,3.57,2.44,3.56-1.1,3.56-2.44S116.89,110.57,114.93,110.57Z"/><path class="cls-2" d="M98.5,110.57c-2,0-3.56,1.09-3.56,2.43s1.59,2.44,3.56,2.44,3.56-1.09,3.56-2.44S100.47,110.57,98.5,110.57Z"/><path class="cls-2" d="M84.56,105.53c-2,0-3.56,1.09-3.56,2.43s1.59,2.43,3.56,2.43,3.56-1.09,3.56-2.43S86.53,105.53,84.56,105.53Z"/><path class="cls-2" d="M63.07,143.16a3.54,3.54,0,0,1,0,5l-8.13,8.13a3.54,3.54,0,0,1-5,0h0a3.53,3.53,0,0,1,0-5l8.13-8.13a3.54,3.54,0,0,1,5,0Z"/><path class="cls-2" d="M75.47,150.6a3.55,3.55,0,0,1,0,5l-8.13,8.13a3.55,3.55,0,0,1-5,0h0a3.55,3.55,0,0,1,0-5l8.14-8.13a3.54,3.54,0,0,1,5,0Z"/><path class="cls-1" d="M67.81,131.36a3.55,3.55,0,0,1,5,0L81,139.49a3.55,3.55,0,0,1,0,5h0a3.54,3.54,0,0,1-5,0l-8.13-8.14a3.53,3.53,0,0,1,0-5Z"/><path class="cls-1" d="M133.18,134.84a3.54,3.54,0,0,1,3.54,3.54v11.5a3.53,3.53,0,0,1-3.54,3.53h0a3.53,3.53,0,0,1-3.54-3.53v-11.5a3.53,3.53,0,0,1,3.54-3.54Z"/><path class="cls-1" d="M49.59,138.21a3.55,3.55,0,0,1,0-5l8.13-8.13a3.55,3.55,0,0,1,5,0h0a3.55,3.55,0,0,1,0,5l-8.13,8.13a3.55,3.55,0,0,1-5,0Z"/><path class="cls-1" d="M68.56,94c2.48-.11,4.31-4.22,4.1-9.18s-2.42-8.89-4.9-8.78-4.31,4.23-4.08,9.18,2.41,8.89,4.88,8.78"/><path class="cls-2" d="M143.44,94c2.48.11,4.67-3.82,4.89-8.77s-1.61-9.07-4.09-9.18-4.67,3.82-4.89,8.77S141,93.84,143.44,94"/><path class="cls-2" d="M151.52,93.72c0,.13,0,.24-.06.37-.05.34-.11.68-.17,1h0c-3,15-21.8,26.53-44.58,26.53-23.55,0-42.86-12.34-44.82-28.07,0-.08,0-.16,0-.25s-.09-.34-.13-.51v7.06c0,17,20.14,30.7,45,30.7s45-13.74,45-30.7V93C151.64,93.26,151.59,93.5,151.52,93.72Z"/><rect class="cls-2" x="93.45" y="36.09" width="15.85" height="3.52"/><polygon class="cls-2" points="60.43 47.32 87.09 47.32 87.09 49.75 62.87 49.75 62.87 50.74 91.12 50.74 93 48.27 109.3 48.27 109.3 45.09 55.69 45.09 55.69 50.74 60.43 50.74 60.43 47.32"/><rect class="cls-2" x="55.69" y="56.39" width="4.74" height="8.47"/><polygon class="cls-2" points="62.87 56.39 62.87 64.86 80.36 64.86 86.82 56.39 62.87 56.39"/><path class="cls-2" d="M50,57a3,3,0,0,1,.06-.61H46.79a6.08,6.08,0,0,0,0,.61v7.86H50Z"/><path class="cls-2" d="M64,70H48.19A6.21,6.21,0,0,0,53,72.28h2.7v9h4.93C60.94,76.66,62.18,72.64,64,70Z"/><path class="cls-2" d="M109.3,79.76c-.85,0-1.71,0-2.59,0a69,69,0,0,1-13.44-1.11q.24,1.3.39,2.64H109.3Z"/><path class="cls-2" d="M67.76,76.06c-1.78.08-3.22,2.23-3.81,5.26h8.19C71.31,78.15,69.61,76,67.76,76.06Z"/><path class="cls-2" d="M91.2,81.32A29.75,29.75,0,0,0,87.7,70H74.29c2,2.6,3.49,6.61,4.13,11.3Z"/><path class="cls-2" d="M109.3,85.86H93.89c0,5.22-1.19,10.47-3.19,14.14h18.6Z"/><path class="cls-2" d="M62.85,97.82q-.21-.66-.39-1.32h0a20.92,20.92,0,0,1-.57-2.92c0-.08,0-.16,0-.25a33.87,33.87,0,0,1-1.25-7.46H48.34V100H63.72C63.4,99.29,63.1,98.56,62.85,97.82Z"/><path class="cls-2" d="M75.25,100H87.87c2.08-3,3.53-8.41,3.59-14.14H78.76C78.81,91.73,77.45,96.88,75.25,100Z"/><path class="cls-2" d="M68.56,94c2.31-.1,4-3.67,4.11-8.16h-9C64.08,90.52,66.19,94.12,68.56,94Z"/><path class="cls-2" d="M97.83,104a37.31,37.31,0,0,0,8.88,1.06c.88,0,1.74,0,2.59-.1v-1Z"/><path class="cls-2" d="M84.56,105.53c-2,0-3.56,1.09-3.56,2.43s1.59,2.43,3.56,2.43,3.56-1.09,3.56-2.43S86.53,105.53,84.56,105.53Z"/><path class="cls-2" d="M98.5,110.57c-2,0-3.56,1.09-3.56,2.43s1.59,2.44,3.56,2.44,3.56-1.09,3.56-2.44S100.47,110.57,98.5,110.57Z"/><path class="cls-2" d="M109.3,121.59c-.86,0-1.72,0-2.59,0-18,0-33.59-7.24-40.77-17.69H48.34v16.8h25.4c.73.55,1.5,1.07,2.29,1.57H109.3Z"/><path class="cls-2" d="M63.07,143.16a3.54,3.54,0,0,0-5,0l-.85.85h6.46A3.51,3.51,0,0,0,63.07,143.16Z"/><path class="cls-2" d="M98.66,136.28a3.54,3.54,0,1,1,7.07,0V144h3.57V124.23H79.37c1.5.78,3,1.51,4.69,2.17v.85c0,5.85,4.77,10.94,11.79,13.57V144h2.81Z"/><path class="cls-2" d="M57.72,125.07l-8.13,8.13a3.54,3.54,0,0,0,5,5l8.13-8.13a3.55,3.55,0,0,0,0-5,3.66,3.66,0,0,0-1.39-.84H59.12A3.62,3.62,0,0,0,57.72,125.07Z"/><path class="cls-2" d="M72.82,131.36a3.54,3.54,0,1,0-5,5L75.46,144h5.89a3.54,3.54,0,0,0-.4-4.52Z"/><path class="cls-2" d="M49.94,151.29a3.54,3.54,0,1,0,5,5l8.13-8.13a3.51,3.51,0,0,0,1-2.08H55.14Z"/><path class="cls-2" d="M105.73,146.09v1.69a3.54,3.54,0,0,1-7.07,0v-1.69H95.85v17.12H79.78l-4.87,4.88H109.3v-22Z"/><path class="cls-2" d="M75.47,150.6a3.54,3.54,0,0,0-5,0l-8.14,8.13a3.54,3.54,0,1,0,5,5l8.13-8.13A3.55,3.55,0,0,0,75.47,150.6Z"/><rect class="cls-3" width="200" height="200"/></g></g></svg>