<?xml version="1.0" encoding="UTF-8"?>
<svg id="Layer_2" data-name="Layer 2" xmlns="http://www.w3.org/2000/svg" viewBox="0 0 200 200">
  <defs>
    <style>
      .cls-1 {
        fill: none;
      }

      .cls-1, .cls-2, .cls-3 {
        stroke-width: 0px;
      }

      .cls-2 {
        fill: #fff;
      }

      .cls-3 {
        fill: #d9d9db;
      }
    </style>
  </defs>
  <g id="Layer_1-2" data-name="Layer 1">
    <rect class="cls-2" x="33.11" y="156.63" width="30.66" height="16.35"/>
    <polygon class="cls-2" points="77.94 172.98 67.44 172.98 67.44 156.63 98.1 156.63 77.94 172.98"/>
    <path class="cls-2" d="m109.6,101.22c0,5.45-4.42,9.86-9.86,9.86s-9.86-4.42-9.86-9.86,4.42-9.86,9.86-9.86,9.86,4.41,9.86,9.86Zm-43.18-9.86c-5.45,0-9.86,4.42-9.86,9.86s4.42,9.86,9.86,9.86,9.86-4.42,9.86-9.86-4.42-9.86-9.86-9.86Zm-33.32,19.72c5.45,0,9.86-4.42,9.86-9.86s-4.42-9.86-9.86-9.86"/>
    <path class="cls-2" d="m136.32,132.79H33.11v-9.69h103.21c12.07,0,21.88-9.82,21.88-21.88s-9.82-21.88-21.88-21.88H33.11v-9.69h103.21c17.41,0,31.57,14.16,31.57,31.57s-14.16,31.57-31.57,31.57Z"/>
    <path class="cls-2" d="m112.08,51.64c1.59-5.5,7.46.91,9.63,2.13,3.31,1.86,7.22,1.33,10.34,3.12,2.19,1.26,7.55,9.45,7.55,9.45,0,0-25.51,0-30.19,0-10.5,0-21,0-31.5,0h-44.81v-3.87s.49-11.46,2.17-12.6c1.98-1.34,3.9.47,5.97.21,2.52-.32,4.13-2.12,5.34-4.27,2.36-4.23,1.75-8.44,7.35-8.84,4.75-.34,5.91,1.61,8.04,5.19,5.44,9.16,19.21-1.12,27.66,2.67,2.7,1.21,20.45,13.71,22.45,6.8Z"/>
    <path class="cls-3" d="m136.32,86.96c-7.88,0-14.26,6.39-14.26,14.26s6.39,14.27,14.26,14.27,14.27-6.39,14.27-14.27-6.39-14.26-14.27-14.26Zm0,20.11c-3.23,0-5.84-2.62-5.84-5.85s2.62-5.84,5.84-5.84,5.85,2.62,5.85,5.84-2.62,5.85-5.85,5.85Z"/>
    <path class="cls-3" d="m94.35,37.05c0-1.79-1.46-3.25-3.25-3.25s-3.25,1.45-3.25,3.25,1.45,3.25,3.25,3.25c1.79,0,3.25-1.45,3.25-3.25Z"/>
    <path class="cls-2" d="m103.19,39.71c0-1.79-1.46-3.25-3.25-3.25s-3.25,1.45-3.25,3.25,1.45,3.25,3.25,3.25c1.79,0,3.25-1.45,3.25-3.25Z"/>
    <path class="cls-2" d="m83.73,37.93c0-1.79-1.46-3.25-3.25-3.25s-3.25,1.45-3.25,3.25,1.45,3.25,3.25,3.25c1.79,0,3.25-1.45,3.25-3.25Z"/>
    <path class="cls-3" d="m74.4,31.26c0-1.79-1.46-3.25-3.25-3.25s-3.25,1.45-3.25,3.25,1.45,3.25,3.25,3.25c1.79,0,3.25-1.45,3.25-3.25Z"/>
    <path class="cls-2" d="m67.96,36.12c1.78,0,3.23,1.45,3.23,3.24s-1.45,3.23-3.23,3.23-3.24-1.45-3.24-3.24,1.45-3.23,3.23-3.23"/>
    <path class="cls-2" d="m57.27,28.26c1.78,0,3.23,1.45,3.23,3.24s-1.45,3.23-3.23,3.23-3.24-1.45-3.24-3.24,1.45-3.23,3.23-3.23"/>
    <path class="cls-2" d="m40.1,40.71c1.79,0,3.24,1.45,3.24,3.23s-1.45,3.24-3.24,3.24c-1.78,0-3.23-1.45-3.24-3.23,0-1.79,1.45-3.24,3.24-3.24"/>
    <path class="cls-3" d="m44.98,31.66c1.79,0,3.24,1.45,3.24,3.23s-1.45,3.24-3.24,3.24c-1.78,0-3.23-1.45-3.24-3.23,0-1.79,1.45-3.24,3.24-3.24"/>
    <rect class="cls-3" x="33.11" y="69.65" width="52.94" height="1.5"/>
    <rect class="cls-3" x="33.11" y="75.71" width="52.94" height="3.63"/>
    <rect class="cls-3" x="33.11" y="123.1" width="52.94" height="4.67"/>
    <rect class="cls-3" x="33.11" y="130.45" width="52.94" height="2.34"/>
    <path class="cls-3" d="m33.11,149.8v2.9h52.94v-2.9h-52.94Z"/>
    <path class="cls-3" d="m66.42,91.36c-4.46,0-8.22,2.96-9.44,7.02h18.89c-1.22-4.06-4.99-7.02-9.44-7.02Z"/>
    <path class="cls-3" d="m33.11,91.36v7.02h9.44c-1.22-4.06-4.99-7.02-9.44-7.02Z"/>
    <path class="cls-3" d="m42.93,102.04h-9.82v9.04c5.17,0,9.4-3.98,9.82-9.04Z"/>
    <path class="cls-3" d="m66.42,111.08c5.17,0,9.4-3.98,9.82-9.04h-19.64c.42,5.06,4.65,9.04,9.82,9.04Z"/>
    <path class="cls-3" d="m86.05,59.19h-52.73c-.11,1.36-.17,2.47-.2,2.98h52.93v-2.98Z"/>
    <path class="cls-3" d="m86.05,51.94h-51.73c-.22.86-.4,1.89-.55,2.98h52.28v-2.98Z"/>
    <path class="cls-3" d="m110.57,47.17c0-1.79-1.46-3.25-3.25-3.25s-3.25,1.45-3.25,3.25,1.45,3.25,3.25,3.25c1.79,0,3.25-1.45,3.25-3.25Z"/>
    <path class="cls-2" d="m119.6,43.3c0-1.79-1.46-3.25-3.25-3.25s-3.25,1.45-3.25,3.25,1.45,3.25,3.25,3.25c1.79,0,3.25-1.45,3.25-3.25Z"/>
    <path class="cls-3" d="m130.57,49.17c0-1.79-1.46-3.25-3.25-3.25s-3.25,1.45-3.25,3.25,1.45,3.25,3.25,3.25c1.79,0,3.25-1.45,3.25-3.25Z"/>
    <path class="cls-2" d="m142.74,53.34c0-1.79-1.46-3.25-3.25-3.25s-3.25,1.45-3.25,3.25,1.45,3.25,3.25,3.25c1.79,0,3.25-1.45,3.25-3.25Z"/>
    <rect class="cls-3" x="33.11" y="156.63" width="30.66" height="10.04"/>
    <polygon class="cls-3" points="86.05 166.4 86.05 156.63 67.44 156.63 67.44 166.67 85.72 166.67 86.05 166.4"/>
    <rect class="cls-2" x="33.13" y="141.33" width="13.25" height="6.39"/>
    <rect class="cls-2" x="59.72" y="141.33" width="13.25" height="6.39"/>
    <rect class="cls-2" x="86.31" y="141.33" width="13.25" height="6.39"/>
    <rect class="cls-1" width="200" height="200"/>
  </g>
</svg>