<?xml version="1.0" encoding="UTF-8"?><svg id="Layer_2" xmlns="http://www.w3.org/2000/svg" viewBox="0 0 200 200"><defs><style>.cls-1{fill:#fff;}.cls-2{fill:#d9d9db;}.cls-3{fill:none;}</style></defs><g id="dan_sanity"><rect class="cls-3" width="200" height="200"/><g><path class="cls-1" d="M73.17,165.67v-7.17h4v7.17h21.33v-15h4v15h21.33v-7.17h4v7.17h21.33v-15h4v15h12.5V60.62L60.62,165.67h12.55Zm70.83-74.33h8v8h-8v-8Zm-22.33,22.33h8v8h-8v-8Zm-20,18h8v8h-8v-8Z"/><path class="cls-1" d="M34.33,34.33v5.06h15.09v4h-15.09v21.33h7.26v4h-7.26v21.33h15.09v4h-15.09v21.33h7.26v4h-7.26v21.41h15.09v4h-15.09v20.86h13.5v-15h4v13.88L165.67,50.72v-16.39H34.33Zm37.83,105.33h-8v-8h8v8Zm37.5-38h-8v-8h8v8Zm42.33-42.67h-8v-8h8v8Z"/></g><polygon class="cls-2" points="91.01 43.18 49.43 43.18 49.43 43.39 34.33 43.39 34.33 46.65 91.01 46.65 91.01 43.18"/><rect class="cls-2" x="34.33" y="51.8" width="56.68" height="5.31"/><polygon class="cls-2" points="91.01 62.43 34.33 62.43 34.33 64.73 41.59 64.73 41.59 68.73 34.33 68.73 34.33 70.39 91.01 70.39 91.01 62.43"/><rect class="cls-2" x="34.33" y="75.24" width="56.68" height="10.63"/><polygon class="cls-2" points="91.01 90.14 49.43 90.14 49.43 94.06 34.33 94.06 34.33 103.43 91.01 103.43 91.01 90.14"/><polygon class="cls-2" points="91.01 107.14 34.33 107.14 34.33 115.39 41.59 115.39 41.59 119.39 34.33 119.39 34.33 123.09 91.01 123.09 91.01 107.14"/><path class="cls-2" d="M34.33,126.21v14.59h15.09v4.01h22.15l18.6-18.6H34.33Zm29.83,13.46v-8h8v8h-8Z"/><rect class="cls-2" x="34.33" y="34.32" width="56.68" height="3.39"/><polygon class="cls-2" points="73.17 165.67 73.17 158.5 77.17 158.5 77.17 165.67 91.01 165.67 91.01 146.77 79.51 146.77 60.62 165.67 73.17 165.67"/><polygon class="cls-2" points="34.33 146.77 34.33 165.67 47.83 165.67 47.83 150.67 51.83 150.67 51.83 164.55 69.61 146.77 34.33 146.77"/></g></svg>