<?xml version="1.0" encoding="UTF-8"?>
<svg id="Layer_2" data-name="Layer 2" xmlns="http://www.w3.org/2000/svg" viewBox="0 0 200 200">
  <defs>
    <style>
      .cls-1 {
        fill: #fff;
      }

      .cls-2 {
        fill: #f35000;
      }

      .cls-3 {
        fill: #f28c00;
      }

      .cls-4 {
        fill: none;
      }

      .cls-5 {
        fill: #ffcd00;
      }

      .cls-6 {
        fill: #05589b;
      }
    </style>
  </defs>
  <g id="Layer_1-2" data-name="Layer 1">
    <g id="Layer_2-2" data-name="Layer 2">
      <g id="Backg_Layer_copy" data-name="Backg Layer copy">
        <rect class="cls-4" width="200" height="200"/>
      </g>
      <g>
        <path class="cls-1" d="m132.5,103.37c.67-.13,1.47-.1,2.11-.08v-8.54c-8.45.45-13.26,5.57-15.9,11.7-2.64-6.13-7.45-11.25-15.9-11.7v8.54c.63-.02,1.44-.06,2.11.08,3.83.77,4.98,4.5,6.52,7.69.88,1.82,1.81,3.59,2.47,5.22-.82,1.66-1.73,3.47-2.68,5.35-.91,1.8-1.59,3.9-2.75,5.28-1.05,1.27-3.54,2.17-5.67,2.16v8.55c6.65.09,11.51-3.11,14.05-7.89.66-1.25,1.11-2.61,1.85-3.84.74,1.23,1.19,2.59,1.85,3.84,2.54,4.78,7.4,7.98,14.05,7.89v-8.55c-2.14.02-4.62-.89-5.67-2.16-1.15-1.39-1.84-3.48-2.75-5.28-.95-1.88-1.86-3.7-2.68-5.35.66-1.63,1.59-3.39,2.47-5.22,1.54-3.19,2.69-6.92,6.52-7.69Z"/>
        <path class="cls-5" d="m137.54,165.02H62.46L24.92,100,62.46,34.98h75.08l37.54,65.02-37.54,65.02Zm-68.87-10.75h62.66l31.33-54.26-31.33-54.27h-62.66l-31.33,54.27,31.33,54.26Zm63.83-50.9c.67-.13,1.47-.1,2.11-.08v-8.54c-8.45.45-13.26,5.57-15.9,11.7-2.64-6.13-7.45-11.25-15.9-11.7v8.54c.63-.02,1.44-.06,2.11.08,3.83.77,4.98,4.5,6.52,7.69.88,1.82,1.81,3.59,2.47,5.22-.82,1.66-1.73,3.47-2.68,5.35-.91,1.8-1.59,3.9-2.75,5.28-1.05,1.27-3.54,2.17-5.67,2.16v8.55c6.65.09,11.51-3.11,14.05-7.89.66-1.25,1.11-2.61,1.85-3.84.74,1.23,1.19,2.59,1.85,3.84,2.54,4.78,7.4,7.98,14.05,7.89v-8.55c-2.14.02-4.62-.89-5.67-2.16-1.15-1.39-1.84-3.48-2.75-5.28-.95-1.88-1.86-3.7-2.68-5.35.66-1.63,1.59-3.39,2.47-5.22,1.54-3.19,2.69-6.92,6.52-7.69Zm-41.93,21.57c-.15.1-.69.65-.79.73-1.94,1.66-4.24,2.78-7.21,3.02-7.38.59-13.23-4.88-13.66-11.74-.41-6.55,3.51-10.66,7.75-12.49,3.15-1.36,7.35-1.04,12.42-1.03-.05-2.84.09-5.86-.07-8.58-2.59.02-4.86.08-7.41.07-.74,0-2.39-.1-3.77-.55-4.61-1.48-8.37-5.14-8.85-11.05-.49-5.98,2.8-10.41,7.07-12.42,2.38-1.12,5.4-1.65,8.3-.96,1.34.32,2.5.76,3.57,1.37,1.06.61,1.89,1.41,2.81,2.06,1.86-2.12,3.92-4.04,5.77-6.18-1.86-1.81-4.12-3.41-6.79-4.53-2.64-1.11-6.08-1.72-8.92-1.58-9.18.47-15.97,6.15-18.87,13.18-1.72,4.17-2.05,8.96-.89,13.38,1.29,4.94,4.3,8.81,7.69,11.6-4.3,3.39-7.4,7.85-8.17,14.27-.79,6.66,1.64,12.6,5.01,16.47,3.36,3.85,8.09,6.82,15.17,7.27,5.61.36,10.99-1.99,14.34-4.8.26-.22,1.17-.88,1.39-1.24l-5.89-6.29Z"/>
        <g>
          <path class="cls-6" d="m68.99,83.33c-.31-3.77.88-6.92,2.87-9.23h-9.86c-.02.06-.06.12-.08.18-1.35,3.27-1.83,6.9-1.42,10.45h8.68c-.08-.45-.15-.91-.19-1.39Z"/>
          <polygon class="cls-3" points="101.16 34.98 62.46 34.98 61.26 37.06 101.16 37.06 101.16 34.98"/>
          <path class="cls-6" d="m89.03,94.86c-2.59.02-4.86.08-7.41.07-.74,0-2.39-.1-3.77-.55-2.89-.93-5.45-2.72-7.08-5.39h-9.32c1.45,4.3,4.19,7.73,7.27,10.26-1.17.92-2.24,1.93-3.21,3.03h23.59c0-2.49.07-5.07-.06-7.43Z"/>
          <polygon class="cls-3" points="68.67 154.26 63.68 145.62 51.26 145.62 62.46 165.02 101.16 165.02 101.16 154.26 68.67 154.26"/>
          <polygon class="cls-3" points="101.16 42.03 58.39 42.03 56.39 45.5 101.16 45.5 101.16 42.03"/>
          <path class="cls-6" d="m96.51,67.2c-1.86-1.81-4.12-3.41-6.79-4.53-1.57-.66-3.42-1.14-5.26-1.39h-5.6c-5.96.81-10.77,3.85-14,7.97h29.78c.64-.67,1.27-1.34,1.88-2.05Z"/>
          <polygon class="cls-3" points="37.34 100 43.7 88.99 31.28 88.99 24.92 100 26.24 102.28 38.66 102.28 37.34 100"/>
          <polygon class="cls-3" points="65.83 50.65 53.41 50.65 50.34 55.97 62.76 55.97 65.83 50.65"/>
          <polygon class="cls-3" points="59.7 61.28 47.28 61.28 42.68 69.24 55.1 69.24 59.7 61.28"/>
          <polygon class="cls-3" points="51.81 125.06 39.39 125.06 50.13 143.66 62.55 143.66 51.81 125.06"/>
          <polygon class="cls-3" points="52.3 74.09 39.88 74.09 33.74 84.72 46.16 84.72 52.3 74.09"/>
          <path class="cls-6" d="m80.73,137.27c5.61.36,10.99-1.99,14.34-4.8.26-.22,1.17-.88,1.39-1.24l-5.78-6.17h-.26c-.22.2-.56.54-.64.61-1.94,1.66-4.24,2.78-7.21,3.02-3.99.32-7.52-1.15-10-3.63h-10.19c.86,1.87,1.95,3.54,3.17,4.93,3.36,3.85,8.09,6.82,15.17,7.27Z"/>
          <path class="cls-6" d="m68.93,116.95c-.32-5.13,2.01-8.75,5.08-10.96h-11.09c-1.18,2.17-2.02,4.65-2.36,7.53-.36,2.99-.06,5.83.68,8.41h9.07c-.78-1.51-1.26-3.2-1.37-4.98Z"/>
          <polygon class="cls-3" points="40.8 105.99 28.38 105.99 37.59 121.94 50.01 121.94 40.8 105.99"/>
        </g>
        <path class="cls-2" d="m132.5,103.37c.67-.13,1.47-.1,2.11-.08v-8.54c-8.45.45-13.26,5.57-15.9,11.7-2.64-6.13-7.45-11.25-15.9-11.7v8.54c.63-.02,1.44-.06,2.11.08,3.83.77,4.98,4.5,6.52,7.69.88,1.82,1.81,3.59,2.47,5.22-.82,1.66-1.73,3.47-2.68,5.35-.91,1.8-1.59,3.9-2.75,5.28-1.05,1.27-3.54,2.17-5.67,2.16v8.55c6.65.09,11.51-3.11,14.05-7.89.66-1.25,1.11-2.61,1.85-3.84.74,1.23,1.19,2.59,1.85,3.84,2.54,4.78,7.4,7.98,14.05,7.89v-8.55c-2.14.02-4.62-.89-5.67-2.16-1.15-1.39-1.84-3.48-2.75-5.28-.95-1.88-1.86-3.7-2.68-5.35.66-1.63,1.59-3.39,2.47-5.22,1.54-3.19,2.69-6.92,6.52-7.69Z"/>
      </g>
    </g>
  </g>
</svg>