<svg xmlns="http://www.w3.org/2000/svg" xmlns:xlink="http://www.w3.org/1999/xlink" viewBox="0 0 200 200"><defs><style>.cls-1{fill:none;}.cls-2{fill:#aaaaa8;}.cls-3{clip-path:url(#clip-path);}.cls-4{fill:#84888c;}</style><clipPath id="clip-path"><path class="cls-1" d="M137.54,165H62.46L24.92,100,62.46,35h75.08l37.54,65ZM68.67,154.26h62.66L162.66,100,131.33,45.73H68.67L37.34,100Zm63.83-50.89a9.39,9.39,0,0,1,2.11-.08V94.75c-8.45.45-13.26,5.58-15.9,11.7-2.65-6.12-7.45-11.25-15.9-11.7v8.54a9.3,9.3,0,0,1,2.1.08c3.83.77,5,4.5,6.52,7.68.88,1.82,1.81,3.59,2.47,5.22l-2.67,5.35c-.91,1.8-1.6,3.9-2.75,5.29s-3.54,2.17-5.67,2.15v8.55c6.64.09,11.51-3.11,14-7.89.67-1.25,1.11-2.61,1.86-3.84.74,1.23,1.19,2.59,1.85,3.84,2.54,4.78,7.4,8,14.05,7.89v-8.55c-2.14,0-4.62-.89-5.68-2.15s-1.84-3.49-2.74-5.29-1.86-3.7-2.68-5.35c.66-1.63,1.6-3.4,2.47-5.22C127.52,107.87,128.67,104.14,132.5,103.37ZM90.57,124.94c-.15.1-.68.65-.78.73a12.23,12.23,0,0,1-7.21,3A12.53,12.53,0,0,1,68.93,117a12.34,12.34,0,0,1,7.75-12.49c3.15-1.36,7.35-1,12.42-1,0-2.83.09-5.85-.07-8.57-2.58,0-4.86.08-7.41.06a13.83,13.83,0,0,1-3.77-.54A12.67,12.67,0,0,1,76.06,70.9a13,13,0,0,1,8.31-1,13.13,13.13,0,0,1,3.57,1.38c1,.6,1.88,1.4,2.81,2.05,1.86-2.12,3.92-4,5.76-6.17A21,21,0,0,0,80.8,61.09,21.22,21.22,0,0,0,61,87.65a22.56,22.56,0,0,0,7.69,11.6,20.55,20.55,0,0,0-8.17,14.27,21.42,21.42,0,0,0,5,16.47,21.25,21.25,0,0,0,29.51,2.47,8.88,8.88,0,0,0,1.4-1.23Z"/></clipPath></defs><g id="Layer_2" data-name="Layer 2"><g id="Backg_Layer_copy" data-name="Backg Layer copy"><rect class="cls-1" width="200" height="200"/></g><g id="_2_Tone_gray" data-name="2 Tone gray"><g id="explosive_atmosphere" data-name="explosive atmosphere"><path class="cls-2" d="M137.54,165H62.46L24.92,100,62.46,35h75.08l37.54,65ZM68.67,154.26h62.66L162.66,100,131.33,45.73H68.67L37.34,100Zm63.83-50.89a9.39,9.39,0,0,1,2.11-.08V94.75c-8.45.45-13.26,5.58-15.9,11.7-2.65-6.12-7.45-11.25-15.9-11.7v8.54a9.3,9.3,0,0,1,2.1.08c3.83.77,5,4.5,6.52,7.68.88,1.82,1.81,3.59,2.47,5.22l-2.67,5.35c-.91,1.8-1.6,3.9-2.75,5.29s-3.54,2.17-5.67,2.15v8.55c6.64.09,11.51-3.11,14-7.89.67-1.25,1.11-2.61,1.86-3.84.74,1.23,1.19,2.59,1.85,3.84,2.54,4.78,7.4,8,14.05,7.89v-8.55c-2.14,0-4.62-.89-5.68-2.15s-1.84-3.49-2.74-5.29-1.86-3.7-2.68-5.35c.66-1.63,1.6-3.4,2.47-5.22C127.52,107.87,128.67,104.14,132.5,103.37ZM90.57,124.94c-.15.1-.68.65-.78.73a12.23,12.23,0,0,1-7.21,3A12.53,12.53,0,0,1,68.93,117a12.34,12.34,0,0,1,7.75-12.49c3.15-1.36,7.35-1,12.42-1,0-2.83.09-5.85-.07-8.57-2.58,0-4.86.08-7.41.06a13.83,13.83,0,0,1-3.77-.54A12.67,12.67,0,0,1,76.06,70.9a13,13,0,0,1,8.31-1,13.13,13.13,0,0,1,3.57,1.38c1,.6,1.88,1.4,2.81,2.05,1.86-2.12,3.92-4,5.76-6.17A21,21,0,0,0,80.8,61.09,21.22,21.22,0,0,0,61,87.65a22.56,22.56,0,0,0,7.69,11.6,20.55,20.55,0,0,0-8.17,14.27,21.42,21.42,0,0,0,5,16.47,21.25,21.25,0,0,0,29.51,2.47,8.88,8.88,0,0,0,1.4-1.23Z"/><g class="cls-3"><path class="cls-4" d="M19.71,42h81.45V45.5H19.71Zm0-8.45v3.48h81.45V33.58Zm0,17.07V56h81.45V50.65Zm0,10.63v8h81.45v-8Zm0,12.81V84.72h81.45V74.09Zm0,14.9v13.29h81.45V89Zm0,17v16h81.45V106Zm0,19.07v18.6h81.45v-18.6Zm0,20.56v21.26h81.45V145.62Z"/></g><path class="cls-2" d="M132.5,103.37a9.39,9.39,0,0,1,2.11-.08V94.75c-8.45.45-13.26,5.58-15.9,11.7-2.65-6.12-7.45-11.25-15.9-11.7v8.54a9.3,9.3,0,0,1,2.1.08c3.83.77,5,4.5,6.52,7.68.88,1.82,1.81,3.59,2.47,5.22l-2.67,5.35c-.91,1.8-1.6,3.9-2.75,5.29s-3.54,2.17-5.67,2.15v8.55c6.64.09,11.51-3.11,14-7.89.67-1.25,1.11-2.61,1.86-3.84.74,1.23,1.19,2.59,1.85,3.84,2.54,4.78,7.4,8,14.05,7.89v-8.55c-2.14,0-4.62-.89-5.68-2.15s-1.84-3.49-2.74-5.29-1.86-3.7-2.68-5.35c.66-1.63,1.6-3.4,2.47-5.22C127.52,107.87,128.67,104.14,132.5,103.37Z"/></g></g></g></svg>