<?xml version="1.0" encoding="UTF-8"?><svg id="Layer_2" xmlns="http://www.w3.org/2000/svg" viewBox="0 0 200 200"><defs><style>.cls-1{fill:#fff;}.cls-2{fill:#d9d9db;}.cls-3{fill:none;}</style></defs><g id="dan_sanity"><rect class="cls-3" width="200" height="200"/><g><path class="cls-1" d="M99.86,33.37c-31.34,0-57.62,21.65-64.72,50.81h34.03v-2.94c0-2.45,2.7-4.46,6-4.46h18.06c3.3,0,6,2,6,4.46v2.94h13.42c13.2,0,23.93,10.74,23.93,23.93v17.69h-21.76v-17.69c0-1.18-1-2.18-2.18-2.18h-12.81c-1.79,6.98-8.1,12.14-15.64,12.14s-13.85-5.16-15.64-12.14H33.51c3.01,34.01,31.56,60.68,66.35,60.68,36.8,0,66.63-29.83,66.63-66.63s-29.83-66.63-66.63-66.63Zm-5.39,41.94h-20.55v-6.29h20.55v6.29Zm6.06-12.9c-2.41,0-4.51-1.35-5.58-3.33h-5.97v8.33h-9.58v-8.33h-5.3c-1.07,1.98-3.17,3.33-5.58,3.33-3.5,0-6.33-2.83-6.33-6.33s2.84-6.33,6.33-6.33c2.41,0,4.51,1.35,5.58,3.33h5.3v-1.83h9.58v1.83h5.97c1.07-1.98,3.17-3.33,5.58-3.33,3.5,0,6.33,2.83,6.33,6.33s-2.84,6.33-6.33,6.33Zm25.6,92.87c-5.18,0-9.37-4.3-9.37-9.62s9.37-15.97,9.37-15.97c0,0,9.38,10.66,9.38,15.97s-4.2,9.62-9.38,9.62Z"/><path class="cls-2" d="M87.61,42.69h-21.73c-1.81,1.08-3.57,2.24-5.26,3.47h26.99v-3.47Z"/><path class="cls-2" d="M74.11,53.08h5.3v-1.77h-6.73c.57,.5,1.06,1.09,1.43,1.77Z"/><path class="cls-2" d="M64.37,51.32h-9.97c-1.79,1.68-3.49,3.45-5.09,5.31h12.92c-.02-.18-.03-.36-.03-.55,0-1.9,.84-3.61,2.17-4.77Z"/><path class="cls-2" d="M87.61,69.02v-1.61h-8.21v-5.47h-8.49c-.74,.3-1.54,.48-2.39,.48s-1.66-.17-2.41-.48h-20.93c-1.77,2.53-3.36,5.19-4.76,7.97h33.49v-.89h13.69Z"/><path class="cls-2" d="M69.17,81.25c0-2.45,2.7-4.46,6-4.46h12.45v-1.48h-13.69v-.56H38.2c-1.25,3.04-2.25,6.19-3.04,9.43h34.01v-2.94Z"/><path class="cls-2" d="M68.55,105.94H33.53c.51,5.8,1.75,11.38,3.65,16.66h50.44v-4.89c-1.1,.24-2.24,.38-3.42,.38-7.54,0-13.85-5.16-15.64-12.14Z"/><path class="cls-2" d="M50.13,144.32h37.48v-18.6H38.39c2.87,6.86,6.87,13.13,11.74,18.6Z"/><path class="cls-2" d="M87.61,34.52c-3.94,.73-7.76,1.81-11.43,3.2h11.43v-3.2Z"/><path class="cls-2" d="M60.77,153.94c7.83,5.69,16.95,9.71,26.84,11.54v-19.2H51.96c2.43,2.51,5.44,5.12,8.81,7.65Z"/></g></g></svg>