<?xml version="1.0" encoding="utf-8"?>
<!-- Generator: Adobe Illustrator 27.1.1, SVG Export Plug-In . SVG Version: 6.00 Build 0)  -->
<svg version="1.1" id="Layer_1" xmlns="http://www.w3.org/2000/svg" xmlns:xlink="http://www.w3.org/1999/xlink" x="0px" y="0px"
	 viewBox="0 0 200 200" style="enable-background:new 0 0 200 200;" xml:space="preserve">
<style type="text/css">
	.st0{fill:none;}
	.st1{fill:#FFFFFF;}
	.st2{fill:#D9D9DB;}
</style>
<g id="Layer_2_00000166659062532976377670000000599106310832067256_">
	<g id="Backg_Layer_copy">
		<rect class="st0" width="200" height="200"/>
	</g>
	<g id="Whiteout">
		<g id="concrete_construction">
			<path class="st1" d="M127,113.2l-11.1-43.8c-7.6,3.4-14.4,8.4-19.9,14.6l1,3.8l-3,0.8l4.7,18.3l3-0.8l1,3.8
				C110.4,112.7,118.7,113.8,127,113.2z"/>
			<path class="st1" d="M161.7,71.1l-4.3-7.4c-9.9-0.9-19.8-0.3-29.5,1.9l11.5,45.3c9.5-2.7,18.6-6.9,26.8-12.4l0.2-8.6l3.9-2.7
				l-2-7.8l-2-7.8L161.7,71.1z"/>
			<path class="st1" d="M59.5,131.8c-9.8,0-17.7,7.9-17.7,17.7s7.9,17.7,17.7,17.8s17.7-7.9,17.7-17.7c0,0,0,0,0,0
				C77.3,139.8,69.3,131.8,59.5,131.8z M59.5,158.5c-4.9,0-8.9-4-8.9-8.9c0-4.9,4-8.9,8.9-8.9c4.9,0,8.9,4,8.9,8.9c0,0,0,0,0,0
				C68.4,154.5,64.5,158.5,59.5,158.5z"/>
			<path class="st1" d="M139.1,131.8c-9.8,0-17.7,7.9-17.7,17.7c0,9.8,7.9,17.7,17.7,17.7c9.8,0,17.7-7.9,17.7-17.7
				S148.9,131.8,139.1,131.8L139.1,131.8z M139.1,158.5c-4.9,0-8.9-4-8.9-8.9s4-8.9,8.9-8.9c4.9,0,8.9,4,8.9,8.9c0,0,0,0,0,0
				C148,154.5,144.1,158.5,139.1,158.5C139.1,158.5,139.1,158.5,139.1,158.5z"/>
			<path class="st1" d="M160.7,119.3h-12.3V112h-8.8v7.3h-37.9V112H93v7.3H77.9V87.1H45.7l-14.8,32.2h-1.3v23.4h7.6
				c3.8-12.4,16.9-19.3,29.2-15.5c7.4,2.3,13.3,8.1,15.5,15.5h34.8c3.8-12.4,16.9-19.3,29.2-15.5c7.4,2.3,13.3,8.1,15.5,15.5h7.1
				L160.7,119.3z"/>
			<polygon class="st2" points="77.9,90.4 44.2,90.4 40,99.4 77.9,99.4 			"/>
			<polygon class="st2" points="77.9,103.4 38.2,103.4 33.2,114.4 77.9,114.4 			"/>
			<path class="st2" d="M92.9,119.3h-15v-1.9H31.8l-0.9,1.9h-1.3v11.1h16.5c8-5.7,18.8-5.7,26.8,0h19.9V119.3z"/>
			<path class="st2" d="M75.4,132.4c3,2.8,5.3,6.4,6.5,10.3h11v-10.3H75.4z"/>
			<path class="st2" d="M29.6,142.7h7.6c1.2-3.9,3.5-7.5,6.5-10.3H29.6V142.7z"/>
			<path class="st2" d="M50.7,148.4c0.6-4.9,5.1-8.3,10-7.7c4,0.5,7.2,3.7,7.7,7.7h8.8c-0.7-9.8-9.1-17.1-18.9-16.5
				c-8.8,0.6-15.9,7.6-16.5,16.5H50.7z"/>
			<path class="st2" d="M68.4,149.6c0.2,4.9-3.7,9-8.6,9.2s-9-3.7-9.2-8.6c0-0.2,0-0.4,0-0.6c0,0,0-0.1,0-0.1h-8.8
				c0,0.1,0,0.1,0,0.1c0,9.8,7.9,17.7,17.7,17.7s17.7-7.9,17.7-17.7c0,0,0-0.1,0-0.1h-8.8C68.4,149.5,68.4,149.5,68.4,149.6z"/>
		</g>
	</g>
</g>
</svg>
