<svg xmlns="http://www.w3.org/2000/svg" viewBox="0 0 200 200"><defs><style>.cls-1{fill:none;}.cls-2{fill:#1790b0;}.cls-3{fill:#006d95;}</style></defs><g id="Layer_2" data-name="Layer 2"><g id="Backg_Layer_copy" data-name="Backg Layer copy"><rect class="cls-1" width="200" height="200"/></g><g id="_2_tone_blue" data-name="2 tone blue"><g id="liquids"><path class="cls-2" d="M98,125.72v-26a3.5,3.5,0,0,1,3.5-3.5H128C115.65,70.29,87.28,38.85,87.28,38.85S41,90.18,41,115.75a46.32,46.32,0,0,0,90.63,13.47H101.53A3.5,3.5,0,0,1,98,125.72Z"/><path class="cls-2" d="M140.26,37.94s-17.14,19-17.14,28.46a17.15,17.15,0,1,0,34.29,0C157.41,56.93,140.26,37.94,140.26,37.94Z"/><path class="cls-3" d="M89,40.83l-1.69-1.91h-.11c-.25.27-1.34,1.5-3,3.47H89Z"/><path class="cls-3" d="M89,47.55H79.82c-1.33,1.6-2.79,3.38-4.34,5.31H89Z"/><path class="cls-3" d="M89,58.17H71.28c-2,2.51-4,5.18-6,8H89Z"/><path class="cls-3" d="M89,71H61.8c-2.43,3.46-4.82,7-7.08,10.63H89Z"/><path class="cls-3" d="M89,85.88H52.13a122.68,122.68,0,0,0-6.89,13.29H89Z"/><path class="cls-3" d="M89,102.88H43.75A38.05,38.05,0,0,0,41,115.75c0,1,.05,2.06.11,3.08H89Z"/><path class="cls-3" d="M89,122H41.4a45.84,45.84,0,0,0,6.78,18.6H89Z"/><path class="cls-3" d="M49.5,142.51a46.22,46.22,0,0,0,37.78,19.55c.59,0,1.17,0,1.75,0V142.51Z"/><path class="cls-2" d="M159,125.5a6.5,6.5,0,0,1-6.5,6.5h-51a6.5,6.5,0,0,1-6.5-6.5v-26a6.5,6.5,0,0,1,6.5-6.5h51a6.5,6.5,0,0,1,6.5,6.5Zm-3-26a3.5,3.5,0,0,0-3.5-3.5h-51A3.5,3.5,0,0,0,98,99.5v26a3.5,3.5,0,0,0,3.5,3.5h51a3.5,3.5,0,0,0,3.5-3.5Z"/><path class="cls-3" d="M111.75,112.72a13.09,13.09,0,0,1,1.24,1.17l-.44,4.43L111,120a2.09,2.09,0,0,1-.57-1.11l.65-5.65S111.58,112.68,111.75,112.72Zm.42-7.2,1.51,1.63-.44,3.93s-1.36,1.09-1.45,1.09-.58-.82-.58-.82l.52-5.1C111.94,105.64,112.17,105.52,112.17,105.52Zm6,15H112a1.37,1.37,0,0,1-.77-.36l1.53-1.59h4.53l1.47,1.55S118.43,120.55,118.22,120.55Zm-.44-7h-4.7s-1.08-.89-1.08-1.06a9.57,9.57,0,0,1,1.24-1h4.68a6,6,0,0,1,.93,1C118.85,112.61,117.78,113.52,117.78,113.52Zm-4.69-8.59H119s.7.19.72.42a12.94,12.94,0,0,1-1.43,1.68H114.1l-1.63-1.79A1,1,0,0,1,113.09,104.93Zm5.93,14.9a16.72,16.72,0,0,1-1.52-1.53l.51-4.55s1-1.07,1.2-1a4.16,4.16,0,0,1,.92.65l-.61,5.71S119.56,119.35,119,119.83Zm1.51-.71h2.1l-.17,1.85h-2ZM126,104.93h5.88s.69.19.71.42a12.94,12.94,0,0,1-1.43,1.68H127l-1.64-1.79A1,1,0,0,1,126,104.93Zm5.92,14.9a16.5,16.5,0,0,1-1.51-1.53l.5-4.55s1-1.07,1.2-1a4.16,4.16,0,0,1,.92.65l-.61,5.71S132.48,119.35,131.93,119.83Zm.23-7.53a6.85,6.85,0,0,1-1.15-1.1l.52-4a10.81,10.81,0,0,1,1.45-1.53c.23,0,.63.8.63.8l-.59,5.21S132.31,112.32,132.16,112.3Zm4.06.42a14.43,14.43,0,0,1,1.24,1.17l-.45,4.43L135.44,120a2.16,2.16,0,0,1-.57-1.11l.65-5.65S136.05,112.68,136.22,112.72Zm.42-7.2,1.51,1.63-.44,3.93s-1.37,1.09-1.45,1.09-.59-.82-.59-.82l.53-5.1C136.41,105.64,136.64,105.52,136.64,105.52Zm6,15h-6.21a1.42,1.42,0,0,1-.78-.36l1.53-1.59h4.54l1.47,1.55S142.89,120.55,142.68,120.55Zm-5.12-15.62h5.88s.69.19.71.42a12.94,12.94,0,0,1-1.43,1.68h-4.15l-1.64-1.79A1,1,0,0,1,137.56,104.93Zm5.92,14.9A16.5,16.5,0,0,1,142,118.3l.5-4.55s1-1.07,1.2-1a4.16,4.16,0,0,1,.92.65l-.61,5.71S144,119.35,143.48,119.83Zm.23-7.53a6.85,6.85,0,0,1-1.15-1.1l.52-4a10.81,10.81,0,0,1,1.45-1.53c.23,0,.63.8.63.8l-.59,5.21S143.86,112.32,143.71,112.3ZM105.19,98.72h-4.25v1.75h4.25Zm5.75,0h-4.25v1.75h4.25Zm41.5,25.12h-4.25v1.75h4.25Z"/></g></g></g></svg>