<svg xmlns="http://www.w3.org/2000/svg" viewBox="0 0 200 200"><defs><style>.cls-1{fill:none;}.cls-2{fill:#fff;}.cls-3{fill:#d9d9db;}</style></defs><g id="Layer_2" data-name="Layer 2"><g id="Backg_Layer_copy" data-name="Backg Layer copy"><rect class="cls-1" width="200" height="200"/></g><g id="Whiteout"><g id="milling_grinding" data-name="milling grinding"><path class="cls-2" d="M135.44,63.42c0,4.46-17.16,8.08-38.34,8.08s-38.33-3.62-38.33-8.08,17.16-8.09,38.33-8.09S135.44,59,135.44,63.42ZM97.1,57C81,57,68,59.63,68,62.86s13,5.85,29.15,5.85,29.16-2.62,29.16-5.85S113.21,57,97.1,57Zm0,76.05c-15.48,0-30.06-1.79-41-5a52.85,52.85,0,0,1-7.79-2.92v19.55h97.67V125.1a52.85,52.85,0,0,1-7.79,2.92C127.17,131.27,112.59,133.06,97.1,133.06Zm38.34-43V68.25h-.31C132.71,72,116.61,75,97.1,75s-35.6-2.92-38-6.7h-.31V90.09c-11.19,3.07-18.19,7.46-18.19,12.34V116c1.23,3.42,7.36,6.91,16.23,9.53s20,4.26,32.15,4.77V121s-.52-1.18-1.44-2.8a126.07,126.07,0,0,1-28.35-4.41c-10.76-3.2-16.44-7.47-16.44-12.34h.6c0,3.53,5.86,7.68,15.07,10.42,7.33,2.17,17.25,3.4,27.61,3.89-1.57-2.3-3.66-4.75-6.07-5.92-9.75-1.76-17.93-4.84-20.8-8.25V100c1.57,1.5,4.42,3.92,11.19,5.71a108.8,108.8,0,0,0,26.77,3.09,108.83,108.83,0,0,0,26.78-3.09c6.77-1.79,9.62-4.21,11.19-5.71v1.57c-2.52,3-9.13,5.73-17.31,7.55h0q-1.07.24-2.16.45c-2.63,1-4.92,3.65-6.6,6.13,10.08-.52,19.69-1.74,26.84-3.86,9.21-2.74,15.07-6.89,15.07-10.42h.6c0,4.87-5.68,9.14-16.44,12.34a125.21,125.21,0,0,1-27.59,4.37C106.52,119.8,106,121,106,121v9.23c11.85-.55,22.78-2.18,31.4-4.74,8.87-2.62,15-6.11,16.23-9.53V102.43C153.63,97.55,146.63,93.16,135.44,90.09Zm18.19,28.63v.41a16.88,16.88,0,0,1-6.33,5.29v39.4h15.43v-45.1Zm-113,.41v-.41H31.36v45.1H46.79V124.35A16.61,16.61,0,0,1,40.58,119.13Z"/><path class="cls-2" d="M165,39.93c0-3.5-3.9-3.75-5.25-3.75s-5.26.25-5.26,3.75,1.33,7.22,1.33,15.08-1.33,11.17-1.33,13.07c0,2.87,5.26,2.83,5.26,2.83S165,71,165,68.08c0-1.9-1.33-5.21-1.33-13.07S165,43.42,165,39.93Z"/><path class="cls-2" d="M164.94,71.92H153.17a10.08,10.08,0,0,0-5.48,1.51,10.09,10.09,0,0,1-5.49,1.51h-4.48c-1.59,0-3.22,2.17-4.13,2.4v5.9c.91.23,2.54,2.4,4.13,2.4h4.48a10.09,10.09,0,0,1,5.49,1.51,10.08,10.08,0,0,0,5.48,1.51h11.77a3.7,3.7,0,0,0,3.7-3.7V75.62A3.71,3.71,0,0,0,164.94,71.92Z"/><rect class="cls-2" x="156.51" y="67.45" width="6.38" height="5.99"/><path class="cls-2" d="M87.9,161.27a2.42,2.42,0,1,0-2.42,2.42A2.41,2.41,0,0,0,87.9,161.27Z"/><path class="cls-2" d="M93.64,154.18a2.42,2.42,0,1,0-2.42,2.42A2.41,2.41,0,0,0,93.64,154.18Z"/><path class="cls-2" d="M99.37,161.27A2.41,2.41,0,1,0,97,163.69,2.41,2.41,0,0,0,99.37,161.27Z"/><path class="cls-2" d="M99.37,148.44A2.41,2.41,0,1,0,97,150.86,2.4,2.4,0,0,0,99.37,148.44Z"/><path class="cls-2" d="M105.11,154.18a2.41,2.41,0,1,0-2.41,2.41A2.4,2.4,0,0,0,105.11,154.18Z"/><path class="cls-2" d="M110.85,161.27a2.41,2.41,0,1,0-2.41,2.42A2.41,2.41,0,0,0,110.85,161.27Z"/><path class="cls-2" d="M97.19,116.49c-2.88,0-5.79,0-8.66-.14.45.48.85,1,1.18,1.37q3.67.14,7.48.14c2.74,0,5.44-.06,8.07-.17.33-.41.73-.88,1.19-1.37C103.38,116.44,100.27,116.49,97.19,116.49Z"/><path class="cls-3" d="M48.27,125.1v2.63h6.87A51.19,51.19,0,0,1,48.27,125.1Z"/><path class="cls-3" d="M68,62.86a1.58,1.58,0,0,1,.41-1h-8.9a2.31,2.31,0,0,0-.69,1.54c0,1.2,1.26,2.34,3.5,3.37H75.54C70.82,65.75,68,64.37,68,62.86Z"/><path class="cls-3" d="M88.76,74.77c-9.44-.42-17.57-1.54-23-3.07h-7v7.35h30Z"/><path class="cls-3" d="M88.76,83.53h-30v6.56a60.62,60.62,0,0,0-9.21,3.26h39.2Z"/><path class="cls-3" d="M43.28,97.29a7.16,7.16,0,0,0-2.7,5.14v7.14h8.35c-4.08-2.41-6.2-5.15-6.2-8.12h.6c0,2.64,3.29,5.64,8.81,8.12H78.53c-9.12-1.8-16.66-4.74-19.39-8V100c1.57,1.5,4.42,3.92,11.19,5.71a98.82,98.82,0,0,0,18.43,2.81V97.29Z"/><path class="cls-3" d="M40.58,116c1.23,3.42,7.36,6.91,16.23,9.53,2.88.86,6,1.6,9.38,2.24H88.76v-7.16c-.23-.48-.65-1.33-1.24-2.37a126.07,126.07,0,0,1-28.35-4.41c-.86-.26-1.67-.52-2.46-.79H40.58Z"/><path class="cls-3" d="M40.58,119.13v-.41H31.36v9H46.79v-3.38A16.61,16.61,0,0,1,40.58,119.13Z"/><path class="cls-3" d="M86,115.76A25.91,25.91,0,0,0,83.87,113H62.82A142.25,142.25,0,0,0,86,115.76Z"/><rect class="cls-3" x="31.36" y="130.62" width="15.44" height="17.18"/><path class="cls-3" d="M67.25,130.62h-19v14H88.76V132.88A162.9,162.9,0,0,1,67.25,130.62Z"/><rect class="cls-3" x="31.36" y="149.61" width="15.44" height="14.21"/><polygon class="cls-2" points="102.83 133.56 90.48 133.38 90.07 124.36 91.92 124.27 92.25 131.55 102.86 131.71 102.83 133.56"/><path class="cls-2" d="M109.91,43.75a3.45,3.45,0,1,0,3.44-3.44A3.45,3.45,0,0,0,109.91,43.75Z"/><path class="cls-2" d="M101.71,53.88a3.45,3.45,0,1,0,3.45-3.45A3.44,3.44,0,0,0,101.71,53.88Z"/><path class="cls-2" d="M93.52,43.75A3.45,3.45,0,1,0,97,40.31,3.45,3.45,0,0,0,93.52,43.75Z"/><path class="cls-2" d="M93.52,62.07A3.45,3.45,0,1,0,97,58.62,3.44,3.44,0,0,0,93.52,62.07Z"/><path class="cls-2" d="M85.32,53.88a3.45,3.45,0,1,0,3.45-3.45A3.44,3.44,0,0,0,85.32,53.88Z"/><path class="cls-2" d="M77.13,43.75a3.45,3.45,0,1,0,3.44-3.44A3.45,3.45,0,0,0,77.13,43.75Z"/></g></g></g></svg>