<?xml version="1.0" encoding="UTF-8"?>
<svg id="Layer_2" data-name="Layer 2" xmlns="http://www.w3.org/2000/svg" viewBox="0 0 200 200">
  <defs>
    <style>
      .cls-1 {
        fill: #fff;
      }

      .cls-2 {
        fill: #f35000;
      }

      .cls-3 {
        fill: #f28c00;
      }

      .cls-4 {
        fill: none;
      }

      .cls-5 {
        fill: #ffcd00;
      }
    </style>
  </defs>
  <g id="Layer_1-2" data-name="Layer 1">
    <g id="Layer_2-2" data-name="Layer 2">
      <g id="Backg_Layer_copy" data-name="Backg Layer copy">
        <rect class="cls-4" width="200" height="200"/>
      </g>
      <g>
        <path class="cls-1" d="m107.56,128.29V46.76c0-.23.07-.51.06-.7-.44-.23-1.96-.79-7.02-.79s-6.62.56-7.06.79c-.01.19.02.48.02.7v81.53c0,1.91-.7,3.78-1.89,5.27-1.67,2.07-2.58,4.56-2.58,7.21,0,6.34,5.15,11.51,11.5,11.51s11.49-5.16,11.49-11.51c0-2.65-.92-5.14-2.58-7.2-1.2-1.49-1.93-3.36-1.93-5.27Zm-6.95,20.98c-4.69,0-8.5-3.82-8.5-8.51,0-1.95.67-3.79,1.9-5.32,1.63-2.02,2.55-4.56,2.55-7.15V55.09h8v73.2c0,2.59.97,5.13,2.6,7.15,1.23,1.53,1.96,3.37,1.96,5.32,0,4.69-3.81,8.51-8.5,8.51Zm14.95-100.18h20v2h-20v-2Zm0,7h7v2h-7v-2Zm0,8h7v2h-7v-2Zm0,8h7v2h-7v-2Zm0,15h7v2h-7v-2Zm0,7h7v2h-7v-2Zm0,8h7v2h-7v-2Zm-14.95,56.18c-9.65,0-17.5-7.85-17.5-17.51,0-4.03,1.35-7.82,3.89-10.97.34-.43.56-.96.56-1.51V46.76c0-6.3,4.5-7.49,13-7.49s13,1.19,13,7.49v81.53c0,.55.26,1.08.6,1.51,2.54,3.15,3.95,6.94,3.95,10.97,0,9.65-7.85,17.51-17.5,17.51Zm26.95-47.18h-12v-2h12v2Zm0-30h-12v-2h12v2Zm11-15v14h-6v-14h-5.53l8.48-12.9,8.48,12.9h-5.44Z"/>
        <g>
          <path class="cls-5" d="m107.56,128.29V46.76c0-.23.07-.51.06-.7-.44-.23-1.96-.79-7.02-.79s-6.62.56-7.06.79c-.01.19.02.48.02.7v81.53c0,1.91-.7,3.78-1.89,5.27-1.67,2.07-2.58,4.56-2.58,7.21,0,6.34,5.15,11.51,11.5,11.51s11.49-5.16,11.49-11.51c0-2.65-.92-5.14-2.58-7.2-1.2-1.49-1.93-3.36-1.93-5.27Zm-6.95,20.98c-4.69,0-8.5-3.82-8.5-8.51,0-1.95.67-3.79,1.9-5.32,1.63-2.02,2.55-4.56,2.55-7.15V55.09h8v73.2c0,2.59.97,5.13,2.6,7.15,1.23,1.53,1.96,3.37,1.96,5.32,0,4.69-3.81,8.51-8.5,8.51Z"/>
          <path class="cls-5" d="m100.5,33.87c-36.79,0-66.62,29.83-66.62,66.63s29.83,66.63,66.62,66.63,66.63-29.83,66.63-66.63-29.83-66.63-66.63-66.63Zm15.06,15.22h20v2h-20v-2Zm0,7h7v2h-7v-2Zm0,8h7v2h-7v-2Zm0,8h7v2h-7v-2Zm0,15h7v2h-7v-2Zm0,7h7v2h-7v-2Zm0,8h7v2h-7v-2Zm-14.95,56.18c-9.65,0-17.5-7.85-17.5-17.51,0-4.03,1.35-7.82,3.89-10.97.34-.43.56-.96.56-1.51V46.76c0-6.3,4.5-7.49,13-7.49s13,1.19,13,7.49v81.53c0,.55.26,1.08.6,1.51,2.54,3.15,3.95,6.94,3.95,10.97,0,9.65-7.85,17.51-17.5,17.51Zm26.95-47.18h-12v-2h12v2Zm0-30h-12v-2h12v2Zm11-15v14h-6v-14h-5.53l8.48-12.9,8.48,12.9h-5.44Z"/>
        </g>
        <g>
          <path class="cls-3" d="m89.4,34.81c-4.35.73-8.56,1.88-12.58,3.41h12.58v-3.41Z"/>
          <path class="cls-3" d="m66.52,43.19c-1.81,1.08-3.57,2.24-5.26,3.47h26.3c.01-1.4.26-2.54.71-3.47h-21.75Z"/>
          <path class="cls-3" d="m55.04,51.82c-1.79,1.68-3.49,3.45-5.09,5.31h37.62v-5.31h-32.52Z"/>
          <path class="cls-3" d="m45.83,62.44c-1.77,2.53-3.36,5.19-4.76,7.97h46.5v-7.97h-41.73Z"/>
          <path class="cls-3" d="m38.84,75.25c-1.4,3.41-2.52,6.96-3.34,10.63h52.06v-10.63h-48.72Z"/>
          <path class="cls-3" d="m34.68,90.15c-.53,3.37-.8,6.83-.8,10.35,0,.99.03,1.97.07,2.95h53.61v-13.29h-52.88Z"/>
          <path class="cls-3" d="m34.21,107.15c.55,5.54,1.78,10.89,3.61,15.95h49.75v-15.95h-53.35Z"/>
          <path class="cls-3" d="m87,129.8c.34-.43.56-.96.56-1.51v-2.07h-48.53c2.87,6.86,6.87,13.13,11.74,18.6h32.83c-.31-1.3-.49-2.66-.49-4.05,0-4.03,1.35-7.82,3.89-10.97Z"/>
          <path class="cls-3" d="m84.19,146.78h-31.59c9.68,10.01,22.46,17,36.8,19.4v-11.99c-2.33-1.95-4.14-4.5-5.2-7.41Z"/>
        </g>
        <path class="cls-1" d="m100.61,158.27c-9.65,0-17.5-7.85-17.5-17.51,0-4.03,1.35-7.82,3.89-10.97.34-.43.56-.96.56-1.51V46.76c0-6.3,4.5-7.49,13-7.49s13,1.19,13,7.49v81.53c0,.55.26,1.08.6,1.51,2.54,3.15,3.95,6.94,3.95,10.97,0,9.65-7.85,17.51-17.5,17.51Z"/>
        <path class="cls-5" d="m107.56,128.29V46.76c0-.23.07-.51.06-.7-.44-.23-1.96-.79-7.02-.79s-6.62.56-7.06.79c-.01.19.02.48.02.7v81.53c0,1.91-.7,3.78-1.89,5.27-1.67,2.07-2.58,4.56-2.58,7.21,0,6.34,5.15,11.51,11.5,11.51s11.49-5.16,11.49-11.51c0-2.65-.92-5.14-2.58-7.2-1.2-1.49-1.93-3.36-1.93-5.27Z"/>
        <path class="cls-1" d="m100.61,149.27c-4.69,0-8.5-3.82-8.5-8.51,0-1.95.67-3.79,1.9-5.32,1.63-2.02,2.55-4.56,2.55-7.15V55.09h8v73.2c0,2.59.97,5.13,2.6,7.15,1.23,1.53,1.96,3.37,1.96,5.32,0,4.69-3.81,8.51-8.5,8.51Z"/>
        <rect class="cls-1" x="115.56" y="49.09" width="20" height="2"/>
        <rect class="cls-1" x="115.56" y="56.09" width="7" height="2"/>
        <rect class="cls-1" x="115.56" y="64.09" width="7" height="2"/>
        <rect class="cls-1" x="115.56" y="72.09" width="7" height="2"/>
        <rect class="cls-1" x="115.56" y="87.09" width="7" height="2"/>
        <rect class="cls-1" x="115.56" y="94.09" width="7" height="2"/>
        <rect class="cls-1" x="115.56" y="102.09" width="7" height="2"/>
        <rect class="cls-1" x="115.56" y="109.09" width="12" height="2"/>
        <rect class="cls-1" x="115.56" y="79.09" width="12" height="2"/>
        <polygon class="cls-1" points="138.56 66.09 138.56 80.09 132.56 80.09 132.56 66.09 127.03 66.09 135.52 53.19 144 66.09 138.56 66.09"/>
        <path class="cls-2" d="m100.61,149.27c-4.69,0-8.5-3.82-8.5-8.51,0-1.95.67-3.79,1.9-5.32,1.63-2.02,2.55-4.56,2.55-7.15V55.09h8v73.2c0,2.59.97,5.13,2.6,7.15,1.23,1.53,1.96,3.37,1.96,5.32,0,4.69-3.81,8.51-8.5,8.51Z"/>
      </g>
    </g>
  </g>
</svg>