<?xml version="1.0" encoding="UTF-8"?><svg id="Layer_2" xmlns="http://www.w3.org/2000/svg" viewBox="0 0 200 200"><defs><style>.cls-1{fill:#fff;}.cls-2{fill:#d9d9db;}.cls-3{fill:none;}</style></defs><g id="dan_sanity"><rect class="cls-3" width="200" height="200"/><path class="cls-1" d="M74.38,96.5l-9.38-9.38c-1.34,.64-2.84,1.01-4.42,1.01-5.69,0-10.3-4.61-10.3-10.3s4.61-10.3,10.3-10.3,10.3,4.61,10.3,10.3c0,1.54-.35,3-.95,4.31l14.35,14.35h11.55v-15.2l8.62-8.62v-10.55c-3.9-1.47-6.67-5.22-6.67-9.63,0-5.69,4.61-10.3,10.3-10.3s10.3,4.61,10.3,10.3c0,4.5-2.89,8.32-6.92,9.72v13.36l-8.62,8.62v12.3h32.33v-11.9c-4.09-1.36-7.05-5.21-7.05-9.76,0-5.69,4.61-10.3,10.3-10.3s10.3,4.61,10.3,10.3c0,4.36-2.72,8.08-6.55,9.58v12.09h24.37c-1.82-35.17-30.91-63.13-66.53-63.13S35.29,61.33,33.47,96.5h40.92Z"/><path class="cls-1" d="M116.86,103.5l16.93,16.93c1.37-.67,2.91-1.06,4.54-1.06,5.69,0,10.3,4.61,10.3,10.3s-4.61,10.3-10.3,10.3-10.3-4.61-10.3-10.3c0-1.5,.33-2.91,.9-4.19l-21.97-21.97h-3.47v24.28l-9.41,9.41c.51,1.22,.79,2.56,.79,3.97,0,5.69-4.61,10.3-10.3,10.3s-10.3-4.61-10.3-10.3,4.61-10.3,10.3-10.3c1.72,0,3.33,.43,4.76,1.17l7.16-7.16v-21.38h-32v8.55c3.65,1.58,6.21,5.22,6.21,9.45,0,5.69-4.61,10.3-10.3,10.3s-10.3-4.61-10.3-10.3c0-4.67,3.11-8.61,7.38-9.87v-8.13h-24.03c1.82,35.17,30.91,63.13,66.53,63.13s64.71-27.96,66.53-63.13h-49.67Z"/><g><path class="cls-2" d="M87.75,42.69h-21.73c-1.81,1.08-3.57,2.24-5.26,3.47h26.99v-3.47Z"/><path class="cls-2" d="M87.75,51.32H54.53c-1.79,1.68-3.5,3.45-5.1,5.31h38.32v-5.31Z"/><path class="cls-2" d="M60.59,67.54c2.5,0,4.78,.89,6.56,2.37h20.6v-7.97H45.33c-1.77,2.53-3.36,5.19-4.77,7.97h13.46c1.78-1.48,4.07-2.37,6.57-2.37Z"/><path class="cls-2" d="M50.29,77.84c0-1.07,.17-2.11,.47-3.08h-12.43c-1.4,3.41-2.5,6.96-3.32,10.63h18.6c-2.03-1.88-3.31-4.56-3.31-7.55Z"/><path class="cls-2" d="M69.93,82.15l3.24,3.24h14.58v-10.63h-17.34c.31,.97,.47,2.01,.47,3.08,0,1.54-.35,3-.95,4.31Z"/><path class="cls-2" d="M74.38,96.5l-6.85-6.85H34.18c-.35,2.25-.6,4.53-.72,6.85h40.92Z"/><polygon class="cls-2" points="77.43 89.65 84.28 96.5 87.75 96.5 87.75 89.65 77.43 89.65"/><path class="cls-2" d="M50.12,121.5c0-4.67,3.11-8.61,7.38-9.87v-4.98h-23.79c.55,5.54,1.78,10.89,3.6,15.95h12.87c-.04-.36-.06-.73-.06-1.1Z"/><path class="cls-2" d="M70.71,121.5c0,.37-.02,.74-.06,1.1h17.1v-15.95h-23.25v5.39c3.65,1.58,6.21,5.22,6.21,9.45Z"/><path class="cls-2" d="M74.29,141.17c0-5.69,4.61-10.3,10.3-10.3,1.11,0,2.17,.19,3.17,.52v-5.67h-17.95c-1.61,3.58-5.2,6.07-9.38,6.07s-7.77-2.49-9.38-6.07h-12.5c2.87,6.86,6.86,13.13,11.74,18.6h24.51c-.32-1-.5-2.05-.5-3.16Z"/><path class="cls-2" d="M87.75,34.52c-.06,.01-.12,.02-.18,.03-3.88,.73-7.63,1.81-11.24,3.18h11.42v-3.2Z"/><path class="cls-2" d="M87.75,150.96c-1,.32-2.06,.5-3.17,.5-3.82,0-7.15-2.09-8.93-5.18h-23.57c9.41,9.75,21.77,16.62,35.65,19.2,0,0,.01,0,.02,0v-14.52Z"/></g></g></svg>