<?xml version="1.0" encoding="UTF-8"?>
<svg id="Layer_2" data-name="Layer 2" xmlns="http://www.w3.org/2000/svg" viewBox="0 0 200 200">
  <defs>
    <style>
      .cls-1 {
        fill: #fff;
      }

      .cls-2 {
        fill: #299cd3;
      }

      .cls-3 {
        fill: #f35000;
      }

      .cls-4 {
        fill: none;
      }

      .cls-5 {
        fill: #05589b;
      }
    </style>
  </defs>
  <g id="Layer_1-2" data-name="Layer 1">
    <g id="Layer_2-2" data-name="Layer 2">
      <g id="Backg_Layer_copy" data-name="Backg Layer copy">
        <rect class="cls-4" width="200" height="200"/>
      </g>
      <g>
        <path class="cls-1" d="m132.87,85.96c-.32,1.07-2.57,7.1-16.48,24-5.15,6.26-10.23,11.98-13.33,15.4h-4.97c-3.08-3.4-8.12-9.08-13.25-15.33-13.94-16.95-16.23-23-16.56-24.08v-16.97h64.58v16.98Z"/>
        <path class="cls-2" d="m157.12,119.32l-.13-.11V49.75c0-7.44-6.06-13.5-13.5-13.5h-16c-7.44,0-13.5,4.82-13.5,10.75v11.62h-53.41l-10.71-10.71-1.72-1.92h-5.28v117.76h7v-41.72l15.58-12.52-3.09-3.85-12.48,10.03v-60.79l8.05,8.05v23.45c0,9.29,24.53,37.13,32.86,46.32-4.55,5.79-10.56,14.05-10.56,17.38v7.15h40.7v-7.15c0-3.31-6.01-11.58-10.56-17.38,8.33-9.17,32.86-36.98,32.86-46.33v-27.78h-22.23v-11.62c0-1.77,2.78-3.75,6.5-3.75h16c3.58,0,6.5,2.92,6.5,6.5v63.84l-9.87-7.93-3.1,3.85,12.97,10.42v43.82h7v-44.27l.13-.16Zm-24.26-33.36c-.32,1.07-2.57,7.1-16.48,24-5.15,6.26-10.23,11.98-13.33,15.4h-4.97c-3.08-3.4-8.12-9.08-13.25-15.33-13.94-16.95-16.23-23-16.56-24.08v-16.97h64.58v16.98Zm-47.47,15.67c0-1.48,1.2-2.68,2.68-2.68,1.48,0,2.68,1.2,2.68,2.68s-1.2,2.68-2.68,2.68-2.68-1.2-2.68-2.68Zm6.37-7.87c0-1.48,1.2-2.68,2.68-2.68,1.48,0,2.68,1.2,2.68,2.68,0,1.48-1.2,2.68-2.68,2.68-1.48,0-2.68-1.2-2.68-2.68Zm6.37-6.37c0-1.48,1.2-2.68,2.68-2.68s2.68,1.2,2.68,2.68-1.2,2.68-2.68,2.68c-1.48,0-2.68-1.2-2.68-2.68Zm-6.37,22.12c0-1.48,1.2-2.68,2.68-2.68s2.68,1.2,2.68,2.68-1.2,2.68-2.68,2.68-2.68-1.2-2.68-2.68Zm6.37-7.87c0-1.48,1.2-2.68,2.68-2.68s2.68,1.2,2.68,2.68-1.2,2.68-2.68,2.68c-1.48,0-2.68-1.2-2.68-2.68Zm6.37-7.87c0-1.48,1.2-2.68,2.68-2.68s2.68,1.2,2.68,2.68-1.2,2.68-2.68,2.68-2.68-1.2-2.68-2.68Zm-6.37,22.12c0-1.48,1.2-2.68,2.68-2.68s2.68,1.2,2.68,2.68-1.2,2.68-2.68,2.68-2.68-1.2-2.68-2.68Zm6.37-6.37c0-1.48,1.2-2.68,2.68-2.68,1.48,0,2.68,1.2,2.68,2.68,0,1.48-1.2,2.68-2.68,2.68s-2.68-1.2-2.68-2.68Zm6.37-7.87c0-1.48,1.2-2.68,2.68-2.68,1.48,0,2.68,1.2,2.68,2.68s-1.2,2.68-2.68,2.68c-1.48,0-2.68-1.2-2.68-2.68Zm0-14.25c0-1.48,1.2-2.68,2.68-2.68s2.68,1.2,2.68,2.68-1.2,2.68-2.68,2.68-2.68-1.2-2.68-2.68Zm-31.87,6.37c0-1.48,1.2-2.68,2.68-2.68,1.48,0,2.68,1.2,2.68,2.68,0,1.48-1.2,2.68-2.68,2.68s-2.68-1.2-2.68-2.68Zm6.37-6.37c0-1.48,1.2-2.68,2.68-2.68s2.68,1.2,2.68,2.68-1.2,2.68-2.68,2.68c-1.48,0-2.68-1.2-2.68-2.68Zm6.37-6.37c0-1.48,1.2-2.68,2.68-2.68s2.68,1.2,2.68,2.68-1.2,2.68-2.68,2.68-2.68-1.2-2.68-2.68Zm25.49,12.75c0-1.48,1.2-2.68,2.68-2.68,1.48,0,2.68,1.2,2.68,2.68s-1.2,2.68-2.68,2.68-2.68-1.2-2.68-2.68Z"/>
        <path class="cls-5" d="m81.94,145.43c-1.05,1.92-1.71,3.56-1.71,4.67v7.15h17.31v-11.82h-15.6Z"/>
        <path class="cls-3" d="m94.45,83.68c1.48,0,2.68-1.2,2.68-2.68s-1.2-2.68-2.68-2.68-2.68,1.2-2.68,2.68c0,1.48,1.2,2.68,2.68,2.68Z"/>
        <path class="cls-5" d="m83.08,143.47h14.46v-18.6h-13.71c2.77,3.2,5.22,5.93,6.95,7.84-2.55,3.24-5.55,7.26-7.71,10.75Z"/>
        <path class="cls-5" d="m57.92,69.06h10.36v-.08h29.26v-7.89h-41.47l1.86,1.86v6.11Z"/>
        <path class="cls-5" d="m81.42,105.8h-13.06c4.01,5.42,8.61,11.05,12.78,15.95h13.72c-2.87-3.24-6.42-7.33-10.03-11.72-1.23-1.49-2.36-2.9-3.41-4.22Z"/>
        <rect class="cls-5" x="42.88" y="73.9" width="7" height="10.63"/>
        <rect class="cls-5" x="42.88" y="88.8" width="7" height="13.29"/>
        <polygon class="cls-5" points="65.46 109.51 62.48 105.8 62.18 105.8 49.88 115.69 49.88 105.8 42.88 105.8 42.88 121.75 50.22 121.75 65.46 109.51"/>
        <path class="cls-3" d="m94.45,106.82c-1.48,0-2.68,1.2-2.68,2.68s1.2,2.68,2.68,2.68,2.68-1.2,2.68-2.68-1.2-2.68-2.68-2.68Z"/>
        <polygon class="cls-5" points="49.88 54.9 50.76 55.78 57.75 55.78 52.43 50.47 42.88 50.47 42.88 55.78 49.88 55.78 49.88 54.9"/>
        <rect class="cls-5" x="42.88" y="61.09" width="7" height="7.97"/>
        <path class="cls-5" d="m88.08,90.06c.95,0,1.79-.5,2.26-1.25h-4.52c.48.75,1.31,1.25,2.26,1.25Z"/>
        <rect class="cls-5" x="42.88" y="145.43" width="7" height="18.32"/>
        <path class="cls-5" d="m57.92,84.53h10.36v-10.63h-10.36v10.63Z"/>
        <path class="cls-3" d="m94.45,96.43c1.48,0,2.68-1.2,2.68-2.68,0-1.48-1.2-2.68-2.68-2.68-1.48,0-2.68,1.2-2.68,2.68s1.2,2.68,2.68,2.68Z"/>
        <path class="cls-5" d="m88.08,98.94c-1.48,0-2.68,1.2-2.68,2.68,0,.16.02.32.05.47h5.26c.03-.15.05-.31.05-.47,0-1.48-1.2-2.68-2.68-2.68Z"/>
        <path class="cls-3" d="m81.71,96.43c1.48,0,2.68-1.2,2.68-2.68,0-1.48-1.2-2.68-2.68-2.68-1.48,0-2.68,1.2-2.68,2.68,0,1.48,1.2,2.68,2.68,2.68Z"/>
        <path class="cls-5" d="m65.7,102.09h12.84c-5.06-6.64-7.65-10.82-8.97-13.29h-11.23c1,3.42,3.77,8.14,7.36,13.29Z"/>
        <rect class="cls-5" x="42.88" y="124.87" width="7" height="18.6"/>
      </g>
    </g>
  </g>
</svg>