<svg xmlns="http://www.w3.org/2000/svg" viewBox="0 0 200 200"><defs><style>.cls-1{fill:none;}.cls-2{fill:#fff;}.cls-3{fill:#d9d9db;}</style></defs><g id="Layer_2" data-name="Layer 2"><g id="Backg_Layer_copy" data-name="Backg Layer copy"><rect class="cls-1" width="200" height="200"/></g><g id="Whiteout"><g id="storage"><polygon class="cls-2" points="109.91 141.89 109.91 159.2 111.94 159.2 111.94 143.03 109.91 141.89"/><polygon class="cls-2" points="94.76 133.45 94.76 159.2 96.39 159.2 96.39 134.36 94.76 133.45"/><polygon class="cls-2" points="90.77 131.23 90.64 131.07 90.64 159.2 92.16 159.2 92.16 132 90.77 131.23"/><polygon class="cls-2" points="156.31 143.04 156.31 159.2 158.34 159.2 158.34 141.91 156.31 143.04"/><polygon class="cls-2" points="175.43 132.45 175.43 159.2 176.95 159.2 176.95 131.6 175.43 132.45"/><polygon class="cls-2" points="134.08 155.36 132.94 154.72 132.94 159.2 135.37 159.2 135.37 154.65 134.08 155.36"/><polygon class="cls-2" points="171.41 134.67 171.41 159.2 173.03 159.2 173.03 133.77 171.41 134.67"/><path class="cls-2" d="M91.48,61.7c0,1.48,0,3.81,0,6.75,5.72-4,24.88-6.19,42.87-6.19,18.26,0,37,2.09,42.77,6.11v-7c-1.29-3.21-16.39-7.48-42.77-7.48C107,53.87,91.74,58.47,91.48,61.7Z"/><path class="cls-2" d="M134.34,104.32c-24.18,0-40.1,2.09-42.89,3.36,0,2.64,0,5.16,0,7.48,4.82-1,21.18-2.45,42.9-2.45,21.9,0,37.42,1.15,42.77,2.39v-7.46C173.23,106,156.81,104.32,134.34,104.32Z"/><path class="cls-2" d="M97.6,126.4c-1.66.13-3,.26-4.13.39l2.07,3Z"/><path class="cls-2" d="M118.84,52.75c4.79-.37,9.81-.56,14.78-.58V42.5Z"/><path class="cls-2" d="M134.34,114.41c-22.16,0-39.06,1.56-42.9,2.48v7.35a103.09,103.09,0,0,1,11.55-1c8.27-.43,19.5-.67,31.18-.67s23.13.24,31.39.67a111.84,111.84,0,0,1,11.55,1v-7.37C172.53,115.63,156.62,114.41,134.34,114.41Z"/><path class="cls-2" d="M134.93,52.17c5,0,10,.21,14.78.57L134.93,42.5Z"/><path class="cls-2" d="M160.65,125.84c-2.14-.09-4.47-.17-7-.23l3.6,3.6Z"/><path class="cls-2" d="M114.57,125.62c-2.49.07-4.82.14-6.95.23l3.36,3.36Z"/><path class="cls-2" d="M134.15,129.06l3.68-3.68h-7.36Z"/><path class="cls-2" d="M174.38,126.72c-1.17-.13-2.58-.25-4.22-.37l2.1,3.44Z"/><path class="cls-2" d="M150.74,125.54q-4.67-.11-10.05-.14l-5.4,5.39h.08v21.77L156.31,141v-9.84Z"/><path class="cls-2" d="M109.91,131l-5-5.05q-3.24.15-5.77.32l-2.71,4.46v1.51l-1.63-.9v-.55L92.12,127l-.68.12v1.3h0v.43l0,0a2.24,2.24,0,0,0,.45,1l18,10Z"/><path class="cls-2" d="M133,130.79l-5.39-5.39c-3.6,0-7,.08-10.11.15l-5.57,5.56v9.82l-.43-.24,21.42,11.94V130.79Z"/><path class="cls-2" d="M175.75,126.88,173,130.81v.88l3.43-1.91a1.78,1.78,0,0,0,.6-1.14l.05,0v-1.59C176.73,127,176.28,127,175.75,126.88Z"/><path class="cls-2" d="M134.34,64c-26.08,0-42.51,4.05-42.87,7v6.94c5.74-3.6,25-5.52,42.87-5.52,18.07,0,36.93,1.87,42.77,5.47V70.66C175.68,67.81,160.35,64,134.34,64Z"/><path class="cls-2" d="M171.41,130.75l-2.73-4.5c-1.58-.1-3.34-.2-5.28-.29L158.34,131v8.81l-2,1.12L173,131.69l-1.62.89Z"/><path class="cls-2" d="M91.46,80.09v7.14c5.79-3.12,25.18-4.79,42.88-4.79s36.83,1.63,42.77,4.76V79.93c-1.76-2.55-17-5.88-42.77-5.88C108.77,74.05,92.21,77.56,91.46,80.09Z"/><path class="cls-2" d="M134.34,94.23c-25.31,0-40.9,2.67-42.89,4.22v7.44c5.14-1.68,22-3.27,42.89-3.27,20,0,37.11,1.32,42.77,3.21V98.42C174.31,96.6,159.92,94.23,134.34,94.23Z"/><path class="cls-2" d="M134.34,84.14c-26.32,0-41.67,3.29-42.88,5.13,0,2.42,0,4.88,0,7.33,5.43-2.32,23.19-4.07,42.89-4.07,20.31,0,37.24,1.64,42.77,4V89.18C174.93,87.06,160.51,84.14,134.34,84.14Z"/><path class="cls-2" d="M116.24,53l18-12.49L152.3,53A120.12,120.12,0,0,1,166.61,55c-11.86-5.87-29.54-14.13-29.54-14.13a7.87,7.87,0,0,0-5.69,0s-19.23,8.86-31,14.52A112.59,112.59,0,0,1,116.24,53Z"/><polygon class="cls-2" points="36.99 139.5 36.99 152.33 38.49 152.33 38.49 140.34 36.99 139.5"/><polygon class="cls-2" points="25.76 133.24 25.76 152.33 26.96 152.33 26.96 133.91 25.76 133.24"/><polygon class="cls-2" points="22.8 131.59 22.7 131.48 22.7 152.33 23.83 152.33 23.83 132.17 22.8 131.59"/><polygon class="cls-2" points="71.38 140.35 71.38 152.33 72.89 152.33 72.89 139.51 71.38 140.35"/><polygon class="cls-2" points="85.55 132.5 85.55 152.33 86.68 152.33 86.68 131.87 85.55 132.5"/><polygon class="cls-2" points="54.9 149.48 54.05 149.01 54.05 152.33 55.86 152.33 55.86 148.95 54.9 149.48"/><polygon class="cls-2" points="82.58 134.15 82.58 152.33 83.78 152.33 83.78 133.48 82.58 134.15"/><path class="cls-2" d="M23.33,80.06c0,1.09,0,2.82,0,5,4.24-3,18.44-4.58,31.78-4.58C68.63,80.47,82.51,82,86.8,85V79.79c-1-2.37-12.15-5.54-31.7-5.54C34.81,74.25,23.51,77.66,23.33,80.06Z"/><path class="cls-2" d="M27.86,128c-1.23.1-2.25.2-3.06.29l1.54,2.23Z"/><path class="cls-2" d="M43.6,73.42c3.56-.27,7.28-.42,11-.43V65.82Z"/><path class="cls-2" d="M55.1,119.12c-16.43,0-29,1.16-31.8,1.85,0,2.13,0,4,0,5.44a77.33,77.33,0,0,1,8.57-.77c6.13-.32,14.45-.5,23.11-.5s17.14.18,23.27.5a83.25,83.25,0,0,1,8.56.75v-5.46C83.4,120,71.62,119.12,55.1,119.12Z"/><path class="cls-2" d="M55.53,73c3.68,0,7.41.15,11,.42l-11-7.59Z"/><path class="cls-2" d="M74.6,127.6c-1.59-.07-3.31-.12-5.17-.17l2.67,2.67Z"/><path class="cls-2" d="M40.44,127.43c-1.85,0-3.57.11-5.15.17l2.49,2.5Z"/><path class="cls-2" d="M55,130l2.72-2.72H52.23Z"/><path class="cls-2" d="M84.77,128.25q-1.29-.13-3.12-.27l1.55,2.55Z"/><path class="cls-2" d="M67.25,127.37c-2.3,0-4.79-.08-7.45-.1l-4,4h.06V147.4l15.52-8.6v-7.29Z"/><path class="cls-2" d="M37,131.44l-3.74-3.75c-1.6.08-3,.16-4.28.25l-2,3.3v1.12l-1.2-.67v-.41l-2-2.84-.51.09v1h0v.33l0,0a1.47,1.47,0,0,0,.34.72L37,138Z"/><path class="cls-2" d="M54.11,131.27l-4-4q-4,0-7.5.11l-4.13,4.13v7.28l-.32-.18,15.88,8.85V131.27Z"/><path class="cls-2" d="M85.79,128.37l-2,2.91v.65l2.54-1.41c.26-.14.39-.59.45-.85l0,0v-1.17Z"/><path class="cls-2" d="M82.58,131.24l-2-3.34c-1.17-.07-2.47-.15-3.91-.21l-3.75,3.75V138l-1.51.83,12.4-6.87-1.2.67Z"/><path class="cls-2" d="M55.1,81.73c-19.34,0-31.51,3-31.78,5.16v1.77h0V99C27.6,96.66,42,95.42,55.09,95.42S82.4,96.63,86.8,99V86.7C85.74,84.58,74.38,81.73,55.1,81.73Z"/><path class="cls-2" d="M55.1,104.16c-18.76,0-30.33,2-31.8,3.14v6.83h0v5.55c3.57-.73,15.69-1.82,31.8-1.82s27.73.86,31.7,1.77V107.27C84.73,105.92,74.05,104.16,55.1,104.16Z"/><path class="cls-2" d="M55.09,96.69c-19.5,0-30.88,2.43-31.78,3.8v5.43c4-1.72,17.18-3,31.79-3,15.05,0,27.6,1.22,31.7,3v-5.46C85.18,98.85,74.5,96.69,55.09,96.69Z"/><path class="cls-2" d="M41.68,73.58l13.37-9.27,13.36,9.26A89.08,89.08,0,0,1,79,75.1c-8.78-4.35-21.89-10.48-21.89-10.48a5.85,5.85,0,0,0-4.22,0s-14.25,6.57-23,10.76A82.55,82.55,0,0,1,41.68,73.58Z"/><polygon class="cls-3" points="54.32 65.99 50.83 68.41 54.32 68.41 54.32 65.99"/><path class="cls-3" d="M52.9,64.63l-8.16,3.78h4.4l5.18-3.59v-.55A4.62,4.62,0,0,0,52.9,64.63Z"/><path class="cls-3" d="M54.32,72.69H44.65l-1,.73c3.48-.27,7.12-.41,10.72-.43Z"/><path class="cls-3" d="M54.32,74.25c-17.29.08-27.89,2.64-30.41,4.87H54.32Z"/><path class="cls-3" d="M29.93,75.39a82.55,82.55,0,0,1,11.75-1.81L43,72.69H35.59Z"/><path class="cls-3" d="M23.32,85.05a16.61,16.61,0,0,1,5.05-2H23.32Z"/><path class="cls-3" d="M54.32,83H34.88c-7.24,1.07-11.41,2.61-11.56,3.86v1.77h0v2.94h31Z"/><path class="cls-3" d="M23.31,100.49v5.29h.38c4.32-1.62,16.75-2.83,30.63-2.87V96.69C35.29,96.75,24.19,99.14,23.31,100.49Z"/><path class="cls-3" d="M23.31,95.05V99c4.21-2.27,18.11-3.51,31-3.55v-.38Z"/><path class="cls-3" d="M23.3,108.77v10.91c3.51-.72,15.31-1.78,31-1.81v-9.1Z"/><path class="cls-3" d="M54.32,119.13c-16,0-28.23,1.16-31,1.84v.67h31Z"/><path class="cls-3" d="M23.3,124.16c0,.82,0,1.58,0,2.25a77.33,77.33,0,0,1,8.57-.77c6-.31,14-.49,22.46-.49v-1Z"/><path class="cls-3" d="M23.29,128.53v1h0v.33l0,0a1.47,1.47,0,0,0,.34.72L37,138v-6.51l-3.74-3.75c-1.6.08-3,.16-4.28.25l-2,3.3v1.12l-1.2-.67v-.41l-2-2.84Z"/><path class="cls-3" d="M42.62,127.38l-4.13,4.13v7.28l-.32-.18,1,.56H54.05v-7.9h.06l-4-4Q46.1,127.3,42.62,127.38Z"/><path class="cls-3" d="M27.86,128c-1.23.1-2.25.2-3.06.29l1.54,2.23Z"/><path class="cls-3" d="M37.78,130.1l2.66-2.67c-1.85,0-3.57.11-5.15.17Z"/><polygon class="cls-3" points="54.05 147.46 54.05 140.75 42.02 140.75 54.05 147.46"/></g></g></g></svg>