<svg xmlns="http://www.w3.org/2000/svg" viewBox="0 0 200 200"><defs><style>.cls-1{fill:none;}.cls-2{fill:#fff;}.cls-3{fill:#d9d9db;}</style></defs><g id="Layer_2" data-name="Layer 2"><g id="Backg_Layer_copy" data-name="Backg Layer copy"><rect class="cls-1" width="200" height="200"/></g><g id="Whiteout"><g id="packaging"><polygon class="cls-2" points="156.14 72.4 102 103.65 102 163.67 156.14 132.41 156.14 72.4"/><polygon class="cls-2" points="136.72 56.38 80.85 88.64 100.43 99.94 156.14 67.78 156.14 67.59 136.72 56.38"/><polygon class="cls-2" points="122.72 48.3 100 35.18 44.13 67.44 66.85 80.55 122.72 48.3"/><polygon class="cls-2" points="77 116.08 63 108 63 83.04 63 82.95 43.86 71.9 43.86 132.41 98 163.67 98 103.16 77 91.03 77 116.08"/><path class="cls-3" d="M77.15,57.65H61.09l9.2-5.32h6.86Zm0,5.31H51.89l-7.76,4.48,6,3.48h27Zm-2,12.81H58.56l8.29,4.78ZM63,83V83L50.56,75.77h-6.7V86.4H63Zm0,7.63H43.86V104H63Zm14.15,17H77v8.41L63,108v-.33H43.86v16H77.15Zm0,19.07H43.86v5.67l22.39,12.93h10.9Zm-7.5,20.56,7.5,4.33V147.3Z"/></g></g></g></svg>