<?xml version="1.0" encoding="UTF-8"?>
<svg id="Layer_2" data-name="Layer 2" xmlns="http://www.w3.org/2000/svg" viewBox="0 0 200 200">
  <defs>
    <style>
      .cls-1 {
        fill: #29cde3;
      }

      .cls-2 {
        fill: #fff;
      }

      .cls-3 {
        fill: #f35000;
      }

      .cls-4 {
        fill: #b3ded4;
      }

      .cls-5 {
        fill: none;
      }

      .cls-6 {
        fill: #0073ab;
      }
    </style>
  </defs>
  <g id="Layer_1-2" data-name="Layer 1">
    <g id="Layer_2-2" data-name="Layer 2">
      <g id="Backg_Layer_copy" data-name="Backg Layer copy">
        <rect class="cls-5" width="200" height="200"/>
      </g>
      <g>
        <rect class="cls-2" x="96.51" y="94.5" width="61" height="36" rx="5" ry="5"/>
        <g>
          <path class="cls-1" d="m98.54,126.22v-26c0-1.93,1.57-3.5,3.5-3.5h26.46c-12.33-25.93-40.7-57.36-40.7-57.36,0,0-46.31,51.32-46.31,76.9s20.74,46.31,46.31,46.31c20.89,0,38.55-13.84,44.32-32.85h-30.08c-1.93,0-3.5-1.57-3.5-3.5Z"/>
          <path class="cls-4" d="m140.78,38.44s-17.14,19-17.14,28.47,7.68,17.14,17.14,17.14,17.15-7.67,17.15-17.14-17.15-28.47-17.15-28.47Z"/>
        </g>
        <path class="cls-6" d="m89.54,41.33c-.92-1.06-1.51-1.72-1.69-1.91h-.12c-.24.27-1.34,1.5-3.04,3.47h4.85v-1.57Z"/>
        <path class="cls-6" d="m89.54,48.05h-9.21c-1.33,1.6-2.79,3.38-4.35,5.31h13.55v-5.31Z"/>
        <path class="cls-6" d="m89.54,58.67h-17.74c-1.95,2.51-3.97,5.18-6.01,7.97h23.75v-7.97Z"/>
        <path class="cls-6" d="m89.54,71.48h-27.23c-2.43,3.46-4.82,7.03-7.08,10.63h34.31v-10.63Z"/>
        <path class="cls-6" d="m89.54,86.38h-36.9c-2.66,4.51-5.03,9-6.89,13.29h43.79v-13.29Z"/>
        <path class="cls-6" d="m89.54,103.38h-45.28c-1.74,4.69-2.77,9.06-2.77,12.87,0,1.04.05,2.06.11,3.08h47.94v-15.95Z"/>
        <path class="cls-6" d="m89.54,122.45h-47.63c.91,6.77,3.28,13.08,6.78,18.6h40.85v-18.6Z"/>
        <path class="cls-6" d="m50.01,143.01c8.39,11.83,22.18,19.55,37.79,19.55.58,0,1.16-.02,1.74-.04v-19.51h-39.53Z"/>
        <path class="cls-6" d="m159.51,126c0,3.59-2.91,6.5-6.5,6.5h-51c-3.59,0-6.5-2.91-6.5-6.5v-26c0-3.59,2.91-6.5,6.5-6.5h51c3.59,0,6.5,2.91,6.5,6.5v26Zm-3.66-25.71c0-1.89-1.53-3.42-3.42-3.42h-49.85c-1.89,0-3.42,1.53-3.42,3.42v25.41c0,1.89,1.53,3.42,3.42,3.42h49.85c1.89,0,3.42-1.53,3.42-3.42v-25.41Z"/>
        <path class="cls-3" d="m112.27,113.22c.15.04,1.24,1.18,1.24,1.18l-.44,4.43-1.57,1.64c-.19-.13-.48-.65-.57-1.11l.65-5.65s.52-.52.69-.48Zm.42-7.2l1.51,1.64-.44,3.93s-1.37,1.09-1.45,1.09c-.17-.04-.59-.82-.59-.82l.53-5.1c.21-.61.44-.73.44-.73Zm6.05,15.03h-6.21c-.42-.02-.78-.36-.78-.36l1.53-1.6h4.54l1.47,1.55s-.34.4-.55.4Zm-.44-7.03h-4.7s-1.07-.88-1.07-1.05c-.02-.1,1.24-1.03,1.24-1.03h4.68s.88.82.92,1.03c0,.15-1.07,1.05-1.07,1.05Zm-4.68-8.59h5.88s.69.19.71.42c.02.17-1.43,1.68-1.43,1.68h-4.16l-1.64-1.79s.25-.29.63-.31Zm5.92,14.91c-.19-.06-1.51-1.53-1.51-1.53l.5-4.56s1.03-1.07,1.2-1.03c.23.04.92.65.92.65l-.61,5.71s.04.27-.5.76Zm1.51-.71h2.1l-.17,1.85h-2.02l.08-1.85Zm5.48-14.19h5.88s.69.19.71.42c.02.17-1.43,1.68-1.43,1.68h-4.16l-1.64-1.79s.25-.29.63-.31Zm5.92,14.91c-.19-.06-1.51-1.53-1.51-1.53l.5-4.56s1.03-1.07,1.2-1.03c.23.04.92.65.92.65l-.61,5.71s.04.27-.5.76Zm.23-7.54c-.25-.06-1.15-1.09-1.15-1.09l.53-4.01s1.28-1.55,1.45-1.53c.23.04.63.8.63.8l-.59,5.21s-.71.65-.86.63Zm4.05.42c.15.04,1.24,1.18,1.24,1.18l-.44,4.43-1.57,1.64c-.19-.13-.48-.65-.57-1.11l.65-5.65s.52-.52.69-.48Zm.42-7.2l1.51,1.64-.44,3.93s-1.37,1.09-1.45,1.09c-.17-.04-.59-.82-.59-.82l.53-5.1c.21-.61.44-.73.44-.73Zm6.05,15.03h-6.21c-.42-.02-.78-.36-.78-.36l1.53-1.6h4.54l1.47,1.55s-.33.4-.54.4Zm-5.12-15.62h5.88s.69.19.71.42c.02.17-1.43,1.68-1.43,1.68h-4.16l-1.64-1.79s.25-.29.63-.31Zm5.92,14.91c-.19-.06-1.51-1.53-1.51-1.53l.5-4.56s1.03-1.07,1.2-1.03c.23.04.92.65.92.65l-.61,5.71s.04.27-.5.76Zm.23-7.54c-.25-.06-1.16-1.09-1.16-1.09l.52-4.01s1.28-1.55,1.45-1.53c.23.04.63.8.63.8l-.59,5.21s-.71.65-.86.63Zm-38.52-13.58h-4.25v1.75h4.25v-1.75Zm5.75,0h-4.25v1.75h4.25v-1.75Zm41.5,25.13h-4.25v1.75h4.25v-1.75Z"/>
      </g>
    </g>
  </g>
</svg>