<svg xmlns="http://www.w3.org/2000/svg" viewBox="0 0 200 200"><defs><style>.cls-1{fill:#1790b0;}.cls-2{fill:#006d95;}.cls-3{fill:none;}</style></defs><g id="Layer_2" data-name="Layer 2"><g id="_2_Tone_gray" data-name="2 Tone gray"><path class="cls-1" d="M156.23,33,145.36,52H136.6L125.73,33H37.57v68a64.16,64.16,0,0,0,128.32,0V33ZM95,75.49,87.53,83h0a.5.5,0,0,0-.7,0l-1,1L75.19,73.29a.5.5,0,0,0-.7,0l-1.61,1.6a.51.51,0,0,0,0,.68c.06.08,5.22,6.05,10.49,11.59L76.2,94.31,58.43,76.53A49.58,49.58,0,0,1,77.24,57.72Zm-1.58-11.4a2.68,2.68,0,1,1,2.68,2.68A2.68,2.68,0,0,1,93.44,64.09Zm-7.72,52.46-1-1,6.68-6.94a14.28,14.28,0,0,0,1.24,1.46,13.08,13.08,0,0,0,1.73,1.44l-4.06,4.08C84.94,121,77.65,127.39,76,128.84l-.92-.92,10.66-10.66a.53.53,0,0,0,.15-.36A.51.51,0,0,0,85.72,116.55ZM73.92,75.27l.92-.92L85.5,85a.5.5,0,0,0,.71,0l1-1,6.94,6.68a11.8,11.8,0,0,0-2.9,3c-1.35-1.33-2.73-2.71-4.08-4.06C81.75,84.23,75.37,76.94,73.92,75.27Zm4.38,25.32a2.68,2.68,0,1,1-2.68-2.68A2.68,2.68,0,0,1,78.3,100.59Zm-10-1.5a2.68,2.68,0,1,1-2.68-2.68A2.68,2.68,0,0,1,68.3,99.09Zm-9.43-7.68a2.68,2.68,0,1,1-2.68,2.68A2.68,2.68,0,0,1,58.87,91.41Zm.5,15.25a2.68,2.68,0,1,1-2.68,2.68A2.68,2.68,0,0,1,59.37,106.66Zm16.83,1.08,7.49,7.49h0a.5.5,0,0,0,0,.7l1,1L74,127.57a.48.48,0,0,0,0,.7l1.6,1.61A.51.51,0,0,0,76,130a.45.45,0,0,0,.32-.13c.07-.06,6-5.22,11.59-10.49L95,126.56,77.24,144.33a49.58,49.58,0,0,1-18.81-18.81Zm21.42,31.92a2.68,2.68,0,1,1-2.68,2.68A2.68,2.68,0,0,1,97.62,139.66ZM98.87,134a2.68,2.68,0,1,1,2.68-2.68A2.68,2.68,0,0,1,98.87,134Zm1.75-10a2.68,2.68,0,1,1,2.68-2.68A2.68,2.68,0,0,1,100.62,124Zm1.11-12.16a10.84,10.84,0,1,1,7.66-3.17A10.76,10.76,0,0,1,101.73,111.86Zm2.57-42a2.68,2.68,0,1,1-2.68-2.68A2.68,2.68,0,0,1,104.3,69.84Zm-.36-15.5A2.68,2.68,0,1,1,106.62,57,2.68,2.68,0,0,1,103.94,54.34ZM117.75,85.5l1,1L112,93.41A13,13,0,0,0,110.81,92a13.91,13.91,0,0,0-1.73-1.44l4.06-4.08c5.39-5.39,12.68-11.77,14.35-13.22l.92.92L117.75,84.79a.53.53,0,0,0-.15.36A.51.51,0,0,0,117.75,85.5Zm11.8,41.28-.92.92L118,117a.52.52,0,0,0-.36-.14.5.5,0,0,0-.35.14l-1,1-6.94-6.68a14.28,14.28,0,0,0,1.46-1.24,13.91,13.91,0,0,0,1.44-1.73l4.08,4.06C121.72,117.82,128.1,125.11,129.55,126.78Zm-19.68,8.38a2.68,2.68,0,1,1-2.68,2.68A2.68,2.68,0,0,1,109.87,135.16Zm-1.42-8.6,7.49-7.49h0a.5.5,0,0,0,.7,0l1-1,10.66,10.66a.49.49,0,0,0,.36.15.47.47,0,0,0,.35-.15l1.61-1.6a.51.51,0,0,0,0-.68c-.06-.07-5.22-6-10.49-11.59l7.15-7.15L145,125.52a49.63,49.63,0,0,1-18.82,18.82Zm22-23.47a2.68,2.68,0,1,1,2.68,2.68A2.68,2.68,0,0,1,130.44,103.09Zm9.25,2.5a2.68,2.68,0,1,1,2.68,2.68A2.68,2.68,0,0,1,139.69,105.59Zm3.75,11a2.68,2.68,0,1,1,2.68,2.68A2.68,2.68,0,0,1,143.44,116.59Zm2.43-21.82a2.68,2.68,0,1,1,2.68-2.68A2.68,2.68,0,0,1,145.87,94.77Zm-.5-37.36a2.68,2.68,0,1,1-2.68,2.68A2.68,2.68,0,0,1,145.37,57.41Zm-19.14.31A49.52,49.52,0,0,1,145,76.54L127.27,94.31l-7.49-7.49h0a.51.51,0,0,0,0-.7l-1-1,10.66-10.66a.49.49,0,0,0,.15-.36.47.47,0,0,0-.15-.35l-1.6-1.61a.51.51,0,0,0-.68,0c-.08.06-6,5.23-11.59,10.49l-7.15-7.15Zm-9.11-.56a2.68,2.68,0,1,1-2.68,2.68A2.68,2.68,0,0,1,117.12,57.16ZM46.33,77.36a59.48,59.48,0,0,1,66-36l-1.2,6.46A52.92,52.92,0,0,0,52.66,79.2l3.41,1-9.93,9.5L42.87,76.35Zm55.4,82.24a58.56,58.56,0,0,1-58.49-58.49h3a55.5,55.5,0,0,0,104.12,26.76l2.63,1.45A58.57,58.57,0,0,1,101.73,159.6Zm5.69-64.26a8.05,8.05,0,1,0,2.35,5.69A8,8,0,0,0,107.42,95.34Zm-1.42,10a6,6,0,1,1,1.77-4.26A6,6,0,0,1,106,105.29Z"/><path class="cls-2" d="M58.43,76.53c.56-1,1.17-2,1.8-2.94H55.44a54.18,54.18,0,0,0-2.78,5.61l3.41,1-4.2,4H66.11Z"/><path class="cls-2" d="M87.53,83h0a.5.5,0,0,0-.7,0l-1,1L75.5,73.59H74.18l-1.3,1.3a.51.51,0,0,0,0,.68c0,.06,3.56,4.13,7.74,8.65H82c-3.73-4-7-7.8-8-9l.92-.92,9.87,9.87H87l.18-.18.19.18h7.79V73.59h-2l1.9,1.9Z"/><path class="cls-2" d="M42.87,76.35l3.46,1c.52-1.29,1.1-2.54,1.7-3.77H37.57V84.22H44.8Z"/><path class="cls-2" d="M56.53,60.78h-19v8H50.69A60.11,60.11,0,0,1,56.53,60.78Z"/><path class="cls-2" d="M58.56,68.74h5.33c.85-1,1.72-2,2.66-2.9a49,49,0,0,1,6-5.06H65.66A52.86,52.86,0,0,0,58.56,68.74Z"/><path class="cls-2" d="M95.16,68.74V66.58a2.66,2.66,0,0,1,0-5v-.82H80.3l8,8Z"/><path class="cls-2" d="M89.52,41.53H37.57V45H78.32A59.11,59.11,0,0,1,89.52,41.53Z"/><rect class="cls-2" x="37.57" y="33.08" width="57.58" height="3.47"/><path class="cls-2" d="M68.65,50.15H37.57v5.32h24.2A60.72,60.72,0,0,1,68.65,50.15Z"/><path class="cls-2" d="M95.16,55.47V50.15h-12a53,53,0,0,0-10.62,5.32Z"/><path class="cls-2" d="M63.27,145.12H55.16A64.62,64.62,0,0,0,70.44,157l.22.12c.65.36,1.31.7,2,1,.23.12.45.24.69.35.58.29,1.18.57,1.77.84l1,.44c.55.24,1.1.47,1.66.69.38.16.76.31,1.15.45s1,.4,1.57.58l1.32.45,1.49.47c.49.15,1,.28,1.47.42l1.42.38c.54.14,1.09.26,1.65.38l1.3.29,1.93.34,1.09.19q1.52.22,3.06.39v-5.64A58.26,58.26,0,0,1,63.27,145.12Z"/><path class="cls-2" d="M95.16,145.12H68A55.29,55.29,0,0,0,95.16,156.2Z"/><path class="cls-2" d="M93.74,101.78h1.42V96.42A8,8,0,0,0,93.7,101,6.28,6.28,0,0,0,93.74,101.78Z"/><path class="cls-2" d="M43.26,101.78c0-.22,0-.45,0-.67h3c0,.22,0,.45,0,.67h27a2.65,2.65,0,0,1-.29-1.19,2.68,2.68,0,1,1,5.36,0,2.65,2.65,0,0,1-.29,1.19H90.94c0-.25,0-.5,0-.75a10.79,10.79,0,0,1,4.26-8.6V88.49H91.8l2.32,2.23a11.8,11.8,0,0,0-2.9,3c-1.35-1.33-2.73-2.71-4.08-4.06L86,88.49H82L76.2,94.31l-5.82-5.82h-23L46.14,89.7l-.3-1.21H37.57V101c0,.25,0,.5,0,.75Zm22.36-5.37a2.68,2.68,0,1,1-2.68,2.68A2.68,2.68,0,0,1,65.62,96.41Zm-6.75-5a2.68,2.68,0,1,1-2.68,2.68A2.68,2.68,0,0,1,58.87,91.41Z"/><path class="cls-2" d="M76,128.84l-.92-.92,3.35-3.36H77l-3,3a.48.48,0,0,0,0,.7l1.6,1.61A.51.51,0,0,0,76,130a.45.45,0,0,0,.32-.13s2.67-2.3,6-5.34H80.81C78.54,126.61,76.72,128.2,76,128.84Z"/><path class="cls-2" d="M58.43,125.52l1-1H51.46a55.72,55.72,0,0,0,14.13,18.6h9.73a49.15,49.15,0,0,1-16.89-17.64Z"/><path class="cls-2" d="M78.42,143.16H95.08a2.76,2.76,0,0,1-.14-.82,2.6,2.6,0,0,1,.22-1.05V124.56H93l2,2Z"/><path class="cls-2" d="M48.17,124.56H42.05a63.73,63.73,0,0,0,11.32,18.59h7.77A58.69,58.69,0,0,1,48.17,124.56Z"/><path class="cls-2" d="M95.06,105.49l.1.14v-.14Z"/><path class="cls-2" d="M91.87,105.49H46.43a55.07,55.07,0,0,0,3.69,16H62.51l13.69-13.7,7.49,7.49h0a.5.5,0,0,0,0,.7l1,1-4.53,4.54h1.41l4.18-4.18a.53.53,0,0,0,.15-.36.51.51,0,0,0-.15-.35l-1-1,6.68-6.94a14.28,14.28,0,0,0,1.24,1.46,13.08,13.08,0,0,0,1.73,1.44l-4.06,4.08c-1.9,1.9-4,3.93-6.09,5.82h1.47l2.16-2,2,2h5.26V109.62a10.59,10.59,0,0,1-1.08-.93A10.86,10.86,0,0,1,91.87,105.49ZM59.37,112a2.68,2.68,0,1,1,2.68-2.68A2.68,2.68,0,0,1,59.37,112Z"/><path class="cls-2" d="M43.42,105.49H37.74v0c.09,1.36.23,2.72.41,4.06v0c.27,2,.64,4,1.09,6,0,0,0,.07,0,.1.46,2,1,3.87,1.63,5.74v0h6A58.27,58.27,0,0,1,43.42,105.49Z"/><rect class="cls-3" width="200" height="200"/></g></g></svg>