<?xml version="1.0" encoding="UTF-8"?>
<svg id="Layer_2" data-name="Layer 2" xmlns="http://www.w3.org/2000/svg" viewBox="0 0 200 200">
  <defs>
    <style>
      .cls-1 {
        fill: #fff;
      }

      .cls-2 {
        fill: #299cd3;
      }

      .cls-3 {
        fill: #f28c00;
      }

      .cls-4 {
        fill: none;
      }

      .cls-5 {
        fill: #05589b;
      }
    </style>
  </defs>
  <g id="Layer_1-2" data-name="Layer 1">
    <g id="Layer_2-2" data-name="Layer 2">
      <g id="Backg_Layer_copy" data-name="Backg Layer copy">
        <rect class="cls-4" width="200" height="200"/>
      </g>
      <g>
        <polygon class="cls-1" points="127.04 112.86 115.9 69.04 127.99 65.16 139.51 110.49 127.04 112.86"/>
        <path class="cls-3" d="m127.04,112.86l-11.14-43.82c-12.72,5.72-19.92,14.61-19.92,14.61l.97,3.81-2.97.75,4.65,18.28,2.96-.76.97,3.81s10.58,4.37,24.49,3.32Z"/>
        <path class="cls-3" d="m161.73,70.7l-4.27-7.43s-12.79-1.76-29.48,1.89l11.52,45.33c16.4-4.76,26.8-12.42,26.8-12.42l.2-8.56,3.92-2.66-1.99-7.84-1.99-7.84-4.71-.46Z"/>
        <path class="cls-2" d="m139.12,131.47c-9.8,0-17.75,7.94-17.75,17.74s7.94,17.74,17.75,17.74,17.74-7.95,17.74-17.74-7.94-17.74-17.74-17.74Zm0,26.66c-4.93,0-8.92-3.99-8.92-8.92s3.99-8.91,8.92-8.91,8.91,3.99,8.91,8.91-3.99,8.92-8.91,8.92Z"/>
        <path class="cls-2" d="m160.66,118.94h-12.28v-7.32h-8.77v7.32h-37.86v-7.32h-8.77v7.32h-15.07v-32.22h-32.23l-14.77,32.22h-1.34v23.44h7.58c2.92-9.59,11.84-16.57,22.38-16.57s19.46,6.98,22.38,16.57h34.82c2.93-9.59,11.84-16.57,22.39-16.57s19.46,6.98,22.38,16.57h7.1l-7.93-23.44Z"/>
        <g>
          <path class="cls-2" d="m59.54,131.47c-9.79,0-17.74,7.94-17.74,17.74s7.95,17.74,17.74,17.74,17.74-7.95,17.74-17.74-7.94-17.74-17.74-17.74Zm0,26.66c-4.93,0-8.91-3.99-8.91-8.92s3.99-8.91,8.91-8.91,8.92,3.99,8.92,8.91-4,8.92-8.92,8.92Z"/>
          <polygon class="cls-5" points="77.91 90.06 44.15 90.06 40.02 99.06 77.91 99.06 77.91 90.06"/>
          <polygon class="cls-5" points="77.91 103.06 38.19 103.06 33.15 114.06 77.91 114.06 77.91 103.06"/>
          <path class="cls-5" d="m92.88,118.94h-14.98v-1.88H31.78l-.86,1.88h-1.34v11.12h16.55c3.8-2.67,8.42-4.25,13.42-4.25s9.62,1.58,13.42,4.25h19.93v-11.12Z"/>
          <path class="cls-5" d="m75.43,132.06c2.99,2.77,5.27,6.31,6.49,10.31h10.97v-10.31h-17.46Z"/>
          <path class="cls-5" d="m29.57,142.37h7.58c1.22-4,3.5-7.54,6.49-10.31h-14.07v10.31Z"/>
          <path class="cls-5" d="m50.7,148.06c.57-4.38,4.29-7.76,8.83-7.76s8.27,3.38,8.83,7.76h8.85c-.6-9.26-8.27-16.59-17.68-16.59s-17.09,7.33-17.69,16.59h8.85Z"/>
          <path class="cls-5" d="m68.45,149.21c0,4.92-4,8.92-8.92,8.92s-8.91-3.99-8.91-8.92c0-.05,0-.1,0-.15h-8.83c0,.05,0,.1,0,.15,0,9.8,7.95,17.74,17.74,17.74s17.74-7.95,17.74-17.74c0-.05,0-.1,0-.15h-8.82c0,.05,0,.1,0,.15Z"/>
        </g>
      </g>
    </g>
  </g>
</svg>