<?xml version="1.0" encoding="UTF-8"?><svg id="Layer_2" xmlns="http://www.w3.org/2000/svg" xmlns:xlink="http://www.w3.org/1999/xlink" viewBox="0 0 200 200"><defs><style>.cls-1{fill:#1790b0;}.cls-2{clip-path:url(#clippath);}.cls-3{fill:none;}.cls-4{fill:#006d95;}</style><clipPath id="clippath"><path class="cls-3" d="M137.54,165H62.46L24.92,100,62.46,35h75.08l37.54,65-37.54,65Zm-68.87-10.74h62.66l31.33-54.26-31.33-54.27h-62.66l-31.33,54.27,31.33,54.26Zm63.83-50.89c.7-.11,1.41-.13,2.11-.08v-8.54c-8.45,.45-13.26,5.58-15.9,11.7-2.65-6.12-7.45-11.25-15.9-11.7v8.54c.7-.05,1.41-.03,2.1,.08,3.83,.77,5,4.5,6.52,7.68,.88,1.82,1.81,3.59,2.47,5.22l-2.67,5.35c-.91,1.8-1.6,3.9-2.75,5.29s-3.54,2.17-5.67,2.15v8.55c6.64,.09,11.51-3.11,14-7.89,.67-1.25,1.11-2.61,1.86-3.84,.74,1.23,1.19,2.59,1.85,3.84,2.54,4.78,7.4,8,14.05,7.89v-8.55c-2.14,0-4.62-.89-5.68-2.15s-1.84-3.49-2.74-5.29-1.86-3.7-2.68-5.35c.66-1.63,1.6-3.4,2.47-5.22,1.58-3.18,2.73-6.91,6.56-7.68Zm-41.93,21.57c-.15,.1-.68,.65-.78,.73-2.01,1.76-4.54,2.81-7.21,3-6.89,.63-12.99-4.44-13.62-11.33-.01-.11-.02-.23-.03-.34-.45-5.42,2.7-10.49,7.75-12.49,3.15-1.36,7.35-1,12.42-1,0-2.83,.09-5.85-.07-8.57-2.58,0-4.86,.08-7.41,.06-1.28,0-2.54-.19-3.77-.54-6.7-2.03-10.48-9.1-8.46-15.8,1.03-3.41,3.45-6.23,6.67-7.76,2.58-1.24,5.51-1.59,8.31-1,1.25,.28,2.45,.75,3.57,1.38,1,.6,1.88,1.4,2.81,2.05,1.86-2.12,3.92-4,5.76-6.17-4.16-4.13-9.86-6.33-15.71-6.07-11.71,.41-20.88,10.23-20.47,21.94,.05,1.56,.28,3.11,.67,4.62,1.28,4.58,3.97,8.64,7.69,11.6-4.59,3.41-7.55,8.58-8.17,14.27-.71,5.95,1.1,11.92,5,16.47,7.55,8.67,20.62,9.76,29.51,2.47,.51-.36,.98-.77,1.4-1.23l-5.86-6.29Z"/></clipPath></defs><g id="Layer_1-2"><g id="Layer_2-2"><g id="Backg_Layer_copy"><rect class="cls-3" width="200" height="200"/></g><g id="_2_tone_blue"><g id="explosive_atmosphere"><path class="cls-1" d="M137.54,165H62.46L24.92,100,62.46,35h75.08l37.54,65-37.54,65Zm-68.87-10.74h62.66l31.33-54.26-31.33-54.27h-62.66l-31.33,54.27,31.33,54.26Zm63.83-50.89c.7-.11,1.41-.13,2.11-.08v-8.54c-8.45,.45-13.26,5.58-15.9,11.7-2.65-6.12-7.45-11.25-15.9-11.7v8.54c.7-.05,1.41-.03,2.1,.08,3.83,.77,5,4.5,6.52,7.68,.88,1.82,1.81,3.59,2.47,5.22l-2.67,5.35c-.91,1.8-1.6,3.9-2.75,5.29s-3.54,2.17-5.67,2.15v8.55c6.64,.09,11.51-3.11,14-7.89,.67-1.25,1.11-2.61,1.86-3.84,.74,1.23,1.19,2.59,1.85,3.84,2.54,4.78,7.4,8,14.05,7.89v-8.55c-2.14,0-4.62-.89-5.68-2.15s-1.84-3.49-2.74-5.29-1.86-3.7-2.68-5.35c.66-1.63,1.6-3.4,2.47-5.22,1.58-3.18,2.73-6.91,6.56-7.68Zm-41.93,21.57c-.15,.1-.68,.65-.78,.73-2.01,1.76-4.54,2.81-7.21,3-6.89,.63-12.99-4.44-13.62-11.33-.01-.11-.02-.23-.03-.34-.45-5.42,2.7-10.49,7.75-12.49,3.15-1.36,7.35-1,12.42-1,0-2.83,.09-5.85-.07-8.57-2.58,0-4.86,.08-7.41,.06-1.28,0-2.54-.19-3.77-.54-6.7-2.03-10.48-9.1-8.46-15.8,1.03-3.41,3.45-6.23,6.67-7.76,2.58-1.24,5.51-1.59,8.31-1,1.25,.28,2.45,.75,3.57,1.38,1,.6,1.88,1.4,2.81,2.05,1.86-2.12,3.92-4,5.76-6.17-4.16-4.13-9.86-6.33-15.71-6.07-11.71,.41-20.88,10.23-20.47,21.94,.05,1.56,.28,3.11,.67,4.62,1.28,4.58,3.97,8.64,7.69,11.6-4.59,3.41-7.55,8.58-8.17,14.27-.71,5.95,1.1,11.92,5,16.47,7.55,8.67,20.62,9.76,29.51,2.47,.51-.36,.98-.77,1.4-1.23l-5.86-6.29Z"/><g class="cls-2"><path class="cls-4" d="M24.92,42H101.16v3.5H24.92v-3.5Zm0-8.45v3.48H101.16v-3.45l-76.24-.03Zm0,17.07v5.38H101.16v-5.35l-76.24-.03Zm0,10.63v8H101.16v-8H24.92Zm0,12.81v10.66H101.16v-10.63l-76.24-.03Zm0,14.9v13.29H101.16v-13.25l-76.24-.04Zm0,17v16H101.16v-15.96l-76.24-.04Zm0,19.07v18.6H101.16v-18.6H24.92Zm0,20.56v21.26H101.16v-21.23l-76.24-.03Z"/></g><path class="cls-3" d="M132.5,103.37c.7-.11,1.41-.13,2.11-.08v-8.54c-8.45,.45-13.26,5.58-15.9,11.7-2.65-6.12-7.45-11.25-15.9-11.7v8.54c.7-.05,1.41-.03,2.1,.08,3.83,.77,5,4.5,6.52,7.68,.88,1.82,1.81,3.59,2.47,5.22l-2.67,5.35c-.91,1.8-1.6,3.9-2.75,5.29s-3.54,2.17-5.67,2.15v8.55c6.64,.09,11.51-3.11,14-7.89,.67-1.25,1.11-2.61,1.86-3.84,.74,1.23,1.19,2.59,1.85,3.84,2.54,4.78,7.4,8,14.05,7.89v-8.55c-2.14,0-4.62-.89-5.68-2.15s-1.84-3.49-2.74-5.29-1.86-3.7-2.68-5.35c.66-1.63,1.6-3.4,2.47-5.22,1.58-3.18,2.73-6.91,6.56-7.68Z"/></g></g></g></g></svg>