<svg xmlns="http://www.w3.org/2000/svg" xmlns:xlink="http://www.w3.org/1999/xlink" viewBox="0 0 1423 532"><defs><style>.cls-1{fill:#fff;}.cls-2{fill:url(#linear-gradient);}.cls-3{fill:url(#linear-gradient-2);}.cls-4{fill:url(#linear-gradient-3);}.cls-5{fill:url(#linear-gradient-4);}.cls-6{fill:url(#linear-gradient-5);}.cls-7{fill:url(#linear-gradient-6);}.cls-8{fill:url(#linear-gradient-7);}.cls-9{fill:url(#linear-gradient-8);}</style><linearGradient id="linear-gradient" x1="1090" y1="252" x2="1404" y2="252" gradientUnits="userSpaceOnUse"><stop offset="0" stop-color="#e7e7e7" stop-opacity="0"/><stop offset="0.16" stop-color="#e7e7e7" stop-opacity="0.1"/><stop offset="0.49" stop-color="#e7e7e7" stop-opacity="0.36"/><stop offset="0.97" stop-color="#e7e7e7" stop-opacity="0.77"/><stop offset="1" stop-color="#e7e7e7" stop-opacity="0.8"/></linearGradient><linearGradient id="linear-gradient-2" x1="1090" y1="273" x2="1404" y2="273" xlink:href="#linear-gradient"/><linearGradient id="linear-gradient-3" x1="1090" y1="300.5" x2="1404" y2="300.5" xlink:href="#linear-gradient"/><linearGradient id="linear-gradient-4" x1="1090" y1="333" x2="1404" y2="333" xlink:href="#linear-gradient"/><linearGradient id="linear-gradient-5" x1="1090" y1="369" x2="1404" y2="369" xlink:href="#linear-gradient"/><linearGradient id="linear-gradient-6" x1="1090" y1="410.5" x2="1404" y2="410.5" xlink:href="#linear-gradient"/><linearGradient id="linear-gradient-7" x1="1090" y1="456.5" x2="1404" y2="456.5" xlink:href="#linear-gradient"/><linearGradient id="linear-gradient-8" x1="1090" y1="508" x2="1404" y2="508" xlink:href="#linear-gradient"/></defs><g id="Layer_2" data-name="Layer 2"><g id="Stats_WHITE" data-name="Stats WHITE"><rect class="cls-1" width="1423" height="532"/><polygon class="cls-2" points="1058 248 1423 248 1423 256 1058 256 1058 248 1058 248"/><polygon class="cls-3" points="1058 267 1423 267 1423 279 1058 279 1058 267 1058 267"/><polygon class="cls-4" points="1058 291 1423 291 1423 310 1058 310 1058 291 1058 291"/><polygon class="cls-5" points="1058 321 1423 321 1423 345 1058 345 1058 321 1058 321"/><polygon class="cls-6" points="1058 354 1423 354 1423 384 1058 384 1058 354 1058 354"/><polygon class="cls-7" points="1058 393 1423 393 1423 428 1058 428 1058 393 1058 393"/><polygon class="cls-8" points="1058 436 1423 436 1423 477 1058 477 1058 436 1058 436"/><polygon class="cls-9" points="1058 484 1423 484 1423 532 1058 532 1058 484 1058 484"/></g></g></svg>