<svg xmlns="http://www.w3.org/2000/svg" xmlns:xlink="http://www.w3.org/1999/xlink" viewBox="0 0 1423 635"><defs><style>.cls-1{fill:#d9d9d9;}.cls-2{fill:url(#linear-gradient);}.cls-3{fill:url(#linear-gradient-2);}.cls-4{fill:url(#linear-gradient-3);}.cls-5{fill:url(#linear-gradient-4);}.cls-6{fill:url(#linear-gradient-5);}.cls-7{fill:url(#linear-gradient-6);}.cls-8{fill:url(#linear-gradient-7);}.cls-9{fill:url(#linear-gradient-8);}</style><linearGradient id="linear-gradient" x1="1012.36" y1="354" x2="1398.63" y2="354" gradientUnits="userSpaceOnUse"><stop offset="0" stop-color="#a6a6a6" stop-opacity="0"/><stop offset="1" stop-color="#a6a6a6" stop-opacity="0.42"/></linearGradient><linearGradient id="linear-gradient-2" x1="1012.36" y1="375" x2="1398.63" y2="375" xlink:href="#linear-gradient"/><linearGradient id="linear-gradient-3" x1="1012.36" y1="402.5" x2="1398.63" y2="402.5" xlink:href="#linear-gradient"/><linearGradient id="linear-gradient-4" x1="1012.36" y1="435" x2="1398.63" y2="435" xlink:href="#linear-gradient"/><linearGradient id="linear-gradient-5" x1="1012.36" y1="471" x2="1398.63" y2="471" xlink:href="#linear-gradient"/><linearGradient id="linear-gradient-6" x1="1012.36" y1="512.5" x2="1398.63" y2="512.5" xlink:href="#linear-gradient"/><linearGradient id="linear-gradient-7" x1="1012.36" y1="558.5" x2="1398.63" y2="558.5" xlink:href="#linear-gradient"/><linearGradient id="linear-gradient-8" x1="1012.36" y1="610" x2="1398.63" y2="610" xlink:href="#linear-gradient"/></defs><g id="Layer_2" data-name="Layer 2"><g id="Benefits_of_moisture" data-name="Benefits of moisture"><rect class="cls-1" width="1423" height="635"/><polygon class="cls-2" points="973 350 1422 350 1422 358 973 358 973 350 973 350"/><polygon class="cls-3" points="973 369 1422 369 1422 381 973 381 973 369 973 369"/><polygon class="cls-4" points="973 393 1422 393 1422 412 973 412 973 393 973 393"/><polygon class="cls-5" points="973 423 1422 423 1422 447 973 447 973 423 973 423"/><polygon class="cls-6" points="973 456 1422 456 1422 486 973 486 973 456 973 456"/><polygon class="cls-7" points="973 495 1422 495 1422 530 973 530 973 495 973 495"/><polygon class="cls-8" points="973 538 1422 538 1422 579 973 579 973 538 973 538"/><polygon class="cls-9" points="973 586 1422 586 1422 634 973 634 973 586 973 586"/></g></g></svg>