<svg xmlns="http://www.w3.org/2000/svg" xmlns:xlink="http://www.w3.org/1999/xlink" viewBox="0 0 1423 361"><defs><style>.cls-1{fill:url(#linear-gradient);}.cls-2{fill:url(#linear-gradient-2);}.cls-3{fill:url(#linear-gradient-3);}.cls-4{fill:url(#linear-gradient-4);}.cls-5{fill:url(#linear-gradient-5);}.cls-6{fill:url(#linear-gradient-6);}.cls-7{fill:url(#linear-gradient-7);}.cls-8{fill:url(#linear-gradient-8);}.cls-9{fill:url(#linear-gradient-9);}</style><linearGradient id="linear-gradient" x1="711.5" y1="389" x2="711.5" y2="28.86" gradientTransform="matrix(1, 0, 0, -1, 0, 362)" gradientUnits="userSpaceOnUse"><stop offset="0.1" stop-color="#065887"/><stop offset="1" stop-color="#0080b3"/></linearGradient><linearGradient id="linear-gradient-2" x1="1090" y1="281" x2="1404" y2="281" gradientTransform="matrix(1, 0, 0, -1, 0, 362)" gradientUnits="userSpaceOnUse"><stop offset="0" stop-color="#fff" stop-opacity="0"/><stop offset="0.19" stop-color="#fff" stop-opacity="0.12"/><stop offset="0.58" stop-color="#fff" stop-opacity="0.44"/><stop offset="1" stop-color="#fff" stop-opacity="0.8"/></linearGradient><linearGradient id="linear-gradient-3" y1="260" y2="260" xlink:href="#linear-gradient-2"/><linearGradient id="linear-gradient-4" y1="232.5" y2="232.5" xlink:href="#linear-gradient-2"/><linearGradient id="linear-gradient-5" y1="200" y2="200" xlink:href="#linear-gradient-2"/><linearGradient id="linear-gradient-6" y1="164" y2="164" xlink:href="#linear-gradient-2"/><linearGradient id="linear-gradient-7" y1="122.5" y2="122.5" xlink:href="#linear-gradient-2"/><linearGradient id="linear-gradient-8" y1="76.5" y2="76.5" xlink:href="#linear-gradient-2"/><linearGradient id="linear-gradient-9" y1="25" y2="25" xlink:href="#linear-gradient-2"/></defs><g id="Layer_2" data-name="Layer 2"><g id="Layer_1-2" data-name="Layer 1"><g id="Layer_2-2" data-name="Layer 2"><g id="CTA_panel" data-name="CTA panel"><rect class="cls-1" width="1423" height="361"/><polygon class="cls-2" points="1058 77 1423 77 1423 85 1058 85 1058 77 1058 77"/><polygon class="cls-3" points="1058 96 1423 96 1423 108 1058 108 1058 96 1058 96"/><polygon class="cls-4" points="1058 120 1423 120 1423 139 1058 139 1058 120 1058 120"/><polygon class="cls-5" points="1058 150 1423 150 1423 174 1058 174 1058 150 1058 150"/><polygon class="cls-6" points="1058 183 1423 183 1423 213 1058 213 1058 183 1058 183"/><polygon class="cls-7" points="1058 222 1423 222 1423 257 1058 257 1058 222 1058 222"/><polygon class="cls-8" points="1058 265 1423 265 1423 306 1058 306 1058 265 1058 265"/><polygon class="cls-9" points="1058 313 1423 313 1423 361 1058 361 1058 313 1058 313"/></g></g></g></g></svg>