<svg xmlns="http://www.w3.org/2000/svg" xmlns:xlink="http://www.w3.org/1999/xlink" viewBox="0 0 449 284"><defs><style>.cls-1{fill:url(#linear-gradient);}.cls-2{fill:url(#linear-gradient-2);}.cls-3{fill:url(#linear-gradient-3);}.cls-4{fill:url(#linear-gradient-4);}.cls-5{fill:url(#linear-gradient-5);}.cls-6{fill:url(#linear-gradient-6);}.cls-7{fill:url(#linear-gradient-7);}.cls-8{fill:url(#linear-gradient-8);}</style><linearGradient id="linear-gradient" x1="39.36" y1="4" x2="425.63" y2="4" gradientUnits="userSpaceOnUse"><stop offset="0" stop-color="#575a66" stop-opacity="0"/><stop offset="0.48" stop-color="#4e5057" stop-opacity="0.35"/><stop offset="1" stop-color="#434343" stop-opacity="0.8"/></linearGradient><linearGradient id="linear-gradient-2" x1="39.36" y1="25" x2="425.63" y2="25" xlink:href="#linear-gradient"/><linearGradient id="linear-gradient-3" x1="39.36" y1="52.5" x2="425.63" y2="52.5" xlink:href="#linear-gradient"/><linearGradient id="linear-gradient-4" x1="39.36" y1="85" x2="425.63" y2="85" xlink:href="#linear-gradient"/><linearGradient id="linear-gradient-5" x1="39.36" y1="121" x2="425.63" y2="121" xlink:href="#linear-gradient"/><linearGradient id="linear-gradient-6" x1="39.36" y1="162.5" x2="425.63" y2="162.5" xlink:href="#linear-gradient"/><linearGradient id="linear-gradient-7" x1="39.36" y1="208.5" x2="425.63" y2="208.5" xlink:href="#linear-gradient"/><linearGradient id="linear-gradient-8" x1="39.36" y1="260" x2="425.63" y2="260" xlink:href="#linear-gradient"/></defs><g id="Layer_2" data-name="Layer 2"><g id="Products_panel_-_ICON_based" data-name="Products panel - ICON based"><polygon class="cls-1" points="0 0 449 0 449 8 0 8 0 0 0 0"/><polygon class="cls-2" points="0 19 449 19 449 31 0 31 0 19 0 19"/><polygon class="cls-3" points="0 43 449 43 449 62 0 62 0 43 0 43"/><polygon class="cls-4" points="0 73 449 73 449 97 0 97 0 73 0 73"/><polygon class="cls-5" points="0 106 449 106 449 136 0 136 0 106 0 106"/><polygon class="cls-6" points="0 145 449 145 449 180 0 180 0 145 0 145"/><polygon class="cls-7" points="0 188 449 188 449 229 0 229 0 188 0 188"/><polygon class="cls-8" points="0 236 449 236 449 284 0 284 0 236 0 236"/></g></g></svg>