<svg id="Layer_1" data-name="Layer 1" xmlns="http://www.w3.org/2000/svg" viewBox="0 0 105.2 72.73"><defs><style>.cls-1{fill:#1e1d21;}.cls-2{fill:#fff;}.cls-3{fill:#1d6e9c;}</style></defs><g id="Layer_2" data-name="Layer 2"><g id="NAV"><polygon class="cls-1" points="0 67.49 4.37 67.49 4.37 60.31 9.54 60.31 9.54 67.49 13.91 67.49 13.91 50.26 9.54 50.26 9.54 57.21 4.37 57.21 4.37 50.26 0 50.26 0 67.49 0 67.49"/><path class="cls-1" d="M15.36,72.72h3.32c3.88,0,4.74-3,5.94-6.06l4.49-11.4H24.88l-2.51,8h-.05l-2.63-8H15.13l5,12.53A2.18,2.18,0,0,1,18,69.5H16.41l-1.05,3.23Z"/><path class="cls-1" d="M53.89,55.1a8.52,8.52,0,0,0-1.43-.1,3.75,3.75,0,0,0-3.61,2.53H48.8V55.24H44.94V67.49h4.23V62.31c0-2.39,1.1-3.83,3.08-3.83a5.3,5.3,0,0,1,1.43.14Z"/><path class="cls-1" d="M61.63,67.77c4,0,7.12-2.35,7.12-6.4S65.67,55,61.63,55s-7.12,2.35-7.12,6.41S57.59,67.77,61.63,67.77Zm0-3c-2,0-2.75-1.62-2.75-3.43s.8-3.45,2.75-3.45,2.75,1.62,2.75,3.45-.79,3.47-2.75,3.47Z"/><path class="cls-1" d="M70.45,67.49h4.24V62.31c0-2.62.89-3.83,2.62-3.83,1.15,0,2,.78,2,3.08v5.91h4.23V59.85c0-2.54-1.34-4.89-4.68-4.89A4.66,4.66,0,0,0,74.4,57.5h0V55.24h-4Z"/><polygon class="cls-1" points="85.63 67.49 89.86 67.49 89.86 55.24 85.63 55.24 85.63 67.49 85.63 67.49"/><polygon class="cls-2" points="89.86 50.04 85.63 50.04 85.63 53.17 89.86 53.17 89.86 50.04 89.86 50.04"/><polygon class="cls-1" points="91.27 67.49 96.04 67.49 98.06 63.68 100.11 67.49 105.2 67.49 101.12 61.21 104.95 55.24 100.32 55.24 98.41 58.91 96.61 55.24 91.6 55.24 95.43 61.26 91.27 67.49 91.27 67.49"/><path class="cls-1" d="M43,49.82H38.68v7h0A4.87,4.87,0,0,0,34.43,55c-3.38,0-5.25,3.17-5.25,6.18,0,3.61,1.95,6.63,5.58,6.63A4.54,4.54,0,0,0,39,65.3h.09v2.18H43ZM33.58,61.23c0-1.62.91-3,2.56-3s2.58,1.34,2.58,3.2a2.87,2.87,0,0,1-2.58,3.12c-1.6,0-2.56-1.34-2.56-3.28Z"/><polygon class="cls-3" points="32.81 0 71.91 0 71.91 1.21 32.81 1.21 32.81 0 32.81 0"/><polygon class="cls-3" points="32.81 3.01 71.91 3.01 71.91 4.86 32.81 4.86 32.81 3.01 32.81 3.01"/><polygon class="cls-3" points="32.81 6.72 71.91 6.72 71.91 9.5 32.81 9.5 32.81 6.72 32.81 6.72"/><polygon class="cls-3" points="32.81 11.19 71.91 11.19 71.91 14.89 32.81 14.89 32.81 11.19 32.81 11.19"/><polygon class="cls-3" points="32.81 16.39 71.91 16.39 71.91 21.02 32.81 21.02 32.81 16.39 32.81 16.39"/><polygon class="cls-3" points="32.81 22.32 71.91 22.32 71.91 27.88 32.81 27.88 32.81 22.32 32.81 22.32"/><polygon class="cls-3" points="32.81 28.97 71.91 28.97 71.91 35.46 32.81 35.46 32.81 28.97 32.81 28.97"/><polygon class="cls-3" points="32.81 36.41 71.91 36.41 71.91 43.83 32.81 43.83 32.81 36.41 32.81 36.41"/></g></g></svg>