<?xml version="1.0" encoding="UTF-8"?>
<svg id="Layer_2" data-name="Layer 2" xmlns="http://www.w3.org/2000/svg" viewBox="0 0 609.84 421.54">
  <defs>
    <style>
      .cls-1, .cls-2 {
        fill: #1f1d21;
      }

      .cls-1, .cls-2, .cls-3 {
        stroke-width: 0px;
      }

      .cls-2 {
        fill-rule: evenodd;
      }

      .cls-3 {
        fill: #06589b;
      }
    </style>
  </defs>
  <g id="Layer_1-2" data-name="Layer 1">
    <g>
      <polygon class="cls-1" points="0 391.19 25.33 391.19 25.33 349.6 55.3 349.6 55.3 391.19 80.63 391.19 80.63 291.36 55.3 291.36 55.3 331.62 25.33 331.62 25.33 291.36 0 291.36 0 391.19"/>
      <path class="cls-1" d="m89.03,421.54s14.1-.1,19.28-.1c22.47,0,27.48-17.3,34.42-35.15l26.02-66.08h-24.52l-14.57,46.33h-.27l-15.26-46.33h-26.42l28.74,72.62c-1.77,6.27-6.33,10.03-12.32,10.03h-8.99l-6.09,18.68h0Z"/>
      <path class="cls-2" d="m312.38,319.39c-2.45-.41-5.45-.82-8.31-.82-10.62,0-16.75,5.72-20.98,14.72h-.27v-13.08h-22.34v70.99h24.52v-29.98c0-13.9,6.4-22.21,17.84-22.21,2.86,0,5.58,0,8.31.82l1.23-20.44h0Z"/>
      <path class="cls-2" d="m357.26,392.83c23.43,0,41.27-13.63,41.27-37.06s-17.84-37.2-41.27-37.2-41.27,13.63-41.27,37.2c0,23.43,17.84,37.06,41.27,37.06h0Zm0-17.17c-11.3,0-15.94-9.4-15.94-19.89s4.63-20.03,15.94-20.03,15.94,9.4,15.94,20.03-4.63,19.89-15.94,19.89h0Z"/>
      <path class="cls-2" d="m408.39,391.19h24.52v-29.98c0-15.26,5.18-22.21,15.26-22.21,6.67,0,11.31,4.5,11.31,17.85v34.33h24.52v-44.28c0-14.71-7.76-28.34-27.11-28.34-11.17,0-20.97,4.5-25.88,14.72h-.27v-13.08h-22.34v70.99h0Z"/>
      <polygon class="cls-1" points="496.36 391.19 520.88 391.19 520.88 320.21 496.36 320.21 496.36 391.19"/>
      <polygon class="cls-1" points="520.88 290.08 496.36 290.08 496.36 308.2 520.88 308.2 520.88 290.08"/>
      <polygon class="cls-1" points="529.07 391.19 556.72 391.19 568.44 369.12 580.29 391.19 609.84 391.19 586.15 354.81 608.35 320.21 581.51 320.21 570.48 341.46 559.99 320.21 530.98 320.21 553.18 355.09 529.07 391.19"/>
      <path class="cls-2" d="m248.97,288.8h-24.65v40.54h-.27c-6.27-8.18-14.57-10.77-24.38-10.77-19.61,0-30.37,18.4-30.37,35.84,0,20.98,11.31,38.42,32.42,38.42,11.3,0,21.25-6.41,24.38-14.31h.27v12.67h22.61v-102.4h0Zm-54.35,66.15c0-9.4,5.31-17.57,14.85-17.57,8.99,0,14.98,7.77,14.98,18.53s-6.81,18.12-14.98,18.12c-9.26,0-14.85-7.76-14.85-19.07h0Z"/>
      <polygon class="cls-3" points="190.2 0 416.81 0 416.81 7.01 190.2 7.01 190.2 0"/>
      <polygon class="cls-3" points="190.2 17.45 416.81 17.45 416.81 28.2 190.2 28.2 190.2 17.45"/>
      <polygon class="cls-3" points="190.2 38.93 416.81 38.93 416.81 55.06 190.2 55.06 190.2 38.93"/>
      <polygon class="cls-3" points="190.2 64.84 416.81 64.84 416.81 86.34 190.2 86.34 190.2 64.84"/>
      <polygon class="cls-3" points="190.2 94.99 416.81 94.99 416.81 121.86 190.2 121.86 190.2 94.99"/>
      <polygon class="cls-3" points="190.2 129.37 416.81 129.37 416.81 161.62 190.2 161.62 190.2 129.37"/>
      <polygon class="cls-3" points="190.2 167.93 416.81 167.93 416.81 205.56 190.2 205.56 190.2 167.93"/>
      <polygon class="cls-3" points="190.2 211.06 416.81 211.06 416.81 254.06 190.2 254.06 190.2 211.06"/>
    </g>
  </g>
</svg>