<svg xmlns="http://www.w3.org/2000/svg" viewBox="0 0 170 160"><defs><style>.cls-1,.cls-2,.cls-3,.cls-4,.cls-5,.cls-6,.cls-7,.cls-9{fill:none;}.cls-1,.cls-2,.cls-3,.cls-4,.cls-5,.cls-6,.cls-7{stroke:#006c97;stroke-linecap:round;stroke-width:3px;}.cls-2{stroke-dasharray:3.33 3.88;}.cls-3{stroke-dasharray:6.35 7.4;}.cls-4{stroke-dasharray:3.07 3.58;}.cls-5{stroke-dasharray:5.95 6.94;}.cls-6{stroke-dasharray:3.72 4.34;}.cls-7{stroke-dasharray:4.11 4.8;}.cls-8{fill:#006c97;}</style></defs><g id="Layer_2" data-name="Layer 2"><g id="Layer_1-2" data-name="Layer 1"><path class="cls-1" d="M92,96c-.14,1-.24,2-.3,3h-3"/><line class="cls-2" x1="84.82" y1="98.97" x2="79.55" y2="98.97"/><path class="cls-1" d="M77.61,99h-3c0-1,.06-2,.1-3"/><path class="cls-3" d="M75.46,88.61c.05-.3.11-.59.17-.87a24,24,0,0,1,3.24-7.89,59.34,59.34,0,0,1,6.87-8.63,65.07,65.07,0,0,0,6.87-8.8A15.48,15.48,0,0,0,95,54.12a10,10,0,0,0-4.78-8.95A20.07,20.07,0,0,0,79.1,42.09a48,48,0,0,0-15.74,3"/><path class="cls-1" d="M59.9,46.42c-.9.37-1.82.76-2.75,1.18l-.3-3"/><line class="cls-4" x1="56.5" y1="41.05" x2="56.02" y2="36.21"/><path class="cls-1" d="M55.85,34.43l-.3-3Q57,31,58.4,30.51"/><path class="cls-5" d="M65.1,28.7a82.2,82.2,0,0,1,18.64-2.18,48.66,48.66,0,0,1,11.81,1.41,32.41,32.41,0,0,1,10.25,4.49,22.45,22.45,0,0,1,7.28,7.94,23.25,23.25,0,0,1,2.68,11.44,23.08,23.08,0,0,1-2.86,11.63,76,76,0,0,1-8.73,11.78,92.89,92.89,0,0,0-9,11.81,22.55,22.55,0,0,0-2.44,5.58"/><polyline class="cls-1" points="89.94 108.76 92.94 108.76 92.94 111.76"/><line class="cls-6" x1="92.94" y1="116.1" x2="92.94" y2="121.99"/><polyline class="cls-1" points="92.94 124.16 92.94 127.16 89.94 127.16"/><line class="cls-7" x1="85.14" y1="127.16" x2="78.63" y2="127.16"/><polyline class="cls-1" points="76.23 127.16 73.23 127.16 73.23 124.16"/><line class="cls-6" x1="73.23" y1="119.82" x2="73.23" y2="113.93"/><polyline class="cls-1" points="73.23 111.76 73.23 108.76 76.23 108.76"/><line class="cls-7" x1="81.03" y1="108.76" x2="87.54" y2="108.76"/><path class="cls-8" d="M142.56,7h-6a1.5,1.5,0,0,0,0,3h6a1.5,1.5,0,0,0,1.28-.72,1.5,1.5,0,0,0,1.17.9,16.87,16.87,0,0,1,4.86,1.47,1.46,1.46,0,0,0,.64.15,1.5,1.5,0,0,0,.65-2.86l-1-.44h0l-.08,0h-.14l0,0H149l0,0h0a19.86,19.86,0,0,0-3.54-.85l-.21,0a1.51,1.51,0,0,0-1.28.73A1.5,1.5,0,0,0,142.56,7Zm-13,0h-6a1.5,1.5,0,0,0,0,3h6a1.5,1.5,0,0,0,0-3Zm-13,0h-6a1.5,1.5,0,0,0,0,3h6a1.5,1.5,0,0,0,0-3Zm-13,0h-6a1.5,1.5,0,0,0,0,3h6a1.5,1.5,0,0,0,0-3Zm-13,0h-6a1.5,1.5,0,0,0,0,3h6a1.5,1.5,0,0,0,0-3Zm-13,0h-6a1.5,1.5,0,0,0,0,3h6a1.5,1.5,0,0,0,0-3Zm-13,0h-6a1.5,1.5,0,0,0,0,3h6a1.5,1.5,0,0,0,0-3Zm-13,0h-6a1.5,1.5,0,0,0,0,3h6a1.5,1.5,0,0,0,0-3Zm-13,0h-6a1.5,1.5,0,0,0,0,3h6a1.5,1.5,0,0,0,0-3ZM25.7,7.09h-.14a20,20,0,0,0-5.8,1.44,1.5,1.5,0,0,0,.58,2.89,1.46,1.46,0,0,0,.57-.12,17.06,17.06,0,0,1,4.93-1.22,1.5,1.5,0,0,0-.14-3Zm-10.79,4.8a1.5,1.5,0,0,0-1,.4l-.1.09h0l0,0h0l0,0h-.14l0,0h0l0,0h0l0,0h0A19.73,19.73,0,0,0,10.8,15.9h0l0,0h0l0,0h0l0,0h0v0h0v0h-.13l0,0h0v0h0l0,0h0l0,0h0l0,0h0l-.25.42a1.5,1.5,0,1,0,2.59,1.51,17.13,17.13,0,0,1,3.19-4,1.51,1.51,0,0,0-1-2.61ZM9.23,22.25a1.5,1.5,0,0,0-1.48,1.23c0,.24-.08.47-.11.71h0v0h0v0h0v.05h0v0h0v0h0v0h0v.05h0v0h0v0h0v0h0v.07h0v0h0V25h0v0h0v.07h0v0h0v.07h0v0h0v.06h0v0h0v.08h0v.08h0v.07h0v.05h0v.05h0v0h0v0h0v0h0v0h0v0h0v0h0v0h0v0h0v0h0v2.47a1.5,1.5,0,0,0,3,0V27a17.58,17.58,0,0,1,.26-3,1.5,1.5,0,0,0-1.21-1.74l-.26,0ZM8.94,35a1.5,1.5,0,0,0-1.5,1.5v6a1.5,1.5,0,0,0,3,0v-6A1.5,1.5,0,0,0,8.94,35Zm0,13a1.5,1.5,0,0,0-1.5,1.5v6a1.5,1.5,0,0,0,3,0v-6A1.5,1.5,0,0,0,8.94,48Zm0,13a1.5,1.5,0,0,0-1.5,1.5v6a1.5,1.5,0,0,0,3,0v-6A1.5,1.5,0,0,0,8.94,61Zm0,13a1.5,1.5,0,0,0-1.5,1.5v6a1.5,1.5,0,0,0,3,0v-6A1.5,1.5,0,0,0,8.94,74Zm0,13a1.5,1.5,0,0,0-1.5,1.5v6a1.5,1.5,0,0,0,3,0v-6A1.5,1.5,0,0,0,8.94,87Zm0,13a1.5,1.5,0,0,0-1.5,1.5v6a1.5,1.5,0,0,0,3,0v-6a1.5,1.5,0,0,0-1.5-1.5Zm0,13a1.5,1.5,0,0,0-1.5,1.5v6a1.5,1.5,0,0,0,3,0v-6a1.5,1.5,0,0,0-1.5-1.5Zm0,13a1.5,1.5,0,0,0-1.5,1.5V133h0v0h0v0h0v.14A1.5,1.5,0,0,0,9,134.94H9a1.49,1.49,0,0,0,1.47-1.53c0-.13,0-.27,0-.4v-5.53a1.5,1.5,0,0,0-1.5-1.5Zm1.27,12.28a1.47,1.47,0,0,0-.54.1,1.5,1.5,0,0,0-.85,1.94,19.83,19.83,0,0,0,3,5.19A1.54,1.54,0,0,0,13,146a1.52,1.52,0,0,0,.94-.33,1.5,1.5,0,0,0,.23-2.11,17.1,17.1,0,0,1-2.54-4.4,1.5,1.5,0,0,0-1.4-.95Zm7.61,9.05a1.47,1.47,0,0,0-1.28.72,1.51,1.51,0,0,0,.49,2.06,20.67,20.67,0,0,0,3.48,1.68h2a1.49,1.49,0,0,0,.36.05,1.5,1.5,0,0,0,.37-3,16.72,16.72,0,0,1-4.68-2,1.49,1.49,0,0,0-.78-.22ZM35.5,150h-6a1.5,1.5,0,0,0,0,3h6a1.5,1.5,0,0,0,0-3Zm13,0h-6a1.5,1.5,0,0,0,0,3h6a1.5,1.5,0,0,0,0-3Zm13,0h-6a1.5,1.5,0,0,0,0,3h6a1.5,1.5,0,0,0,0-3Zm13,0h-6a1.5,1.5,0,0,0,0,3h6a1.5,1.5,0,0,0,0-3Zm13,0h-6a1.5,1.5,0,0,0,0,3h6a1.5,1.5,0,0,0,0-3Zm13,0h-6a1.5,1.5,0,0,0,0,3h6a1.5,1.5,0,0,0,0-3Zm13,0h-6a1.5,1.5,0,0,0,0,3h6a1.5,1.5,0,0,0,0-3Zm13,0h-6a1.5,1.5,0,0,0,0,3h6a1.5,1.5,0,0,0,0-3Zm13,0h-6a1.5,1.5,0,0,0,0,3h6a1.5,1.5,0,0,0,0-3Zm11.88-2.24a1.54,1.54,0,0,0-.72.18,16.65,16.65,0,0,1-4.77,1.73,1.5,1.5,0,0,0,.29,3l.29,0c.28-.05.55-.11.83-.18h.26a19.59,19.59,0,0,0,4.53-1.78,1.5,1.5,0,0,0-.71-2.82Zm8.05-8.65a1.48,1.48,0,0,0-1.37.88,17,17,0,0,1-2.76,4.26,1.51,1.51,0,0,0,1.12,2.5,1.47,1.47,0,0,0,1.12-.51c.33-.37.65-.76,1-1.15h0l0,0h0l0,0h0l0,0h0v0h0l0,0h.14l0,0h0v0h0l0,0h0l0,0h0l.06-.09h0c.37-.52.7-1,1-1.6h0l0-.06h0l0,0h0l0,0h0l0,0h0l0,0h0v0h.26l0,0h0v0h0l0,0h0v0h0l0,0h0l0,0h0l0,0h0c.08-.18.17-.36.25-.55a1.49,1.49,0,0,0-1.36-2.11ZM161.06,127a1.5,1.5,0,0,0-1.5,1.5V133c0,.41,0,.84-.05,1.26a1.5,1.5,0,0,0,1.39,1.6H161a1.49,1.49,0,0,0,1.49-1.38l0-.34h0v0h0v0h0v0h0v0h0v0h0v0h0v-.05h0v0h0v0h0v0h0v0h0v0h0v0h0v0h0v0h0v0h0v0h0v0h0v-4.53a1.5,1.5,0,0,0-1.5-1.5Zm0-13a1.5,1.5,0,0,0-1.5,1.5v6a1.5,1.5,0,0,0,3,0v-6a1.5,1.5,0,0,0-1.5-1.5Zm0-13a1.5,1.5,0,0,0-1.5,1.5v6a1.5,1.5,0,0,0,3,0v-6a1.5,1.5,0,0,0-1.5-1.5Zm0-13a1.5,1.5,0,0,0-1.5,1.5v6a1.5,1.5,0,0,0,3,0v-6a1.5,1.5,0,0,0-1.5-1.5Zm0-13a1.5,1.5,0,0,0-1.5,1.5v6a1.5,1.5,0,0,0,3,0v-6a1.5,1.5,0,0,0-1.5-1.5Zm0-13a1.5,1.5,0,0,0-1.5,1.5v6a1.5,1.5,0,0,0,3,0v-6a1.5,1.5,0,0,0-1.5-1.5Zm0-13a1.5,1.5,0,0,0-1.5,1.5v6a1.5,1.5,0,0,0,3,0v-6a1.5,1.5,0,0,0-1.5-1.5Zm0-13a1.5,1.5,0,0,0-1.5,1.5v6a1.5,1.5,0,0,0,3,0v-6a1.5,1.5,0,0,0-1.5-1.5Zm-.15-12.8h-.19a1.5,1.5,0,0,0-1.3,1.68,17,17,0,0,1,.14,2.14v3.47a1.5,1.5,0,0,0,3,0V27h0v0h0v0h0v0h0v0h0v0h0v0h0v0h0v0h0v0h0v0h0v-.06h0c0-.47-.07-.94-.13-1.4a1.5,1.5,0,0,0-1.49-1.31Zm-5.15-10.63a1.48,1.48,0,0,0-1,.43,1.49,1.49,0,0,0,0,2.12,17.26,17.26,0,0,1,3,4.12A1.51,1.51,0,0,0,159,20a1.44,1.44,0,0,0,.69-.17,1.49,1.49,0,0,0,.64-2,19.7,19.7,0,0,0-2.63-3.89h0l0,0h0l0,0h0l0,0h-.05l0,0h-.16l0,0h0l0,0h0l0,0h0l-.46-.48a1.48,1.48,0,0,0-1.06-.45Z"/><rect class="cls-9" width="170" height="160"/></g></g></svg>