<svg xmlns="http://www.w3.org/2000/svg" xmlns:xlink="http://www.w3.org/1999/xlink" viewBox="0 0 165.03 95"><defs><style>.cls-1{fill:none;}.cls-2{fill:#b6e100;}.cls-3{clip-path:url(#clip-path);}.cls-4{fill:#80bc05;}.cls-5{fill:#80bb05;}.cls-6{fill:#fff;}</style><clipPath id="clip-path" transform="translate(15.03)"><polygon class="cls-1" points="74.44 75.47 46.7 90.06 52 59.17 29.56 37.29 60.57 32.78 74.44 4.68 88.31 32.78 119.33 37.29 96.89 59.17 102.18 90.06 74.44 75.47"/></clipPath></defs><g id="Layer_2" data-name="Layer 2"><g id="Layer_1-2" data-name="Layer 1"><rect class="cls-1" x="15.03" width="150" height="95"/><polygon class="cls-2" points="89.47 75.47 61.73 90.06 67.02 59.17 44.58 37.29 75.6 32.78 89.47 4.68 103.34 32.78 134.35 37.29 111.91 59.17 117.21 90.06 89.47 75.47"/><g class="cls-3"><polygon class="cls-4" points="0 8.6 89.51 8.6 89.51 10.88 0 10.88 0 8.6 0 8.6"/><polygon class="cls-5" points="0 3.06 89.51 3.06 89.51 5.34 0 5.34 0 3.06 0 3.06"/><polygon class="cls-4" points="0 14.27 89.51 14.27 89.51 17.75 0 17.75 0 14.27 0 14.27"/><polygon class="cls-4" points="0 21.24 89.51 21.24 89.51 26.47 0 26.47 0 21.24 0 21.24"/><polygon class="cls-4" points="0 29.66 89.51 29.66 89.51 36.63 0 36.63 0 29.66 0 29.66"/><polygon class="cls-4" points="0 39.44 89.51 39.44 89.51 48.17 0 48.17 0 39.44 0 39.44"/><polygon class="cls-4" points="0 50.6 89.51 50.6 89.51 61.07 0 61.07 0 50.6 0 50.6"/><polygon class="cls-4" points="0 63.13 89.51 63.13 89.51 75.34 0 75.34 0 63.13 0 63.13"/><polygon class="cls-4" points="0 76.63 89.51 76.63 89.51 90.59 0 90.59 0 76.63 0 76.63"/></g><polygon class="cls-6" points="89.47 60.59 79.93 65.6 81.75 54.99 74.04 47.47 84.7 45.92 89.47 36.26 94.23 45.92 104.89 47.47 97.18 54.99 99 65.6 89.47 60.59"/><polygon class="cls-5" points="131.14 73.84 124.02 77.58 125.38 69.66 119.62 64.05 127.58 62.89 131.14 55.68 134.7 62.89 142.65 64.05 136.9 69.66 138.25 77.58 131.14 73.84"/><polygon class="cls-2" points="46.64 26.34 41.62 28.98 42.58 23.39 38.51 19.43 44.13 18.61 46.64 13.52 49.15 18.61 54.77 19.43 50.71 23.39 51.66 28.98 46.64 26.34"/></g></g></svg>