<?xml version="1.0" encoding="UTF-8"?>
<svg id="Layer_2" data-name="Layer 2" xmlns="http://www.w3.org/2000/svg" xmlns:xlink="http://www.w3.org/1999/xlink" viewBox="0 0 150 88.58">
  <defs>
    <style>
      .cls-1, .cls-2 {
        fill: #fff;
      }

      .cls-3 {
        fill: #2988bf;
      }

      .cls-4, .cls-5 {
        fill: none;
      }

      .cls-4, .cls-2 {
        stroke: #2988bf;
        stroke-miterlimit: 10;
        stroke-width: 4px;
      }

      .cls-6 {
        clip-path: url(#clippath);
      }

      .cls-7 {
        fill: #065887;
      }
    </style>
    <clipPath id="clippath">
      <path class="cls-5" d="m50.42,53.98v-8.45c0-1.72,1.4-3.12,3.12-3.12h5.06c.55-1.94,1.33-3.8,2.31-5.57l-3.58-3.58c-.59-.59-.91-1.37-.91-2.2s.32-1.62.91-2.2l5.98-5.98c.59-.59,1.37-.91,2.2-.91s1.62.32,2.2.91l.03.03V7.45h-34.11v48.28h17.33c-.34-.5-.54-1.1-.54-1.74Zm-2.54-32.41h13.45v1.87h-13.45v-1.87Zm-4.75,20.97l-1.51,1.51-1.51-1.51-2.05-2.05,1.51-1.51,2.06,2.06,4.19-4.19,1.51,1.51-4.19,4.19Zm0-10.29l-1.51,1.51-1.51-1.51-2.05-2.05,1.51-1.51,2.06,2.06,4.19-4.19,1.51,1.51-4.19,4.19Zm0-9.75l-1.51,1.51-1.51-1.51-2.05-2.05,1.51-1.51,2.06,2.06,4.19-4.19,1.51,1.51-4.19,4.19Zm4.75,8.83h6.95v1.87h-6.95v-1.87Z"/>
    </clipPath>
  </defs>
  <g id="COLOUR">
    <rect class="cls-5" width="150" height="88.58"/>
    <g>
      <rect class="cls-7" x="60.53" y="78.48" width="26.14" height="3.38"/>
      <path class="cls-3" d="m33.63,7.45v48.28h17.33c-.34-.5-.54-1.1-.54-1.74v-8.45c0-1.72,1.4-3.12,3.12-3.12h5.06c.55-1.94,1.33-3.8,2.31-5.57l-3.58-3.58c-.59-.59-.91-1.37-.91-2.2s.32-1.62.91-2.2l5.98-5.98c.59-.59,1.37-.91,2.2-.91s1.62.32,2.2.91l.03.03V7.45h-34.11Zm9.51,35.08l-1.51,1.51-1.51-1.51-2.05-2.05,1.51-1.51,2.06,2.06,4.19-4.19,1.51,1.51-4.19,4.19Zm0-10.29l-1.51,1.51-1.51-1.51-2.05-2.05,1.51-1.51,2.06,2.06,4.19-4.19,1.51,1.51-4.19,4.19Zm0-9.75l-1.51,1.51-1.51-1.51-2.05-2.05,1.51-1.51,2.06,2.06,4.19-4.19,1.51,1.51-4.19,4.19Zm11.69,10.7h-6.95v-1.87h6.95v1.87Zm6.5-9.75h-13.45v-1.87h13.45v1.87Z"/>
      <g class="cls-6">
        <rect class="cls-7" x="29.79" y="14.18" width="38.99" height="1.86"/>
        <rect class="cls-7" x="29.79" y="18.79" width="38.99" height="2.84"/>
        <rect class="cls-7" x="29.79" y="24.47" width="38.99" height="4.26"/>
        <rect class="cls-7" x="29.79" y="31.32" width="38.99" height="5.68"/>
        <rect class="cls-7" x="29.79" y="39.28" width="38.99" height="7.1"/>
        <rect class="cls-7" x="29.79" y="48.36" width="38.99" height="8.52"/>
        <rect class="cls-7" x="29.79" y="9.45" width="38.99" height="1.81"/>
      </g>
      <polyline class="cls-4" points="75.42 57.84 82.64 57.84 82.64 50.45 93.53 39.56"/>
      <circle class="cls-2" cx="75.42" cy="57.84" r="2.2"/>
      <circle class="cls-2" cx="82.75" cy="57.84" r="2.2"/>
      <circle class="cls-2" cx="82.75" cy="50.49" r="2.2"/>
      <circle class="cls-2" cx="93.1" cy="40.14" r="2.2"/>
      <polygon class="cls-3" points="90.33 13.05 95.09 6.65 99.85 13.05 90.33 13.05"/>
      <polygon class="cls-3" points="97.05 25.71 93.13 24.2 93.13 12.62 97.05 12.62 97.05 25.71"/>
      <polygon class="cls-3" points="101.02 16.79 105.78 10.39 110.54 16.79 101.02 16.79"/>
      <polygon class="cls-3" points="107.73 24.91 103.82 21.53 103.82 16.36 107.73 16.36 107.73 24.91"/>
      <g>
        <path class="cls-3" d="m79.97,83.43c-1.66,0-3.01-1.35-3.01-3.01v-5.13c-1.98-.56-3.89-1.35-5.69-2.36l-3.63,3.63c-.57.57-1.33.88-2.13.88s-1.56-.31-2.13-.88l-5.98-5.98c-.57-.57-.88-1.33-.88-2.13s.31-1.56.88-2.13l3.63-3.63c-1.01-1.8-1.8-3.71-2.36-5.69h-5.13c-1.66,0-3.01-1.35-3.01-3.01v-8.45c0-1.66,1.35-3.01,3.01-3.01h5.13c.56-1.98,1.35-3.89,2.36-5.69l-3.63-3.63c-.57-.57-.88-1.33-.88-2.13,0-.81.31-1.56.88-2.13l5.98-5.98c.57-.57,1.33-.88,2.13-.88s1.56.31,2.13.88l3.63,3.63c1.8-1.01,3.71-1.8,5.69-2.36v-5.13c0-1.66,1.35-3.01,3.01-3.01h8.45c1.66,0,3.01,1.35,3.01,3.01v5.13c1.98.56,3.89,1.35,5.69,2.36l3.63-3.63c.57-.57,1.33-.88,2.13-.88s1.56.31,2.13.88l5.98,5.98c.57.57.88,1.32.88,2.13,0,.81-.31,1.56-.88,2.13l-3.63,3.63c1.01,1.8,1.8,3.71,2.36,5.69h5.13c1.66,0,3.01,1.35,3.01,3.01v8.45c0,1.66-1.35,3.01-3.01,3.01h-5.13c-.56,1.98-1.35,3.89-2.36,5.69l3.63,3.63c1.18,1.17,1.18,3.09,0,4.26l-5.98,5.98c-.57.57-1.33.88-2.13.88s-1.56-.31-2.13-.88l-3.63-3.63c-1.8,1.01-3.71,1.8-5.69,2.36v5.13c0,1.66-1.35,3.01-3.01,3.01h-8.45Zm4.23-51.1c-9.61,0-17.43,7.82-17.43,17.43s7.82,17.43,17.43,17.43,17.43-7.82,17.43-17.43-7.82-17.43-17.43-17.43Z"/>
        <path class="cls-1" d="m88.42,17.58c.84,0,1.51.68,1.51,1.51v6.29c2.67.63,5.17,1.68,7.43,3.08l4.45-4.45c.3-.3.68-.44,1.07-.44s.77.15,1.07.44l5.98,5.98c.59.59.59,1.55,0,2.14l-4.45,4.45c1.4,2.26,2.45,4.76,3.08,7.43h6.29c.84,0,1.51.68,1.51,1.51v8.45c0,.84-.68,1.51-1.51,1.51h-6.29c-.63,2.67-1.68,5.17-3.08,7.43l4.45,4.45c.59.59.59,1.55,0,2.14l-5.98,5.98c-.3.3-.68.44-1.07.44s-.78-.15-1.07-.44l-4.45-4.45c-2.26,1.4-4.76,2.45-7.43,3.08v6.3c0,.84-.68,1.51-1.51,1.51h-8.45c-.84,0-1.51-.68-1.51-1.51v-6.29c-2.67-.63-5.17-1.68-7.43-3.08l-4.45,4.45c-.3.3-.68.44-1.07.44s-.78-.15-1.07-.44l-5.98-5.98c-.59-.59-.59-1.55,0-2.14l4.45-4.45c-1.4-2.26-2.45-4.76-3.08-7.43h-6.29c-.84,0-1.51-.68-1.51-1.51v-8.45c0-.84.68-1.51,1.51-1.51h6.29c.63-2.67,1.68-5.17,3.08-7.43l-4.45-4.45c-.59-.59-.59-1.55,0-2.14l5.98-5.98c.3-.3.68-.44,1.07-.44s.78.15,1.07.44l4.45,4.45c2.26-1.4,4.76-2.45,7.43-3.08v-6.29c0-.84.68-1.51,1.51-1.51h8.45m-4.23,51.1c10.45,0,18.93-8.47,18.93-18.93s-8.47-18.93-18.93-18.93-18.93,8.47-18.93,18.93,8.47,18.93,18.93,18.93m4.23-54.1h-8.45c-2.49,0-4.51,2.02-4.51,4.51v4.02c-1.34.44-2.65.98-3.91,1.62l-2.85-2.85c-.85-.85-1.99-1.32-3.19-1.32s-2.34.47-3.19,1.32l-5.98,5.98c-.85.85-1.32,1.99-1.32,3.19s.47,2.34,1.32,3.19l2.85,2.84c-.64,1.26-1.18,2.57-1.62,3.91h-4.02c-2.49,0-4.51,2.03-4.51,4.51v8.45c0,2.49,2.03,4.51,4.51,4.51h4.02c.44,1.34.98,2.65,1.62,3.91l-2.85,2.85c-.85.85-1.32,1.99-1.32,3.19s.47,2.34,1.32,3.19l5.98,5.98c.85.85,1.99,1.32,3.19,1.32s2.34-.47,3.19-1.32l2.85-2.84c1.26.64,2.57,1.18,3.91,1.62v4.02c0,2.49,2.02,4.51,4.51,4.51h8.45c2.49,0,4.51-2.03,4.51-4.51v-4.02c1.34-.44,2.65-.98,3.91-1.62l2.85,2.85c.85.85,1.99,1.32,3.19,1.32s2.34-.47,3.19-1.32l5.98-5.98c.85-.85,1.32-1.99,1.32-3.19s-.47-2.34-1.32-3.19l-2.85-2.85c.64-1.26,1.18-2.57,1.62-3.91h4.02c2.49,0,4.51-2.02,4.51-4.51v-8.45c0-2.49-2.03-4.51-4.51-4.51h-4.02c-.44-1.34-.98-2.65-1.62-3.91l2.85-2.85c.85-.85,1.32-1.98,1.32-3.19s-.47-2.34-1.32-3.19l-5.98-5.98c-.85-.85-1.98-1.32-3.19-1.32s-2.34.47-3.19,1.32l-2.85,2.84c-1.26-.64-2.57-1.18-3.91-1.62v-4.02c0-2.49-2.02-4.51-4.51-4.51h0Zm-4.23,51.1c-8.78,0-15.93-7.14-15.93-15.93s7.14-15.93,15.93-15.93,15.93,7.14,15.93,15.93-7.14,15.93-15.93,15.93h0Z"/>
      </g>
      <path class="cls-7" d="m57.36,72.98l-2.74-2c.22-.76.35-1.55.35-2.37,0-.82-.12-1.62-.34-2.38l2.75-1.99c-.71-1.77-1.84-3.32-3.27-4.53l-2.75,1.99c-1.29-.89-2.84-1.43-4.51-1.48l-1.04-3.22c-1.94.13-3.75.74-5.31,1.72l1.04,3.22c-1.27.97-2.25,2.3-2.8,3.83h-3.39c-.22.89-.36,1.82-.36,2.79,0,.96.13,1.89.35,2.79h3.39c.54,1.55,1.52,2.88,2.78,3.85l-1.05,3.22c1.56.98,3.36,1.6,5.31,1.74l1.06-3.22c1.67-.04,3.23-.57,4.52-1.45l2.73,2c1.44-1.21,2.58-2.75,3.3-4.51Zm-10.77.54c-2.72,0-4.91-2.22-4.92-4.94.01-2.72,2.23-4.92,4.94-4.92,2.72,0,4.92,2.22,4.91,4.94-.01,2.72-2.22,4.92-4.94,4.92Z"/>
    </g>
  </g>
</svg>