<svg xmlns="http://www.w3.org/2000/svg" viewBox="0 0 188.98 150"><defs><style>.cls-1{fill:#008abc;}.cls-2{fill:#005985;}.cls-3{fill:none;}</style></defs><g id="Layer_2" data-name="Layer 2"><g id="Layer_1-2" data-name="Layer 1"><path class="cls-1" d="M175.09,68.33a1.17,1.17,0,0,0-.53-.62c-1.71-1.12-3.37-2.28-5.06-3.43-.55-.39-1.12-.77-1.69-1.16a1.21,1.21,0,0,1-.6-1.2c0-1.44,0-2.86,0-4.3,0-1.06,0-2.11,0-3.17a1.25,1.25,0,0,1,.61-1.28,0,0,0,0,0,0,0c2.19-1.46,4.33-3,6.51-4.43l.3-.21a1,1,0,0,0,.47-1.22c-.2-1-.42-1.94-.67-2.89s-.55-1.94-.85-2.9a56.45,56.45,0,0,0-2.38-6.17,1,1,0,0,0-1.12-.69c-2.73.1-5.44.14-8.15.25a1.35,1.35,0,0,1-1.35-.73c-1.39-2-2.83-4-4.34-5.92a1.4,1.4,0,0,1-.25-1.53c.92-2.51,1.78-5.05,2.71-7.56a1.11,1.11,0,0,0-.37-1.44,58,58,0,0,0-10.07-7.24,1.08,1.08,0,0,0-1.47.15c-2.13,1.69-4.28,3.34-6.46,5a1.56,1.56,0,0,1-1.22.16c-2.41-.72-4.79-1.52-7.2-2.26a1.26,1.26,0,0,1-1-1c-.74-2.64-1.53-5.29-2.36-7.9a1.26,1.26,0,0,0-.79-.77,52.8,52.8,0,0,0-12.5-.13,1.29,1.29,0,0,0-1.35,1.1c-.67,2.53-1.48,5-2.18,7.53a1.5,1.5,0,0,1-1.2,1.21c-2.31.7-4.62,1.45-6.9,2.26a1.35,1.35,0,0,1-1.5-.17c-2.13-1.69-4.3-3.31-6.45-5a1,1,0,0,0-1.3-.13A52,52,0,0,0,84.1,18a.93.93,0,0,0-.28,1.2c1,2.58,1.84,5.17,2.79,7.75a1.3,1.3,0,0,1-.25,1.42c-1.49,2-3,4-4.37,6a1.29,1.29,0,0,1-1.27.67C78,35,75.35,35,72.66,34.84a1.24,1.24,0,0,0-1.39.89,55.62,55.62,0,0,0-2.14,5.77c-.3,1-.59,1.93-.84,2.9s-.5,2-.72,3.06A1,1,0,0,0,68,48.72l.07.05c2.16,1.43,4.28,2.94,6.44,4.38l.3.2a1.32,1.32,0,0,1,.67,1.29c0,1,0,2,0,3,0,1.49,0,3,0,4.46a1.33,1.33,0,0,1-.64,1.31c-.44.28-.87.59-1.31.89-1.82,1.22-3.61,2.49-5.42,3.71a1.62,1.62,0,0,0-.38.34.79.79,0,0,0-.15.78,56.27,56.27,0,0,0,2.29,8.1c.44,1.22.9,2.41,1.44,3.6.05.13.12.25.17.38a1.08,1.08,0,0,0,1.22.71c2.71-.12,5.44-.17,8.15-.29a1.2,1.2,0,0,1,1.2.62c1.46,2.09,3,4.13,4.45,6.21a1.59,1.59,0,0,1,.24,1.2c-.25.76-.51,1.51-.77,2.26C85.63,93,85.24,94,84.87,95c-.28.8-.57,1.61-.87,2.39a1.07,1.07,0,0,0,.34,1.36,58.11,58.11,0,0,0,10.22,7.36.91.91,0,0,0,1.22-.1c2.19-1.72,4.39-3.45,6.61-5.1a1.6,1.6,0,0,1,1.21-.19c2.41.74,4.78,1.56,7.19,2.28a1.32,1.32,0,0,1,1,1c.42,1.46.85,2.9,1.27,4.34.27.87.52,1.74.77,2.61.08.3.17.58.25.88a1.08,1.08,0,0,0,1.07.92,59.26,59.26,0,0,0,12.42,0,1.16,1.16,0,0,0,1.18-1c.09-.27.16-.56.24-.82q.34-1.31.75-2.61c.42-1.46.86-2.92,1.27-4.39a1.23,1.23,0,0,1,1-.93c2.31-.71,4.62-1.43,6.89-2.23a1.63,1.63,0,0,1,1.85.23c2.29,1.81,4.61,3.57,6.91,5.33a50,50,0,0,0,10.92-7.84,1,1,0,0,0,.29-1.2q-.43-1.16-.84-2.31c-.39-1-.75-2.09-1.12-3.13-.25-.72-.52-1.42-.79-2.12a1.52,1.52,0,0,1,.27-1.68q2.21-2.88,4.25-5.89a1.36,1.36,0,0,1,1.34-.73c2.68.11,5.37.13,8.05.23a1.18,1.18,0,0,0,1.34-.82.26.26,0,0,1,0-.08q.78-1.78,1.44-3.6a58.58,58.58,0,0,0,2.26-8A1.14,1.14,0,0,0,175.09,68.33ZM140,80.81a29.15,29.15,0,0,1-40.89-3.6,29.34,29.34,0,0,1-5.24-8.88,27.77,27.77,0,0,1-1.2-4A29.25,29.25,0,0,1,92,58a2,2,0,0,1,0-.35,28,28,0,0,1,1.62-8.9A28.87,28.87,0,0,1,95.6,44.4a26.17,26.17,0,0,1,1.82-2.9,29.09,29.09,0,0,1,47.86,0,23.37,23.37,0,0,1,1.8,2.9A27.8,27.8,0,0,1,149,48.72a26.54,26.54,0,0,1,1.19,4.43,28.57,28.57,0,0,1,.47,4.47c0,.33,0,.67,0,1a26.6,26.6,0,0,1-.62,5.66,27.16,27.16,0,0,1-1.17,4A30.22,30.22,0,0,1,140,80.81Z"/><path class="cls-1" d="M86.21,109.76c-1-.44-2.07-.91-3.11-1.39s-1.79-.81-2.69-1.19A1.42,1.42,0,0,1,79.5,106c-.42-2-1-3.91-1.4-5.87A1.56,1.56,0,0,1,78.31,99c1-1.36,2.1-2.68,3.18-4l.92-1.14a.94.94,0,0,0,.1-1.22c-.13-.25-.28-.52-.43-.77a33.61,33.61,0,0,0-5.36-7.14,1,1,0,0,0-1.2-.27c-2,.8-4,1.52-6,2.31a1.26,1.26,0,0,1-1.36-.19c-1.67-1.07-3.4-2-5.07-3.12a1.86,1.86,0,0,1-.74-1.09c-.08-.54-.15-1.06-.2-1.59-.16-1.21-.28-2.39-.4-3.6,0-.38-.08-.75-.12-1.14a1.06,1.06,0,0,0-.9-1.07,39.7,39.7,0,0,0-9.5-1.49,1.08,1.08,0,0,0-1.21.74c-.42,1-.85,2-1.29,3S47.84,79.1,47.39,80a1.76,1.76,0,0,1-.9.77l-.15.07c-1.94.53-3.9,1-5.86,1.45a1.67,1.67,0,0,1-1.14-.2l-1.69-1.32c-1.13-.89-2.25-1.81-3.34-2.73a1.11,1.11,0,0,0-1.47-.1,33.1,33.1,0,0,0-4.41,2.83,32.93,32.93,0,0,0-3.29,2.76A1.14,1.14,0,0,0,24.79,85c.8,1.93,1.5,3.89,2.27,5.83a1.25,1.25,0,0,1,.05,1.05,1.45,1.45,0,0,1-.2.39c-.58.9-1.17,1.82-1.72,2.74s-.94,1.56-1.37,2.34a1.29,1.29,0,0,1-1.12.76c-2.2.21-4.35.45-6.53.75a1.17,1.17,0,0,0-.79.65,37.23,37.23,0,0,0-1.54,8.84c0,.3,0,.62-.05.93a1,1,0,0,0,.74,1.09c.44.18.89.39,1.32.59,1.52.67,3,1.35,4.55,2.07a1.72,1.72,0,0,1,.76,1c.51,1.92.92,3.86,1.45,5.77a1.39,1.39,0,0,1-.27,1.44c-1.35,1.62-2.66,3.31-4,4.94a3.14,3.14,0,0,0-.24.35,1,1,0,0,0,.14.95q.35.67.75,1.32a33.43,33.43,0,0,0,4.9,6.46,1.11,1.11,0,0,0,1.44.34c1.93-.81,3.88-1.53,5.84-2.26.2-.09.44-.17.74-.29.18.14.43.3.67.45,1.67,1,3.31,2.1,5,3.05a1.47,1.47,0,0,1,.87,1.27c.2,2,.45,4.08.64,6.14a1.11,1.11,0,0,0,.92,1.17,41.24,41.24,0,0,0,9.5,1.48h.07a1.12,1.12,0,0,0,1.17-.84c.82-1.91,1.71-3.8,2.53-5.72a1.26,1.26,0,0,1,1.07-.84c1.9-.4,3.81-.87,5.69-1.37a1.4,1.4,0,0,1,1.52.25c1.59,1.34,3.26,2.61,4.87,4a1.08,1.08,0,0,0,1.39.15,35.84,35.84,0,0,0,7.84-5.74,1,1,0,0,0,.29-1.27c-.77-1.91-1.46-3.83-2.24-5.74a1.87,1.87,0,0,1-.16-.64,1.76,1.76,0,0,1,.37-1.15l.76-1.12c.75-1.17,1.47-2.4,2.15-3.62a1.66,1.66,0,0,1,1.43-1c2-.18,4.08-.45,6.14-.63a1,1,0,0,0,1-.84,40.76,40.76,0,0,0,1.52-9.5v-.1A1,1,0,0,0,86.21,109.76ZM64,126.54a21.52,21.52,0,0,1-3.36,2.27,22.13,22.13,0,0,1-10.14,2.75A19.91,19.91,0,0,1,40,128.81a21.1,21.1,0,0,1-3.26-2.27A21.46,21.46,0,0,1,28.89,111v-.09q0-1.27.06-2.52a21.68,21.68,0,0,1,21-19.8A20.68,20.68,0,0,1,61.7,91.9,22,22,0,0,1,65.58,95a21.49,21.49,0,0,1,6.21,13.34c0,.35,0,.7,0,1.07a13.14,13.14,0,0,1,0,1.54A21.28,21.28,0,0,1,64,126.54Z"/><path class="cls-1" d="M148.64,57.62a23.62,23.62,0,0,0-.49-4.47,26.43,26.43,0,0,0-1.25-4.43,27.08,27.08,0,0,0-2.13-4.32A27.09,27.09,0,0,0,100,41.5a25,25,0,0,0-2,2.9,26.4,26.4,0,0,0-3.85,13.22c0,.2,0,.38,0,.58a27,27,0,0,0,.7,6.08,25.72,25.72,0,0,0,1.27,4,27.23,27.23,0,0,0,5.81,8.88,27.54,27.54,0,0,0,4.3,3.6,28.1,28.1,0,0,0,15.67,4.75,25.94,25.94,0,0,0,14.83-4.75,27.25,27.25,0,0,0,4.2-3.6,27.82,27.82,0,0,0,5.79-8.88,23.89,23.89,0,0,0,1.3-4,26.09,26.09,0,0,0,.71-6.09A5.33,5.33,0,0,0,148.64,57.62Zm-6,10.71a23.88,23.88,0,0,1-7.3,8.88,23.1,23.1,0,0,1-13.89,4.6,23.76,23.76,0,0,1-14.12-4.6,23.71,23.71,0,0,1-8.8-12.93,23.35,23.35,0,0,1-.77-6c0-.23,0-.47,0-.7a21.19,21.19,0,0,1,.55-4.47,22.15,22.15,0,0,1,1.47-4.43,23.18,23.18,0,0,1,5-7.22,23.36,23.36,0,0,1,16.45-6.77,23.59,23.59,0,0,1,16.63,6.77,26.39,26.39,0,0,1,2.5,2.9,23,23,0,0,1,2.47,4.32,22.12,22.12,0,0,1,1.46,4.43,21.87,21.87,0,0,1,.55,4.47c0,.21,0,.43,0,.65a23.92,23.92,0,0,1-.77,6A24.43,24.43,0,0,1,142.67,68.33Z"/><path class="cls-1" d="M69.73,108.37A19.47,19.47,0,0,0,62.59,95a20,20,0,0,0-5.38-3.13,18.78,18.78,0,0,0-13.73,0A19.22,19.22,0,0,0,38.14,95,19.68,19.68,0,0,0,31,108.37c-.05.57-.09,1.13-.09,1.72a6.63,6.63,0,0,0,0,.89,19.19,19.19,0,0,0,9.28,15.56,19.76,19.76,0,0,0,5.29,2.27,20.31,20.31,0,0,0,5.27.69,17.17,17.17,0,0,0,4.82-.69,18.37,18.37,0,0,0,5-2.27A19.89,19.89,0,0,0,69.78,111c0-.3,0-.62,0-.94A13.34,13.34,0,0,0,69.73,108.37ZM49.92,125.75A15.66,15.66,0,0,1,34.68,111a12.83,12.83,0,0,1,0-1.39c0-.42,0-.82.09-1.22A15.82,15.82,0,0,1,45.74,95a15.3,15.3,0,0,1,4.85-.69,16,16,0,0,1,4.3.69,15.84,15.84,0,0,1,11.18,15.41c0,.19,0,.37,0,.54A15.73,15.73,0,0,1,49.92,125.75Z"/><path class="cls-2" d="M69.13,41.5H97.42a26.17,26.17,0,0,0-1.82,2.9H68.29C68.54,43.43,68.83,42.46,69.13,41.5Z"/><path class="cls-2" d="M104.83,41.5a22.42,22.42,0,0,0-2.51,2.9H97.94a25,25,0,0,1,2-2.9Z"/><path class="cls-2" d="M142.78,41.5a27.54,27.54,0,0,1,2,2.9h-4.36a26.39,26.39,0,0,0-2.5-2.9Z"/><path class="cls-2" d="M174.44,44.4H147.08a23.37,23.37,0,0,0-1.8-2.9h28.31C173.89,42.46,174.17,43.43,174.44,44.4Z"/><path class="cls-2" d="M68,48.72H93.67a26.51,26.51,0,0,0-1.18,4.43h-18c-2.16-1.44-4.28-2.95-6.44-4.38Z"/><path class="cls-2" d="M99.83,48.72a22.15,22.15,0,0,0-1.47,4.43h-3.8a25.56,25.56,0,0,1,1.27-4.43Z"/><path class="cls-2" d="M146.9,48.72a26.43,26.43,0,0,1,1.25,4.43h-3.81a22.12,22.12,0,0,0-1.46-4.43Z"/><path class="cls-2" d="M174.34,48.72c-2.18,1.45-4.32,3-6.51,4.43H150.18A26.54,26.54,0,0,0,149,48.72Z"/><path class="cls-2" d="M92,58a29.25,29.25,0,0,0,.66,6.31H73.54c.44-.3.87-.61,1.31-.89a1.33,1.33,0,0,0,.64-1.31c0-1.48,0-3,0-4.46H92.05A2,2,0,0,0,92,58Z"/><path class="cls-2" d="M98.56,64.28H94.78a27,27,0,0,1-.7-6.08c0-.2,0-.38,0-.58h3.72c0,.23,0,.47,0,.7A23.35,23.35,0,0,0,98.56,64.28Z"/><path class="cls-2" d="M148.64,57.62a5.33,5.33,0,0,1,0,.57,26.09,26.09,0,0,1-.71,6.09h-3.81a23.92,23.92,0,0,0,.77-6c0-.22,0-.44,0-.65Z"/><path class="cls-2" d="M150,64.28a26.6,26.6,0,0,0,.62-5.66c0-.33,0-.67,0-1h16.58c0,1.44,0,2.86,0,4.3a1.21,1.21,0,0,0,.6,1.2c.57.39,1.14.77,1.69,1.16Z"/><path class="cls-2" d="M61.61,76.07c0,.39.07.76.12,1.14h-13c.44-1,.87-2,1.29-3a1.08,1.08,0,0,1,1.21-.74A39.7,39.7,0,0,1,60.71,75,1.06,1.06,0,0,1,61.61,76.07Z"/><path class="cls-2" d="M93.89,68.33a29.34,29.34,0,0,0,5.24,8.88H69.88a56.27,56.27,0,0,1-2.29-8.1.79.79,0,0,1,.15-.78Z"/><path class="cls-2" d="M107.36,77.21h-5.5a27.23,27.23,0,0,1-5.81-8.88h4A23.72,23.72,0,0,0,107.36,77.21Z"/><path class="cls-2" d="M146.65,68.33a27.82,27.82,0,0,1-5.79,8.88h-5.49a23.88,23.88,0,0,0,7.3-8.88Z"/><path class="cls-2" d="M175.13,69.16a58.58,58.58,0,0,1-2.26,8H143.64a29.18,29.18,0,0,0,5.23-8.88h26.22A1.14,1.14,0,0,1,175.13,69.16Z"/><path class="cls-2" d="M121.83,85.56a28.1,28.1,0,0,1-15.67-4.75h8.43a24.06,24.06,0,0,0,6.89,1,23.31,23.31,0,0,0,6.78-1h8.4A25.94,25.94,0,0,1,121.83,85.56Z"/><path class="cls-2" d="M57.21,91.9H43.48a18.78,18.78,0,0,1,13.73,0Z"/><path class="cls-2" d="M82.08,91.9H61.7a20.68,20.68,0,0,0-11.76-3.33A21.65,21.65,0,0,0,39,91.9H27.11a1.25,1.25,0,0,0-.05-1.05c-.77-1.94-1.47-3.9-2.27-5.83a1.14,1.14,0,0,1,.35-1.45,32.93,32.93,0,0,1,3.29-2.76h9.22l1.69,1.32a1.67,1.67,0,0,0,1.14.2c2-.45,3.92-.92,5.86-1.45l.15-.07H62.13c0,.53.12,1,.2,1.59a1.86,1.86,0,0,0,.74,1.09c1.67,1.08,3.4,2.05,5.07,3.12a1.26,1.26,0,0,0,1.36.19c2-.79,4-1.51,6-2.31a1,1,0,0,1,1.2.27A33.61,33.61,0,0,1,82.08,91.9Z"/><path class="cls-2" d="M171.43,80.81a.26.26,0,0,0,0,.08,1.18,1.18,0,0,1-1.34.82c-2.68-.1-5.37-.12-8.05-.23a1.36,1.36,0,0,0-1.34.73q-2,3-4.25,5.89a1.52,1.52,0,0,0-.27,1.68c.27.7.54,1.4.79,2.12H86c.26-.75.52-1.5.77-2.26a1.59,1.59,0,0,0-.24-1.2c-1.45-2.08-3-4.12-4.45-6.21a1.2,1.2,0,0,0-1.2-.62c-2.71.12-5.44.17-8.15.29a1.08,1.08,0,0,1-1.22-.71c0-.13-.12-.25-.17-.38h31.44a29,29,0,0,0,37.26,0Z"/><path class="cls-2" d="M35.13,95A21.76,21.76,0,0,0,29,108.37H13.84a37.23,37.23,0,0,1,1.54-8.84,1.17,1.17,0,0,1,.79-.65c2.18-.3,4.33-.54,6.53-.75a1.29,1.29,0,0,0,1.12-.76c.43-.78.9-1.55,1.37-2.34Z"/><path class="cls-2" d="M45.74,95a15.82,15.82,0,0,0-11,13.34H31A19.68,19.68,0,0,1,38.14,95Z"/><path class="cls-2" d="M69.73,108.37H66A15.71,15.71,0,0,0,54.89,95h7.7A19.47,19.47,0,0,1,69.73,108.37Z"/><path class="cls-2" d="M83.1,108.37H71.79A21.49,21.49,0,0,0,65.58,95H81.49c-1.08,1.32-2.14,2.64-3.18,4a1.56,1.56,0,0,0-.21,1.14c.43,2,1,3.9,1.4,5.87a1.42,1.42,0,0,0,.91,1.14C81.31,107.56,82.2,108,83.1,108.37Z"/><path class="cls-2" d="M158.61,98.54a50,50,0,0,1-10.92,7.84c-2.3-1.76-4.62-3.52-6.91-5.33a1.63,1.63,0,0,0-1.85-.23c-2.27.8-4.58,1.52-6.89,2.23a1.23,1.23,0,0,0-1,.93c-.41,1.47-.85,2.93-1.27,4.39H113.1c-.42-1.44-.85-2.88-1.27-4.34a1.32,1.32,0,0,0-1-1c-2.41-.72-4.78-1.54-7.19-2.28a1.6,1.6,0,0,0-1.21.19c-2.22,1.65-4.42,3.38-6.61,5.1a.91.91,0,0,1-1.22.1,58.11,58.11,0,0,1-10.22-7.36A1.07,1.07,0,0,1,84,97.42c.3-.78.59-1.59.87-2.39h73.19q.41,1.16.84,2.31A1,1,0,0,1,158.61,98.54Z"/><path class="cls-2" d="M22.34,121.25a1.39,1.39,0,0,0,.27-1.44c-.53-1.91-.94-3.85-1.45-5.77a1.72,1.72,0,0,0-.76-1c-1.5-.72-3-1.4-4.55-2.07h13a21.46,21.46,0,0,0,7.83,15.56H18.09a3.14,3.14,0,0,1,.24-.35C19.68,124.56,21,122.87,22.34,121.25Z"/><path class="cls-2" d="M69.78,111a19.89,19.89,0,0,1-9.19,15.56H40.21A19.19,19.19,0,0,1,30.93,111h3.75a15.71,15.71,0,0,0,31.37,0Z"/><path class="cls-2" d="M86.91,111a40.76,40.76,0,0,1-1.52,9.5,1,1,0,0,1-1,.84c-2.06.18-4.09.45-6.14.63a1.66,1.66,0,0,0-1.43,1c-.68,1.22-1.4,2.45-2.15,3.62H64A21.28,21.28,0,0,0,71.8,111Z"/><path class="cls-2" d="M129,111c-.08.26-.15.55-.24.82a1.16,1.16,0,0,1-1.18,1,59.26,59.26,0,0,1-12.42,0,1.08,1.08,0,0,1-1.07-.92c-.08-.3-.17-.58-.25-.88Z"/><path class="cls-2" d="M55.59,128.81a17.17,17.17,0,0,1-4.82.69,20.31,20.31,0,0,1-5.27-.69Z"/><path class="cls-2" d="M75.65,136.46a35.84,35.84,0,0,1-7.84,5.74,1.08,1.08,0,0,1-1.39-.15c-1.61-1.34-3.28-2.61-4.87-4a1.4,1.4,0,0,0-1.52-.25c-1.88.5-3.79,1-5.69,1.37a1.26,1.26,0,0,0-1.07.84c-.82,1.92-1.71,3.81-2.53,5.72a1.12,1.12,0,0,1-1.17.84H49.5a41.24,41.24,0,0,1-9.5-1.48,1.11,1.11,0,0,1-.92-1.17c-.19-2.06-.44-4.1-.64-6.14a1.47,1.47,0,0,0-.87-1.27c-1.69-.95-3.33-2-5-3.05-.24-.15-.49-.31-.67-.45-.3.12-.54.2-.74.29-2,.73-3.91,1.45-5.84,2.26a1.11,1.11,0,0,1-1.44-.34,33.43,33.43,0,0,1-4.9-6.46H40a19.91,19.91,0,0,0,10.49,2.75,22.13,22.13,0,0,0,10.14-2.75H73.54a1.87,1.87,0,0,0,.16.64c.78,1.91,1.47,3.83,2.24,5.74A1,1,0,0,1,75.65,136.46Z"/><rect class="cls-3" width="188.98" height="150"/></g></g></svg>