<svg xmlns="http://www.w3.org/2000/svg" xmlns:xlink="http://www.w3.org/1999/xlink" viewBox="0 0 166.06 95"><defs><style>.cls-1{fill:none;}.cls-2{fill:#2988bf;}.cls-3{clip-path:url(#clip-path);}.cls-4{fill:#065887;}.cls-5{fill:#fff;}</style><clipPath id="clip-path" transform="translate(16.06)"><path class="cls-1" d="M142,47.37S116.17,89,74.47,89,7,47.37,7,47.37,32.77,5.76,74.47,5.76,142,47.37,142,47.37Z"/></clipPath></defs><g id="Layer_2" data-name="Layer 2"><g id="Layer_1-2" data-name="Layer 1"><rect class="cls-1" x="16.06" width="150" height="95"/><path class="cls-2" d="M142,47.37S116.17,89,74.47,89,7,47.37,7,47.37,32.77,5.76,74.47,5.76,142,47.37,142,47.37Z" transform="translate(16.06)"/><g class="cls-3"><polygon class="cls-4" points="0 8.06 89.51 8.06 89.51 10.35 0 10.35 0 8.06 0 8.06"/><polygon class="cls-2" points="0 2.52 89.51 2.52 89.51 4.8 0 4.8 0 2.52 0 2.52"/><polygon class="cls-4" points="0 13.73 89.51 13.73 89.51 17.22 0 17.22 0 13.73 0 13.73"/><polygon class="cls-4" points="0 20.71 89.51 20.71 89.51 25.94 0 25.94 0 20.71 0 20.71"/><polygon class="cls-4" points="0 29.12 89.51 29.12 89.51 36.1 0 36.1 0 29.12 0 29.12"/><polygon class="cls-4" points="0 38.9 89.51 38.9 89.51 47.63 0 47.63 0 38.9 0 38.9"/><polygon class="cls-4" points="0 50.07 89.51 50.07 89.51 60.54 0 60.54 0 50.07 0 50.07"/><polygon class="cls-4" points="0 62.59 89.51 62.59 89.51 74.8 0 74.8 0 62.59 0 62.59"/><polygon class="cls-4" points="0 76.09 89.51 76.09 89.51 90.05 0 90.05 0 76.09 0 76.09"/></g><path class="cls-5" d="M107.32,47.87A32.86,32.86,0,1,1,74.47,15,32.86,32.86,0,0,1,107.32,47.87Z" transform="translate(16.06)"/><circle class="cls-4" cx="74.47" cy="47.87" r="20.37" transform="translate(40.81 121.12) rotate(-88.57)"/><path class="cls-5" d="M72.28,36.85a7.62,7.62,0,1,0-7.61,7.62A7.61,7.61,0,0,0,72.28,36.85Z" transform="translate(16.06)"/></g></g></svg>