<svg xmlns="http://www.w3.org/2000/svg" xmlns:xlink="http://www.w3.org/1999/xlink" viewBox="0 0 160.88 95"><defs><style>.cls-1{fill:none;}.cls-2{fill:#ea9a00;}.cls-3{clip-path:url(#clip-path);}.cls-4{fill:#ea5000;}</style><clipPath id="clip-path" transform="translate(10.88)"><path class="cls-1" d="M116.44,44.23a11.27,11.27,0,0,0-5.14,1.24V21.39H87.5a11.42,11.42,0,1,0-19.77,0H40.49V47.48a11.43,11.43,0,1,0,0,16.3V90.47H66.91a11.09,11.09,0,0,1-.73-4,11.42,11.42,0,1,1,22.11,4h23V65.84a11.27,11.27,0,0,0,5.14,1.24,11.43,11.43,0,0,0,0-22.85"/></clipPath></defs><g id="Layer_2" data-name="Layer 2"><g id="Layer_1-2" data-name="Layer 1"><rect class="cls-1" x="10.88" width="150" height="95"/><path class="cls-2" d="M116.44,44.23a11.27,11.27,0,0,0-5.14,1.24V21.39H87.5a11.42,11.42,0,1,0-19.77,0H40.49V47.48a11.43,11.43,0,1,0,0,16.3V90.47H66.91a11.09,11.09,0,0,1-.73-4,11.42,11.42,0,1,1,22.11,4h23V65.84a11.27,11.27,0,0,0,5.14,1.24,11.43,11.43,0,0,0,0-22.85" transform="translate(10.88)"/><g class="cls-3"><polygon class="cls-4" points="0 8.76 89.51 8.76 89.51 11.04 0 11.04 0 8.76 0 8.76"/><polygon class="cls-4" points="0 3.21 89.51 3.21 89.51 5.49 0 5.49 0 3.21 0 3.21"/><polygon class="cls-4" points="0 14.42 89.51 14.42 89.51 17.91 0 17.91 0 14.42 0 14.42"/><polygon class="cls-4" points="0 21.4 89.51 21.4 89.51 26.63 0 26.63 0 21.4 0 21.4"/><polygon class="cls-4" points="0 29.81 89.51 29.81 89.51 36.79 0 36.79 0 29.81 0 29.81"/><polygon class="cls-4" points="0 39.59 89.51 39.59 89.51 48.32 0 48.32 0 39.59 0 39.59"/><polygon class="cls-4" points="0 50.76 89.51 50.76 89.51 61.23 0 61.23 0 50.76 0 50.76"/><polygon class="cls-4" points="0 63.28 89.51 63.28 89.51 75.49 0 75.49 0 63.28 0 63.28"/><polygon class="cls-4" points="0 76.78 89.51 76.78 89.51 90.74 0 90.74 0 76.78 0 76.78"/></g></g></g></svg>