<svg xmlns="http://www.w3.org/2000/svg" viewBox="0 0 188.98 150"><defs><style>.cls-1{fill:#aaaaa8;}.cls-2{fill:#84888c;}.cls-3{fill:none;}</style></defs><g id="Layer_2" data-name="Layer 2"><g id="Layer_1-2" data-name="Layer 1"><polygon class="cls-1" points="186.96 75 114.83 147.13 70.13 147.13 87.94 129.33 90.21 127.05 108.38 108.88 121.72 95.55 135.94 81.33 139.54 77.73 142.27 75 136.11 68.84 132.06 64.79 125.4 58.13 116.5 49.23 112.18 44.91 109.29 42.02 70.13 2.87 114.83 2.87 153.98 42.02 156.88 44.91 161.19 49.23 165.63 53.67 170.09 58.13 176.75 64.79 186.96 75"/><path class="cls-1" d="M176.75,64.79l-6.66-6.66-4.46-4.46-4.44-4.44-4.32-4.31L154,42,114.83,2.87H70.13L109.29,42l2.89,2.9,4.32,4.31,8.9,8.9,6.66,6.66,4.05,4L142.27,75l-2.73,2.73-3.6,3.59L121.72,95.55l-13.34,13.33L90.21,127.05l-2.27,2.28-17.81,17.8h44.7L187,75Z"/><polygon class="cls-1" points="118.86 75 116.13 77.73 112.53 81.33 98.31 95.55 84.98 108.88 82.37 111.49 66.81 127.05 46.73 147.13 2.02 147.13 74.15 75 52.82 53.67 48.38 49.23 44.06 44.91 2.02 2.87 46.73 2.87 85.88 42.02 88.77 44.91 93.09 49.23 101.99 58.13 108.65 64.79 112.7 68.84 118.86 75"/><polygon class="cls-2" points="85.88 42.02 88.77 44.91 44.06 44.91 41.17 42.02 85.88 42.02"/><polygon class="cls-2" points="156.88 44.91 112.18 44.91 109.29 42.02 153.98 42.02 156.88 44.91"/><polygon class="cls-2" points="93.09 49.23 97.53 53.67 52.82 53.67 48.38 49.23 93.09 49.23"/><polygon class="cls-2" points="165.63 53.67 120.93 53.67 116.5 49.23 161.19 49.23 165.63 53.67"/><polygon class="cls-2" points="101.99 58.13 108.65 64.79 63.94 64.79 57.28 58.13 101.99 58.13"/><polygon class="cls-2" points="176.75 64.79 132.06 64.79 125.4 58.13 170.09 58.13 176.75 64.79"/><polygon class="cls-2" points="112.7 68.84 118.86 75 116.13 77.73 71.42 77.73 74.15 75 67.99 68.84 112.7 68.84"/><polygon class="cls-2" points="186.96 75 184.23 77.73 139.54 77.73 142.27 75 136.11 68.84 180.8 68.84 186.96 75"/><polygon class="cls-2" points="67.83 81.33 112.53 81.33 101.44 92.42 56.73 92.42 67.83 81.33"/><polygon class="cls-2" points="180.63 81.33 169.54 92.42 124.85 92.42 135.94 81.33 180.63 81.33"/><polygon class="cls-2" points="53.6 95.55 98.31 95.55 84.98 108.88 40.27 108.88 53.6 95.55"/><polygon class="cls-2" points="166.41 95.55 153.08 108.88 108.38 108.88 121.72 95.55 166.41 95.55"/><polygon class="cls-2" points="37.66 111.49 82.37 111.49 66.81 127.05 22.1 127.05 37.66 111.49"/><polygon class="cls-2" points="150.47 111.49 134.91 127.05 90.21 127.05 105.77 111.49 150.47 111.49"/><polygon class="cls-2" points="19.82 129.33 64.53 129.33 46.73 147.13 2.02 147.13 19.82 129.33"/><polygon class="cls-2" points="132.63 129.33 114.83 147.13 70.13 147.13 87.94 129.33 132.63 129.33"/><rect class="cls-3" width="188.98" height="150"/></g></g></svg>