<svg xmlns="http://www.w3.org/2000/svg" xmlns:xlink="http://www.w3.org/1999/xlink" viewBox="0 0 274.63 274.63"><defs><style>.cls-1{fill:url(#linear-gradient);}.cls-2{fill:url(#linear-gradient-2);}.cls-3{fill:url(#linear-gradient-3);}.cls-4{fill:none;stroke:#fff;stroke-miterlimit:10;stroke-width:2px;}</style><linearGradient id="linear-gradient" x1="110.22" y1="89.49" x2="212.21" y2="269.49" gradientUnits="userSpaceOnUse"><stop offset="0" stop-color="gray"/><stop offset="0.89" stop-color="#a9a9a9"/></linearGradient><linearGradient id="linear-gradient-2" x1="206.85" y1="246.91" x2="203.85" y2="70.91" gradientUnits="userSpaceOnUse"><stop offset="0" stop-color="gray"/><stop offset="0.94" stop-color="#476464"/></linearGradient><linearGradient id="linear-gradient-3" x1="83.8" y1="164.23" x2="61.8" y2="32.23" xlink:href="#linear-gradient"/></defs><g id="Layer_2" data-name="Layer 2"><g id="Stats_WHITE" data-name="Stats WHITE"><path class="cls-1" d="M274.63,137.32A137.32,137.32,0,1,1,137.32,0,137.3,137.3,0,0,1,274.63,137.32ZM137.32,36A101.29,101.29,0,1,0,238.6,137.32,101.29,101.29,0,0,0,137.32,36Z"/><path class="cls-2" d="M137.66,0V24.78a112.54,112.54,0,0,1,0,225.07v24.78A137.32,137.32,0,0,0,137.66,0Z"/><path class="cls-3" d="M137.32,249.85a112.54,112.54,0,1,1,0-225.07h.34V0h-.34a137.32,137.32,0,1,0,0,274.63h.34V249.85Z"/><line class="cls-4" x1="138.16" y1="25" x2="138.16"/></g></g></svg>