<svg xmlns="http://www.w3.org/2000/svg" xmlns:xlink="http://www.w3.org/1999/xlink" viewBox="0 0 274.63 274.63"><defs><style>.cls-1{fill:url(#linear-gradient);}.cls-2{fill:url(#linear-gradient-2);}.cls-3{fill:url(#linear-gradient-3);}.cls-4{fill:none;stroke:#fff;stroke-miterlimit:10;stroke-width:2px;}</style><linearGradient id="linear-gradient" x1="152.13" y1="13.64" x2="122.13" y2="264.13" gradientUnits="userSpaceOnUse"><stop offset="0" stop-color="#06a3da"/><stop offset="1" stop-color="#2988bf" stop-opacity="0.8"/></linearGradient><linearGradient id="linear-gradient-2" x1="204.8" y1="84.04" x2="159.8" y2="211.04" gradientUnits="userSpaceOnUse"><stop offset="0" stop-color="#0674a8"/><stop offset="1" stop-color="#2988bf" stop-opacity="0.8"/></linearGradient><linearGradient id="linear-gradient-3" x1="68.81" y1="71.98" x2="76.81" y2="235.98" xlink:href="#linear-gradient"/></defs><g id="Layer_2" data-name="Layer 2"><g id="Stats_WHITE" data-name="Stats WHITE"><path class="cls-1" d="M274.63,137.32A137.32,137.32,0,1,1,137.32,0,137.3,137.3,0,0,1,274.63,137.32ZM137.32,36A101.29,101.29,0,1,0,238.6,137.32,101.29,101.29,0,0,0,137.32,36Z"/><path class="cls-2" d="M137.46,0V24.78a112.54,112.54,0,0,1,0,225.07v24.78A137.32,137.32,0,0,0,137.46,0Z"/><path class="cls-3" d="M137.32,249.85a112.54,112.54,0,1,1,0-225.07h.14V0h-.14a137.32,137.32,0,1,0,0,274.63h.14V249.85Z"/><line class="cls-4" x1="137.96" y1="25" x2="137.96"/></g></g></svg>