<svg xmlns="http://www.w3.org/2000/svg" xmlns:xlink="http://www.w3.org/1999/xlink" viewBox="0 0 274.63 274.63"><defs><style>.cls-1{fill:url(#linear-gradient);}.cls-2{fill:url(#linear-gradient-2);}.cls-3{fill:url(#linear-gradient-3);}.cls-4{fill:none;stroke:#fff;stroke-miterlimit:10;stroke-width:2px;}</style><linearGradient id="linear-gradient" x1="138.59" y1="41.64" x2="137.59" y2="116.64" gradientUnits="userSpaceOnUse"><stop offset="0" stop-color="#ea7c00"/><stop offset="0.89" stop-color="#f0b780"/></linearGradient><linearGradient id="linear-gradient-2" x1="73.76" y1="220.02" x2="68.76" y2="61.02" gradientUnits="userSpaceOnUse"><stop offset="0" stop-color="#ea7c00"/><stop offset="0.89" stop-color="#f0b93f"/></linearGradient><linearGradient id="linear-gradient-3" x1="206.69" y1="215.9" x2="201.7" y2="56.93" gradientUnits="userSpaceOnUse"><stop offset="0" stop-color="#ea7c00"/><stop offset="0.63" stop-color="#d37c00"/></linearGradient></defs><g id="Layer_2" data-name="Layer 2"><g id="Stats_WHITE" data-name="Stats WHITE"><path class="cls-1" d="M274.63,137.32A137.32,137.32,0,1,1,137.32,0,137.3,137.3,0,0,1,274.63,137.32ZM137.32,36A101.29,101.29,0,1,0,238.6,137.32,101.29,101.29,0,0,0,137.32,36Z"/><path class="cls-2" d="M137.32,249.85a112.54,112.54,0,1,1,0-225.07h.74V0h-.74a137.32,137.32,0,1,0,0,274.63h.74V249.84Z"/><path class="cls-3" d="M138.06,0V24.79a112.53,112.53,0,0,1,0,225.05v24.78A137.31,137.31,0,0,0,138.06,0Z"/><line class="cls-4" x1="138.56" y1="25" x2="138.56"/></g></g></svg>