<svg xmlns="http://www.w3.org/2000/svg" xmlns:xlink="http://www.w3.org/1999/xlink" viewBox="0 0 274.63 274.63"><defs><style>.cls-1{fill:url(#linear-gradient);}.cls-2{fill:url(#linear-gradient-2);}.cls-3{fill:url(#linear-gradient-3);}.cls-4{fill:none;stroke:#fff;stroke-miterlimit:10;stroke-width:2px;}</style><linearGradient id="linear-gradient" x1="115.5" y1="95.36" x2="193.5" y2="245.36" gradientUnits="userSpaceOnUse"><stop offset="0.15" stop-color="#80bc05"/><stop offset="0.84" stop-color="#94d305"/></linearGradient><linearGradient id="linear-gradient-2" x1="72.94" y1="164.68" x2="92.44" y2="-28.81" xlink:href="#linear-gradient"/><linearGradient id="linear-gradient-3" x1="201.88" y1="205.31" x2="206.38" y2="71.82" gradientUnits="userSpaceOnUse"><stop offset="0.15" stop-color="#80bc05"/><stop offset="0.91" stop-color="#5b9e05"/></linearGradient></defs><g id="Layer_2" data-name="Layer 2"><g id="Stats_WHITE" data-name="Stats WHITE"><path class="cls-1" d="M274.63,137.32A137.32,137.32,0,1,1,137.32,0,137.3,137.3,0,0,1,274.63,137.32ZM137.32,36A101.29,101.29,0,1,0,238.6,137.32,101.29,101.29,0,0,0,137.32,36Z"/><path class="cls-2" d="M137.32,249.85a112.54,112.54,0,1,1,0-225.07h.94V0h-.94a137.32,137.32,0,1,0,0,274.63h.94V249.84Z"/><path class="cls-3" d="M274.63,137.32A137.31,137.31,0,0,0,138.26,0V24.79a112.53,112.53,0,0,1,0,225.05v24.78A137.31,137.31,0,0,0,274.63,137.32Z"/><line class="cls-4" x1="138.76" y1="25" x2="138.76"/></g></g></svg>