<svg xmlns="http://www.w3.org/2000/svg" viewBox="0 0 217.12 338.71"><defs><style>.cls-1{fill:#fff;}.cls-2{fill:#46b649;}.cls-3{fill:red;}</style></defs><g id="Layer_2" data-name="Layer 2"><g id="Layer_1-2" data-name="Layer 1"><path class="cls-1" d="M100,288.71a50,50,0,1,1-75-43.3V25a25,25,0,0,1,50,0V245.4A50,50,0,0,1,100,288.71Z"/><path class="cls-2" d="M100,288.71a50,50,0,1,1-75-43.3v-99a25,25,0,0,1,50,0v99A50,50,0,0,1,100,288.71Z"/><path class="cls-3" d="M217.12,288.71a50,50,0,1,1-75-43.3V25a25,25,0,0,1,50,0V245.4A50,50,0,0,1,217.12,288.71Z"/></g></g></svg>